<svg width="22" height="22" viewBox="0 0 22 22" fill="none" xmlns="http://www.w3.org/2000/svg">
<path fill-rule="evenodd" clip-rule="evenodd" d="M21.2504 12.4987C21.2504 5.77845 15.782 0.310059 9.06057 0.310059V1.5495C15.0982 1.5495 20.011 6.46138 20.011 12.4987H21.2504ZM1.53688 7.41265L3.33438 5.61516C3.3477 5.60183 3.37187 5.59471 3.40317 5.59471C3.4735 5.59471 3.58009 5.62972 3.67429 5.72423L6.3239 8.37352C6.46055 8.51048 6.47263 8.67378 6.43297 8.71375L5.60719 9.53921C4.5797 10.567 5.76336 12.8243 7.46294 14.5236C8.30886 15.3698 9.23843 16.045 10.0822 16.4265C11.4707 17.0533 12.1592 16.6647 12.4461 16.3781L13.2728 15.5523C13.3115 15.5127 13.4748 15.5248 13.6118 15.6614L16.2611 18.3123C16.398 18.4489 16.4101 18.6113 16.3714 18.6509L14.5727 20.4484C14.0741 20.9485 12.865 20.8491 11.3387 20.1823C9.57122 19.4113 7.60919 17.9987 5.81542 16.2061C4.13536 14.5261 2.68801 12.4878 1.84179 10.6154C1.15793 9.10231 1.04421 7.90533 1.53688 7.41265ZM0.712658 11.1248C1.61683 13.1292 3.15745 15.3007 4.93914 17.0824C6.8395 18.9828 8.93725 20.4872 10.8435 21.3188C11.8809 21.7715 12.8105 21.9977 13.591 21.9977C14.3694 21.9977 15.0012 21.774 15.4489 21.3247L17.2477 19.5275C17.7936 18.9803 17.745 18.0424 17.1377 17.436L14.4881 14.7851C13.8804 14.1787 12.9425 14.1304 12.3965 14.6761L11.5711 15.5015C11.3421 15.6723 9.92849 15.2366 8.33922 13.6473C6.74748 12.0568 6.31181 10.642 6.48379 10.4155L7.31049 9.59003C7.85615 9.04313 7.80657 8.10364 7.20018 7.49724L4.54933 4.84795C3.94294 4.24155 3.00376 4.19166 2.45779 4.73888L0.660602 6.53637C-0.23768 7.4331 -0.219398 9.06358 0.712658 11.1248Z" fill="#0961F5"/>
<path fill-rule="evenodd" clip-rule="evenodd" d="M9.29041 3.69531V4.93475C13.5888 4.93475 17.0855 8.43151 17.0855 12.7283H18.325C18.325 7.74765 14.2726 3.69531 9.29041 3.69531Z" fill="#0961F5"/>
<path fill-rule="evenodd" clip-rule="evenodd" d="M13.93 12.7283H15.1695C15.1695 9.48811 12.532 6.85059 9.29053 6.85059V8.09002C11.8493 8.09002 13.93 10.1707 13.93 12.7283Z" fill="#0961F5"/>
</svg>
