<svg width="24" height="24" viewBox="0 0 24 24" fill="none" xmlns="http://www.w3.org/2000/svg">
<g clip-path="url(#clip0_0_3394)">
<circle cx="12" cy="12" r="13" fill="#0961F5" stroke="#E8F1FF" stroke-width="2"/>
<path d="M8.3 16.099C7.354 16.099 6.628 15.758 6.122 15.076C5.62333 14.3867 5.374 13.3857 5.374 12.073C5.374 10.7823 5.62333 9.796 6.122 9.114C6.628 8.432 7.354 8.091 8.3 8.091C9.246 8.091 9.96833 8.432 10.467 9.114C10.973 9.796 11.226 10.7823 11.226 12.073C11.226 13.3783 10.973 14.3757 10.467 15.065C9.96833 15.7543 9.246 16.099 8.3 16.099ZM8.3 14.779C8.73267 14.779 9.048 14.5663 9.246 14.141C9.444 13.7157 9.543 13.0263 9.543 12.073C9.543 11.1417 9.444 10.4633 9.246 10.038C9.048 9.61267 8.73267 9.4 8.3 9.4C7.86733 9.4 7.552 9.61267 7.354 10.038C7.156 10.4633 7.057 11.1417 7.057 12.073C7.057 13.0263 7.156 13.7157 7.354 14.141C7.552 14.5663 7.86733 14.779 8.3 14.779ZM12.3107 16V14.735L14.9177 11.963C15.189 11.6623 15.3907 11.3837 15.5227 11.127C15.662 10.863 15.7317 10.6027 15.7317 10.346C15.7317 10.038 15.64 9.807 15.4567 9.653C15.2734 9.499 15.0094 9.422 14.6647 9.422C14.3347 9.422 13.9937 9.488 13.6417 9.62C13.297 9.74467 12.9487 9.93167 12.5967 10.181L12.0467 8.949C12.362 8.67767 12.7654 8.465 13.2567 8.311C13.748 8.14967 14.2467 8.069 14.7527 8.069C15.288 8.069 15.7574 8.157 16.1607 8.333C16.564 8.509 16.872 8.762 17.0847 9.092C17.3047 9.41467 17.4147 9.796 17.4147 10.236C17.4147 10.698 17.3194 11.1197 17.1287 11.501C16.9454 11.8823 16.6337 12.3077 16.1937 12.777L13.9497 15.131L13.7297 14.625H17.6897V16H12.3107Z" fill="white"/>
</g>
<defs>
<clipPath id="clip0_0_3394">
<rect width="24" height="24" fill="white"/>
</clipPath>
</defs>
</svg>
