<svg width="24" height="24" viewBox="0 0 24 24" fill="none" xmlns="http://www.w3.org/2000/svg">
<g clip-path="url(#clip0_0_3409)">
<circle cx="12" cy="12" r="13" fill="#0961F5" stroke="#E8F1FF" stroke-width="2"/>
<path d="M8.3 16.099C7.354 16.099 6.628 15.758 6.122 15.076C5.62333 14.3867 5.374 13.3857 5.374 12.073C5.374 10.7823 5.62333 9.796 6.122 9.114C6.628 8.432 7.354 8.091 8.3 8.091C9.246 8.091 9.96833 8.432 10.467 9.114C10.973 9.796 11.226 10.7823 11.226 12.073C11.226 13.3783 10.973 14.3757 10.467 15.065C9.96833 15.7543 9.246 16.099 8.3 16.099ZM8.3 14.779C8.73267 14.779 9.048 14.5663 9.246 14.141C9.444 13.7157 9.543 13.0263 9.543 12.073C9.543 11.1417 9.444 10.4633 9.246 10.038C9.048 9.61267 8.73267 9.4 8.3 9.4C7.86733 9.4 7.552 9.61267 7.354 10.038C7.156 10.4633 7.057 11.1417 7.057 12.073C7.057 13.0263 7.156 13.7157 7.354 14.141C7.552 14.5663 7.86733 14.779 8.3 14.779ZM14.8297 16.088C14.331 16.088 13.836 16.011 13.3447 15.857C12.8607 15.6957 12.4684 15.4793 12.1677 15.208L12.7177 13.976C13.0624 14.2253 13.4144 14.416 13.7737 14.548C14.133 14.6727 14.4924 14.735 14.8517 14.735C15.3064 14.735 15.6474 14.6323 15.8747 14.427C16.1094 14.2143 16.2267 13.91 16.2267 13.514C16.2267 13.25 16.1717 13.0263 16.0617 12.843C15.959 12.6523 15.805 12.5093 15.5997 12.414C15.4017 12.3113 15.1634 12.26 14.8847 12.26C14.6354 12.26 14.3787 12.3077 14.1147 12.403C13.858 12.491 13.627 12.623 13.4217 12.799H12.4427V8.168H17.4697V9.488H14.1147V11.732L13.5977 11.644C13.825 11.4093 14.0817 11.2333 14.3677 11.116C14.661 10.9913 14.9947 10.929 15.3687 10.929C15.86 10.929 16.289 11.0353 16.6557 11.248C17.0297 11.4607 17.323 11.754 17.5357 12.128C17.7484 12.502 17.8547 12.942 17.8547 13.448C17.8547 13.976 17.73 14.438 17.4807 14.834C17.2314 15.23 16.8794 15.538 16.4247 15.758C15.9774 15.978 15.4457 16.088 14.8297 16.088Z" fill="white"/>
</g>
<defs>
<clipPath id="clip0_0_3409">
<rect width="24" height="24" fill="white"/>
</clipPath>
</defs>
</svg>
