<svg width="70" height="76" viewBox="0 0 70 76" fill="none" xmlns="http://www.w3.org/2000/svg">
<path fill-rule="evenodd" clip-rule="evenodd" d="M8.50037 20.2496V36.4136L22.4994 44.4966L36.5004 36.4136V20.2496L22.4994 12.1676L8.50037 20.2496Z" fill="#B386BC"/>
<path fill-rule="evenodd" clip-rule="evenodd" d="M22.5 44.4961L36.5 36.4141L36.48 20.2501L22.48 28.3321L22.5 44.4961Z" fill="#CBAAD0"/>
<path fill-rule="evenodd" clip-rule="evenodd" d="M8.54272 20.2271L22.4997 28.2811L36.4567 20.2271L22.4997 12.1671L8.54272 20.2271Z" fill="#EADDED"/>
<path fill-rule="evenodd" clip-rule="evenodd" d="M43.5 40.7928C43.5 46.0388 39.246 50.2928 34 50.2928C28.754 50.2928 24.5 46.0388 24.5 40.7928C24.5 35.5468 28.754 31.2928 34 31.2928C39.246 31.2928 43.5 35.5468 43.5 40.7928Z" fill="#EADDED"/>
<path fill-rule="evenodd" clip-rule="evenodd" d="M45.5 2.37109L36.5 25.3511V31.6441C40.531 32.7421 43.5 36.4141 43.5 40.7931C43.5 42.1011 43.23 43.3911 42.707 44.5901L45.5 46.2031L59.5 38.1171L45.5 2.37109Z" fill="#CBAAD0"/>
<path fill-rule="evenodd" clip-rule="evenodd" d="M45.5 2.37109L36.5 25.3511V31.6441C40.531 32.7421 43.5 36.4141 43.5 40.7931C43.5 42.1011 43.23 43.3911 42.707 44.5901L45.5 46.2031V2.37109Z" fill="#B386BC"/>
<mask id="mask0_0_881" style="mask-type:luminance" maskUnits="userSpaceOnUse" x="8" y="0" width="53" height="51">
<path fill-rule="evenodd" clip-rule="evenodd" d="M8 0.999878H60.1207V50.7929H8V0.999878Z" fill="white"/>
</mask>
<g mask="url(#mask0_0_881)">
<path fill-rule="evenodd" clip-rule="evenodd" d="M43.4298 44.0859C43.4848 43.9339 43.5388 43.7769 43.5858 43.6209C43.6328 43.4609 43.6718 43.3009 43.7108 43.1369C43.7458 42.9919 43.7818 42.8519 43.8128 42.7069C43.8518 42.5119 43.8748 42.3089 43.9028 42.1089C43.9178 41.9919 43.9378 41.8829 43.9498 41.7659C43.9808 41.4409 43.9998 41.1169 43.9998 40.7929C43.9998 40.4809 43.9808 40.1759 43.9528 39.8709C43.9418 39.7579 43.9258 39.6489 43.9098 39.5389C43.8708 39.2149 43.8168 38.8949 43.7418 38.5739C43.7068 38.4299 43.6718 38.2849 43.6288 38.1369C43.5898 37.9879 43.5468 37.8359 43.4998 37.6879C43.4688 37.5899 43.4298 37.4959 43.3948 37.4019C43.2578 37.0239 43.0978 36.6559 42.9178 36.2969C42.9028 36.2619 42.8868 36.2309 42.8708 36.1949C42.7698 36.0079 42.6678 35.8239 42.5548 35.6449L42.4498 35.4689C42.3358 35.2889 42.2188 35.1169 42.0938 34.9449L41.9848 34.8009C40.7348 33.1289 38.9928 31.8909 36.9998 31.2579V25.4489L44.9998 5.01988V45.3399L43.3358 44.3789C43.3708 44.2809 43.3988 44.1839 43.4298 44.0859ZM33.9998 49.7929C29.7228 49.7929 26.1378 46.7889 25.2298 42.7809C25.0778 42.1289 25.0038 41.4609 24.9998 40.7929C24.9998 35.8279 29.0348 31.7929 33.9998 31.7929C34.3708 31.7929 34.7458 31.8199 35.1248 31.8709L35.2578 31.8909C35.5858 31.9379 35.9178 32.0079 36.2498 32.0939L36.3678 32.1289C38.0198 32.5779 39.5078 33.4919 40.6598 34.7619L40.7028 34.8129C40.8518 34.9769 40.9918 35.1449 41.1288 35.3199L41.1798 35.3909C41.7108 36.0939 42.1328 36.8709 42.4418 37.7029C42.4728 37.7849 42.5038 37.8669 42.5318 37.9489C42.5818 38.0979 42.6208 38.2419 42.6638 38.3909C42.7348 38.6449 42.7928 38.8989 42.8438 39.1519C42.8708 39.3159 42.8988 39.4809 42.9178 39.6449C42.9338 39.7459 42.9498 39.8519 42.9568 39.9569C42.9848 40.2309 42.9998 40.5119 42.9998 40.7929C42.9998 41.1019 42.9848 41.4099 42.9528 41.7149C42.9498 41.7459 42.9418 41.7769 42.9378 41.8089C42.9098 42.0819 42.8678 42.3559 42.8128 42.6249C42.8088 42.6489 42.7968 42.6759 42.7928 42.7029C42.7348 42.9769 42.6638 43.2459 42.5778 43.5119C42.5708 43.5429 42.5548 43.5739 42.5428 43.6089C42.4608 43.8629 42.3638 44.1129 42.2578 44.3589C40.8748 47.5549 37.6958 49.7929 33.9998 49.7929ZM22.9998 43.3359V28.6599L35.9998 21.1519V30.9959C35.3438 30.8589 34.6718 30.7929 33.9998 30.7929C28.4838 30.7929 23.9998 35.2769 23.9998 40.7929C23.9998 41.1019 24.0158 41.4179 24.0468 41.7339C24.0778 42.0469 24.1208 42.3519 24.1798 42.6559L22.9998 43.3359ZM8.99976 21.1519L21.9998 28.6599V43.3359L8.99976 35.8319V21.1519ZM35.3558 20.3709L22.4998 27.7929L9.64476 20.3709L22.4998 12.9489L35.3558 20.3709ZM45.9998 45.3359V5.01988L58.8788 37.9019L45.9998 45.3359ZM60.1208 38.3399L45.4998 0.999878L36.9998 22.7029V20.1639L22.4998 11.7929L7.99976 20.1639V36.4099L22.4998 44.7769L24.4268 43.6679C25.6638 47.7849 29.4838 50.7929 33.9998 50.7929C37.8948 50.7929 41.2698 48.5509 42.9178 45.2889L45.4998 46.7769L60.1208 38.3399Z" fill="#8E5AA4"/>
</g>
<path d="M4.51702 72.098C3.84502 72.098 3.19636 72 2.57102 71.804C1.95502 71.5987 1.44636 71.314 1.04502 70.95L1.66102 69.634C2.09969 69.9793 2.54769 70.2407 3.00502 70.418C3.47169 70.586 3.95236 70.67 4.44702 70.67C5.09102 70.67 5.56702 70.5487 5.87502 70.306C6.18302 70.054 6.33702 69.6667 6.33702 69.144C6.33702 68.64 6.17836 68.2667 5.86102 68.024C5.54369 67.7813 5.05369 67.66 4.39102 67.66H3.07502V66.232H4.15302C4.79702 66.232 5.27769 66.1107 5.59502 65.868C5.92169 65.6253 6.08502 65.2613 6.08502 64.776C6.08502 64.3093 5.94502 63.9547 5.66502 63.712C5.38502 63.4693 4.99769 63.348 4.50302 63.348C4.04569 63.348 3.58836 63.4367 3.13102 63.614C2.67369 63.782 2.23036 64.0387 1.80102 64.384L1.18502 63.068C1.58636 62.7133 2.09502 62.4333 2.71102 62.228C3.32702 62.0227 3.95702 61.92 4.60102 61.92C5.25436 61.92 5.81902 62.0273 6.29502 62.242C6.78036 62.4567 7.15369 62.7647 7.41502 63.166C7.67636 63.558 7.80702 64.02 7.80702 64.552C7.80702 65.1493 7.65302 65.658 7.34502 66.078C7.03702 66.4887 6.60302 66.778 6.04302 66.946L6.02902 66.806C6.68236 66.9553 7.18169 67.2447 7.52702 67.674C7.88169 68.094 8.05902 68.6353 8.05902 69.298C8.05902 70.166 7.73702 70.852 7.09302 71.356C6.45836 71.8507 5.59969 72.098 4.51702 72.098ZM9.97155 72V62.032H13.6396C14.7316 62.032 15.6602 62.228 16.4256 62.62C17.1909 63.012 17.7742 63.5813 18.1756 64.328C18.5862 65.0653 18.7916 65.9567 18.7916 67.002C18.7916 68.0567 18.5862 68.9573 18.1756 69.704C17.7742 70.4507 17.1862 71.02 16.4116 71.412C15.6462 71.804 14.7222 72 13.6396 72H9.97155ZM11.7776 70.53H13.5276C14.6756 70.53 15.5342 70.236 16.1036 69.648C16.6822 69.06 16.9716 68.178 16.9716 67.002C16.9716 64.6687 15.8236 63.502 13.5276 63.502H11.7776V70.53ZM24.4637 72V62.032H28.1317C29.2237 62.032 30.1524 62.228 30.9177 62.62C31.6831 63.012 32.2664 63.5813 32.6677 64.328C33.0784 65.0653 33.2837 65.9567 33.2837 67.002C33.2837 68.0567 33.0784 68.9573 32.6677 69.704C32.2664 70.4507 31.6784 71.02 30.9037 71.412C30.1384 71.804 29.2144 72 28.1317 72H24.4637ZM26.2697 70.53H28.0197C29.1677 70.53 30.0264 70.236 30.5957 69.648C31.1744 69.06 31.4637 68.178 31.4637 67.002C31.4637 64.6687 30.3157 63.502 28.0197 63.502H26.2697V70.53ZM41.0501 71.216C40.7141 71.496 40.2988 71.7153 39.8041 71.874C39.3188 72.0233 38.8241 72.098 38.3201 72.098C37.5548 72.098 36.8921 71.9533 36.3321 71.664C35.7815 71.3747 35.3568 70.9547 35.0581 70.404C34.7595 69.8533 34.6101 69.2 34.6101 68.444C34.6101 67.716 34.7548 67.0767 35.0441 66.526C35.3335 65.966 35.7348 65.532 36.2481 65.224C36.7615 64.9067 37.3541 64.748 38.0261 64.748C38.6795 64.748 39.2395 64.8927 39.7061 65.182C40.1728 65.462 40.5321 65.868 40.7841 66.4C41.0455 66.932 41.1761 67.562 41.1761 68.29V68.556H36.1501L36.1641 67.618H40.1401L39.6641 68.094C39.6735 67.4127 39.5381 66.8947 39.2581 66.54C38.9875 66.1853 38.5908 66.008 38.0681 66.008C37.5081 66.008 37.0741 66.2087 36.7661 66.61C36.4581 67.002 36.3041 67.5667 36.3041 68.304C36.3041 69.144 36.4768 69.7647 36.8221 70.166C37.1675 70.558 37.6901 70.754 38.3901 70.754C38.7728 70.754 39.1461 70.6933 39.5101 70.572C39.8835 70.4413 40.2288 70.2547 40.5461 70.012L41.0501 71.216ZM45.2481 72.098C43.9601 72.098 42.9427 71.804 42.1961 71.216L42.6861 69.984C43.0594 70.264 43.4654 70.474 43.9041 70.614C44.3427 70.754 44.8001 70.824 45.2761 70.824C45.7054 70.824 46.0321 70.754 46.2561 70.614C46.4801 70.474 46.5921 70.278 46.5921 70.026C46.5921 69.8113 46.5127 69.6433 46.3541 69.522C46.1954 69.3913 45.9247 69.2793 45.5421 69.186L44.3661 68.92C43.7221 68.78 43.2367 68.5467 42.9101 68.22C42.5927 67.884 42.4341 67.4593 42.4341 66.946C42.4341 66.5167 42.5554 66.1387 42.7981 65.812C43.0407 65.476 43.3814 65.2147 43.8201 65.028C44.2587 64.8413 44.7674 64.748 45.3461 64.748C45.8501 64.748 46.3354 64.8273 46.8021 64.986C47.2687 65.1353 47.6747 65.3547 48.0201 65.644L47.5161 66.848C47.1614 66.5773 46.7974 66.3767 46.4241 66.246C46.0601 66.1153 45.6961 66.05 45.3321 66.05C44.9307 66.05 44.6181 66.1247 44.3941 66.274C44.1701 66.4233 44.0581 66.6287 44.0581 66.89C44.0581 67.0953 44.1234 67.2587 44.2541 67.38C44.3941 67.5013 44.6321 67.5993 44.9681 67.674L46.1581 67.968C46.8581 68.1173 47.3667 68.36 47.6841 68.696C48.0107 69.0227 48.1741 69.4567 48.1741 69.998C48.1741 70.642 47.9127 71.1553 47.3901 71.538C46.8674 71.9113 46.1534 72.098 45.2481 72.098ZM49.6577 72V64.93H51.4077V72H49.6577ZM49.5737 61.724H51.5197V63.446H49.5737V61.724ZM56.5424 75.122C55.4504 75.122 54.4938 74.898 53.6724 74.45L53.9524 73.12C54.3818 73.344 54.8018 73.5073 55.2124 73.61C55.6324 73.722 56.0664 73.778 56.5144 73.778C57.1398 73.778 57.6111 73.624 57.9284 73.316C58.2458 73.008 58.4044 72.5413 58.4044 71.916V70.166H58.5724C58.4604 70.4647 58.2831 70.74 58.0404 70.992C57.8071 71.2347 57.5224 71.4307 57.1864 71.58C56.8504 71.72 56.4818 71.79 56.0804 71.79C55.4644 71.79 54.9184 71.6453 54.4424 71.356C53.9664 71.0667 53.5931 70.6607 53.3224 70.138C53.0611 69.606 52.9304 68.9853 52.9304 68.276C52.9304 67.5667 53.0611 66.9507 53.3224 66.428C53.5931 65.896 53.9664 65.4853 54.4424 65.196C54.9184 64.8973 55.4644 64.748 56.0804 64.748C56.6871 64.748 57.2144 64.8973 57.6624 65.196C58.1104 65.4947 58.4138 65.896 58.5724 66.4L58.4044 66.428V64.93H60.1404V71.776C60.1404 72.8773 59.8371 73.708 59.2304 74.268C58.6238 74.8373 57.7278 75.122 56.5424 75.122ZM56.5564 70.432C57.1351 70.432 57.5878 70.2407 57.9144 69.858C58.2411 69.4753 58.4044 68.948 58.4044 68.276C58.4044 67.604 58.2411 67.0767 57.9144 66.694C57.5878 66.3113 57.1351 66.12 56.5564 66.12C55.9684 66.12 55.5064 66.3113 55.1704 66.694C54.8344 67.0767 54.6664 67.604 54.6664 68.276C54.6664 68.948 54.8344 69.4753 55.1704 69.858C55.5064 70.2407 55.9684 70.432 56.5564 70.432ZM62.0171 72V66.932C62.0171 66.596 62.0078 66.26 61.9891 65.924C61.9798 65.588 61.9518 65.2567 61.9051 64.93H63.5571L63.7111 66.33L63.5571 66.372C63.7811 65.84 64.1124 65.4387 64.5511 65.168C64.9991 64.888 65.5124 64.748 66.0911 64.748C67.7711 64.748 68.6111 65.7187 68.6111 67.66V72H66.8611V67.73C66.8611 67.1793 66.7538 66.778 66.5391 66.526C66.3244 66.2647 65.9931 66.134 65.5451 66.134C65.0038 66.134 64.5698 66.3067 64.2431 66.652C63.9258 66.988 63.7671 67.436 63.7671 67.996V72H62.0171Z" fill="#202244" fill-opacity="0.8"/>
</svg>
