<svg width="146" height="80" viewBox="0 0 146 80" fill="none" xmlns="http://www.w3.org/2000/svg">
<path fill-rule="evenodd" clip-rule="evenodd" d="M59.75 29.2035V41.4502C60.8455 41.837 61.5797 42.871 61.5834 44.0352V45.8685C61.5834 46.3736 61.1718 46.7852 60.6667 46.7852H51.5C50.995 46.7852 50.5834 46.3736 50.5834 45.8685V44.0352C50.587 42.871 51.3213 41.837 52.4167 41.4502V29.2035C51.3213 28.8167 50.587 27.7827 50.5834 26.6185V24.7852C50.5834 24.2801 50.995 23.8685 51.5 23.8685H60.6667C61.1718 23.8685 61.5834 24.2801 61.5834 24.7852V26.6185C61.5797 27.7827 60.8455 28.8167 59.75 29.2035Z" fill="#96A1C3"/>
<path fill-rule="evenodd" clip-rule="evenodd" d="M59.7499 29.2035V41.4502C60.8454 41.837 61.5796 42.871 61.5833 44.0352V45.8685C61.5833 46.3736 61.1717 46.7852 60.6666 46.7852H54.2499C54.2463 46.7604 54.2463 46.7348 54.2499 46.7137V44.7337C54.2536 43.5301 54.9732 42.4457 56.0833 41.9837V28.7168C54.9585 28.2474 54.2316 27.141 54.2499 25.92V23.94C54.2463 23.9189 54.2463 23.8933 54.2499 23.8685H60.6666C61.1717 23.8685 61.5833 24.2801 61.5833 24.7852V26.6185C61.5796 27.7827 60.8454 28.8167 59.7499 29.2035Z" fill="#CCD3EB"/>
<path fill-rule="evenodd" clip-rule="evenodd" d="M76.25 29.2035V41.4502C77.3455 41.837 78.0797 42.871 78.0834 44.0352V45.8685C78.0834 46.3736 77.6718 46.7852 77.1667 46.7852H68C67.495 46.7852 67.0834 46.3736 67.0834 45.8685V44.0352C67.087 42.871 67.8213 41.837 68.9167 41.4502V29.2035C67.8213 28.8167 67.087 27.7827 67.0834 26.6185V24.7852C67.0834 24.2801 67.495 23.8685 68 23.8685H77.1667C77.6718 23.8685 78.0834 24.2801 78.0834 24.7852V26.6185C78.0797 27.7827 77.3455 28.8167 76.25 29.2035Z" fill="#96A1C3"/>
<path fill-rule="evenodd" clip-rule="evenodd" d="M76.2499 29.2035V41.4502C77.3454 41.837 78.0796 42.871 78.0833 44.0352V45.8685C78.0833 46.3736 77.6717 46.7852 77.1666 46.7852H70.7499C70.7463 46.7604 70.7463 46.7348 70.7499 46.7137V44.7337C70.7536 43.5301 71.4732 42.4457 72.5833 41.9837V28.7168C71.4585 28.2474 70.7316 27.141 70.7499 25.92V23.94C70.7463 23.9189 70.7463 23.8933 70.7499 23.8685H77.1666C77.6717 23.8685 78.0833 24.2801 78.0833 24.7852V26.6185C78.0796 27.7827 77.3454 28.8167 76.2499 29.2035Z" fill="#CCD3EB"/>
<path fill-rule="evenodd" clip-rule="evenodd" d="M92.75 29.2035V41.4502C93.8455 41.837 94.5797 42.871 94.5834 44.0352V45.8685C94.5834 46.3736 94.1718 46.7852 93.6667 46.7852H84.5C83.995 46.7852 83.5834 46.3736 83.5834 45.8685V44.0352C83.587 42.871 84.3213 41.837 85.4167 41.4502V29.2035C84.3213 28.8167 83.587 27.7827 83.5834 26.6185V24.7852C83.5834 24.2801 83.995 23.8685 84.5 23.8685H93.6667C94.1718 23.8685 94.5834 24.2801 94.5834 24.7852V26.6185C94.5797 27.7827 93.8455 28.8167 92.75 29.2035Z" fill="#96A1C3"/>
<path fill-rule="evenodd" clip-rule="evenodd" d="M95.5 18.3682C95.5 18.8732 95.0884 19.2848 94.5833 19.2848H50.5833C50.1965 19.2848 49.8527 19.041 49.7207 18.6798C49.5915 18.3141 49.7061 17.9062 50.0067 17.6623L50.2542 17.4515L59.0084 10.2932L68.7516 2.31549C69.1531 1.98641 69.5968 1.71416 70.0735 1.50333C70.3815 1.35299 70.7069 1.23474 71.0433 1.15224C72.0535 0.88366 73.1131 0.88366 74.1233 1.15224C74.3525 1.20541 74.578 1.28058 74.7925 1.37408L75.0931 1.50333C75.4626 1.66741 75.8127 1.87183 76.1391 2.10833L76.415 2.31549L84.665 9.07224L87.4901 11.3822L88.1666 11.9515L90.9991 14.2716L93.7491 16.5165L94.8766 17.4332L95.1241 17.6449C95.357 17.8136 95.4963 18.0822 95.5 18.3682ZM92.75 29.2032V41.4507C93.8454 41.8376 94.5796 42.8707 94.5833 44.0348V45.8682C94.5833 46.3742 94.1717 46.7848 93.6666 46.7848H87.25C87.2463 46.761 87.2463 46.7344 87.25 46.7133V44.7342C87.2536 43.5297 87.9732 42.4462 89.0833 41.9842V28.7164C87.9586 28.2471 87.2316 27.1407 87.25 25.9197V23.9397C87.2463 23.9186 87.2463 23.8929 87.25 23.8682H93.6666C94.1717 23.8682 94.5833 24.2797 94.5833 24.7848V26.6182C94.5796 27.7832 93.8454 28.8163 92.75 29.2032Z" fill="#CCD3EB"/>
<path fill-rule="evenodd" clip-rule="evenodd" d="M93.7848 16.5348H58.8332C58.4464 16.5348 58.1026 16.2909 57.9706 15.9298C57.8414 15.564 57.9559 15.1561 58.2566 14.9123L58.5041 14.7014L67.2583 7.54319L74.7924 1.37402L75.093 1.50327C75.4624 1.66736 75.8135 1.87177 76.1389 2.10827L76.4149 2.31544L84.6649 9.07219L87.49 11.3822L88.1665 11.9514L90.999 14.2715L93.7848 16.5348Z" fill="#F5F7FF"/>
<path fill-rule="evenodd" clip-rule="evenodd" d="M49.6666 17.4519H95.5C97.018 17.4519 98.25 18.6839 98.25 20.2019V22.9519C98.25 24.4699 97.018 25.7019 95.5 25.7019H49.6666C48.1486 25.7019 46.9166 24.4699 46.9166 22.9519V20.2019C46.9166 18.6839 48.1486 17.4519 49.6666 17.4519Z" fill="#CCD3EB"/>
<path fill-rule="evenodd" clip-rule="evenodd" d="M72.9306 9.20199H72.0139C71.7628 9.20199 71.5556 8.99757 71.5556 8.74365C71.5556 8.48974 71.7628 8.28532 72.0139 8.28532H74.4165C74.9216 8.28532 75.3332 7.87374 75.3332 7.36865C75.3332 6.86357 74.9216 6.45199 74.4165 6.45199H73.4999V5.53532C73.4999 5.03024 73.0883 4.61865 72.5832 4.61865C72.0781 4.61865 71.6665 5.03024 71.6665 5.53532V6.45199C70.4024 6.54824 69.4537 7.6519 69.5499 8.91874C69.6471 10.1828 70.7499 11.1316 72.0139 11.0353H72.9306C73.1845 11.0353 73.3889 11.2397 73.3889 11.4937C73.3889 11.7476 73.1845 11.952 72.9306 11.952H70.7499C70.2448 11.952 69.8332 12.3636 69.8332 12.8687C69.8332 13.3737 70.2448 13.7853 70.7499 13.7853H71.6665V14.702C71.6665 15.2071 72.0781 15.6187 72.5832 15.6187C73.0883 15.6187 73.4999 15.2071 73.4999 14.702V13.7028C74.6283 13.4306 75.3726 12.3535 75.2296 11.2003C75.0829 10.0472 74.0948 9.18365 72.9306 9.20199Z" fill="#F5F7FF"/>
<path fill-rule="evenodd" clip-rule="evenodd" d="M94.5833 44.9515H50.5833C48.0515 44.9515 46 47.003 46 49.5349V53.2015C46 53.7075 46.4116 54.1182 46.9167 54.1182H98.25C98.7551 54.1182 99.1667 53.7075 99.1667 53.2015V49.5349C99.1667 47.003 97.1152 44.9515 94.5833 44.9515Z" fill="#96A1C3"/>
<path fill-rule="evenodd" clip-rule="evenodd" d="M88.3314 13.2553C88.16 13.4661 87.9015 13.5917 87.6255 13.5917C87.4147 13.5954 87.2066 13.5202 87.0499 13.3809L86.333 12.797C86.0003 12.4606 85.9755 11.9307 86.2725 11.5686C86.5695 11.2038 87.0957 11.125 87.4899 11.3826L88.1664 11.9518C88.3635 12.1021 88.4927 12.324 88.5248 12.5678C88.5532 12.8116 88.4854 13.0619 88.3314 13.2553Z" fill="#033C59"/>
<path fill-rule="evenodd" clip-rule="evenodd" d="M72.0139 8.28483H74.4165C74.9216 8.28483 75.3332 7.87325 75.3332 7.36816C75.3332 6.86308 74.9216 6.4515 74.4165 6.4515H73.4999V5.53483C73.4999 5.02975 73.0883 4.61816 72.5832 4.61816C72.0781 4.61816 71.6665 5.02975 71.6665 5.53483V6.4515C70.4024 6.54775 69.4537 7.65141 69.5499 8.91825C69.6471 10.1823 70.7499 11.1311 72.0139 11.0348H72.9306C73.1845 11.0348 73.3889 11.2392 73.3889 11.4932C73.3889 11.7471 73.1845 11.9515 72.9306 11.9515H70.7499C70.2448 11.9515 69.8332 12.3631 69.8332 12.8682C69.8332 13.3732 70.2448 13.7848 70.7499 13.7848H71.6665V14.7015C71.6665 15.2066 72.0781 15.6182 72.5832 15.6182C73.0883 15.6182 73.4999 15.2066 73.4999 14.7015V13.7032C74.6283 13.4301 75.3726 12.353 75.2296 11.1998C75.0829 10.0467 74.0948 9.18316 72.9306 9.2015H72.0139C71.7628 9.2015 71.5556 8.99708 71.5556 8.74316C71.5556 8.48925 71.7628 8.28483 72.0139 8.28483Z" fill="#0074FF"/>
<mask id="mask0_0_988" style="mask-type:luminance" maskUnits="userSpaceOnUse" x="46" y="0" width="54" height="55">
<path fill-rule="evenodd" clip-rule="evenodd" d="M46 0.916992H99.1667V54.1183H46V0.916992Z" fill="white"/>
</mask>
<g mask="url(#mask0_0_988)">
<path fill-rule="evenodd" clip-rule="evenodd" d="M97.3333 52.285H47.8333V49.535C47.8333 48.0179 49.0653 46.785 50.5833 46.785H94.5833C96.1013 46.785 97.3333 48.0179 97.3333 49.535V52.285ZM52.4167 44.035C52.4167 43.5299 52.8282 43.1183 53.3333 43.1183H58.8333C59.3384 43.1183 59.75 43.5299 59.75 44.035V44.9517H52.4167V44.035ZM49.6667 23.8683C49.1616 23.8683 48.75 23.4567 48.75 22.9517V20.2017C48.75 19.6966 49.1616 19.285 49.6667 19.285H95.5C96.0051 19.285 96.4167 19.6966 96.4167 20.2017V22.9517C96.4167 23.4567 96.0051 23.8683 95.5 23.8683H49.6667ZM87.25 41.285H90.9167V29.3683H87.25V41.285ZM85.4167 44.035C85.4167 43.5299 85.8283 43.1183 86.3333 43.1183H91.8333C92.3384 43.1183 92.75 43.5299 92.75 44.035V44.9517H85.4167V44.035ZM75.3333 27.535H69.8333C69.3282 27.535 68.9167 27.1243 68.9167 26.6183V25.7017H76.25V26.6183C76.25 27.1243 75.8384 27.535 75.3333 27.535ZM70.75 41.285H74.4167V29.3683H70.75V41.285ZM68.9167 44.035C68.9167 43.5299 69.3282 43.1183 69.8333 43.1183H75.3333C75.8384 43.1183 76.25 43.5299 76.25 44.035V44.9517H68.9167V44.035ZM54.25 41.285H57.9167V29.3683H54.25V41.285ZM53.3333 27.535C52.8282 27.535 52.4167 27.1243 52.4167 26.6183V25.7017H59.75V26.6183C59.75 27.1243 59.3384 27.535 58.8333 27.535H53.3333ZM59.75 41.4509V29.2033C60.8454 28.8165 61.5797 27.7825 61.5833 26.6183V25.7017H67.0833V26.6183C67.087 27.7825 67.8213 28.8165 68.9167 29.2033V41.4509C67.8213 41.8377 67.087 42.8708 67.0833 44.035V44.9517H61.5833V44.035C61.5797 42.8708 60.8454 41.8377 59.75 41.4509ZM76.25 41.4509V29.2033C77.3454 28.8165 78.0797 27.7825 78.0833 26.6183V25.7017H83.5833V26.6183C83.587 27.7825 84.3213 28.8165 85.4167 29.2033V41.4509C84.3213 41.8377 83.587 42.8708 83.5833 44.035V44.9517H78.0833V44.035C78.0797 42.8708 77.3454 41.8377 76.25 41.4509ZM92.75 26.6183C92.75 27.1243 92.3384 27.535 91.8333 27.535H86.3333C85.8283 27.535 85.4167 27.1243 85.4167 26.6183V25.7017H92.75V26.6183ZM94.5833 44.9517V44.035C94.5797 42.8708 93.8454 41.8377 92.75 41.4509V29.2033C93.8454 28.8165 94.5797 27.7825 94.5833 26.6183V25.7017H95.5C97.018 25.7017 98.25 24.4697 98.25 22.9517V20.2017C98.25 18.6837 97.018 17.4517 95.5 17.4517H94.9124L91.0349 14.2901C90.7874 14.0426 90.4226 13.9573 90.0935 14.0682C89.7598 14.1828 89.5233 14.4725 89.4775 14.8199C89.4344 15.1673 89.5884 15.5074 89.8817 15.7008L92.0158 17.4517H53.1509L69.9048 3.70167C71.2652 2.642 73.1242 2.48067 74.6458 3.29008C74.8603 3.40833 75.0684 3.54767 75.2618 3.70167L83.5118 10.4474C83.9023 10.7096 84.4285 10.6271 84.7255 10.2659C85.0225 9.90017 84.9977 9.37033 84.665 9.03667L76.415 2.29092C76.3252 2.21575 76.2289 2.14425 76.1318 2.07917C75.81 1.83625 75.4626 1.62817 75.0932 1.46408C72.9949 0.504333 70.5355 0.822416 68.7517 2.29092L59.0084 10.2934L50.2543 17.4517H49.6667C48.1487 17.4517 46.9167 18.6837 46.9167 20.2017V22.9517C46.9167 24.4697 48.1487 25.7017 49.6667 25.7017H50.5833V26.6183C50.587 27.7825 51.3212 28.8165 52.4167 29.2033V41.4509C51.3212 41.8377 50.587 42.8708 50.5833 44.035V44.9517C48.0515 44.9517 46 47.0032 46 49.535V53.2017C46 53.7077 46.4116 54.1183 46.9167 54.1183H98.25C98.7551 54.1183 99.1667 53.7077 99.1667 53.2017V49.535C99.1667 47.0032 97.1152 44.9517 94.5833 44.9517Z" fill="#033C59"/>
</g>
<path d="M1.63073 76V66.032H8.15473V67.474H3.40873V70.218H7.87473V71.66H3.40873V76H1.63073ZM9.50245 76V68.93H11.2525V76H9.50245ZM9.41845 65.724H11.3645V67.446H9.41845V65.724ZM13.1392 76V70.932C13.1392 70.596 13.1298 70.26 13.1112 69.924C13.1018 69.588 13.0738 69.2567 13.0272 68.93H14.6792L14.8332 70.33L14.6792 70.372C14.9032 69.84 15.2345 69.4387 15.6732 69.168C16.1212 68.888 16.6345 68.748 17.2132 68.748C18.8932 68.748 19.7332 69.7187 19.7332 71.66V76H17.9832V71.73C17.9832 71.1793 17.8758 70.778 17.6612 70.526C17.4465 70.2647 17.1152 70.134 16.6672 70.134C16.1258 70.134 15.6918 70.3067 15.3652 70.652C15.0478 70.988 14.8892 71.436 14.8892 71.996V76H13.1392ZM24.319 76.098C23.703 76.098 23.157 75.9533 22.681 75.664C22.205 75.3653 21.8364 74.9453 21.575 74.404C21.323 73.8533 21.197 73.2093 21.197 72.472C21.197 71.7253 21.3277 71.0767 21.589 70.526C21.8504 69.966 22.2144 69.532 22.681 69.224C23.157 68.9067 23.703 68.748 24.319 68.748C24.9164 68.748 25.4344 68.8973 25.873 69.196C26.321 69.4853 26.6244 69.8913 26.783 70.414L26.615 70.512V68.93H28.337V76H26.615V74.404L26.783 74.46C26.6244 74.9827 26.321 75.3887 25.873 75.678C25.4344 75.958 24.9164 76.098 24.319 76.098ZM24.795 74.754C25.3737 74.754 25.8217 74.5533 26.139 74.152C26.4564 73.7507 26.615 73.1813 26.615 72.444C26.615 71.688 26.4564 71.114 26.139 70.722C25.8217 70.3207 25.3737 70.12 24.795 70.12C24.207 70.12 23.7497 70.3253 23.423 70.736C23.0964 71.1467 22.933 71.7253 22.933 72.472C22.933 73.2 23.0964 73.7647 23.423 74.166C23.7497 74.558 24.207 74.754 24.795 74.754ZM30.229 76V70.932C30.229 70.596 30.2197 70.26 30.201 69.924C30.1917 69.588 30.1637 69.2567 30.117 68.93H31.769L31.923 70.33L31.769 70.372C31.993 69.84 32.3243 69.4387 32.763 69.168C33.211 68.888 33.7243 68.748 34.303 68.748C35.983 68.748 36.823 69.7187 36.823 71.66V76H35.073V71.73C35.073 71.1793 34.9657 70.778 34.751 70.526C34.5363 70.2647 34.205 70.134 33.757 70.134C33.2157 70.134 32.7817 70.3067 32.455 70.652C32.1377 70.988 31.979 71.436 31.979 71.996V76H30.229ZM41.8569 76.098C41.1196 76.098 40.4802 75.9533 39.9389 75.664C39.4069 75.3653 38.9962 74.9453 38.7069 74.404C38.4269 73.8533 38.2869 73.2093 38.2869 72.472C38.2869 71.7253 38.4362 71.072 38.7349 70.512C39.0336 69.952 39.4582 69.518 40.0089 69.21C40.5596 68.902 41.2036 68.748 41.9409 68.748C42.4356 68.748 42.9162 68.8273 43.3829 68.986C43.8589 69.1447 44.2462 69.364 44.5449 69.644L44.0409 70.876C43.7422 70.6333 43.4249 70.4513 43.0889 70.33C42.7529 70.1993 42.4169 70.134 42.0809 70.134C41.4649 70.134 40.9749 70.33 40.6109 70.722C40.2562 71.114 40.0789 71.688 40.0789 72.444C40.0789 73.1907 40.2562 73.76 40.6109 74.152C40.9656 74.544 41.4602 74.74 42.0949 74.74C42.4216 74.74 42.7529 74.6793 43.0889 74.558C43.4249 74.4273 43.7422 74.236 44.0409 73.984L44.5449 75.216C44.2369 75.496 43.8402 75.7153 43.3549 75.874C42.8789 76.0233 42.3796 76.098 41.8569 76.098ZM51.7816 75.216C51.4456 75.496 51.0302 75.7153 50.5356 75.874C50.0502 76.0233 49.5556 76.098 49.0516 76.098C48.2862 76.098 47.6236 75.9533 47.0636 75.664C46.5129 75.3747 46.0882 74.9547 45.7896 74.404C45.4909 73.8533 45.3416 73.2 45.3416 72.444C45.3416 71.716 45.4862 71.0767 45.7756 70.526C46.0649 69.966 46.4662 69.532 46.9796 69.224C47.4929 68.9067 48.0856 68.748 48.7576 68.748C49.4109 68.748 49.9709 68.8927 50.4376 69.182C50.9042 69.462 51.2636 69.868 51.5156 70.4C51.7769 70.932 51.9076 71.562 51.9076 72.29V72.556H46.8816L46.8956 71.618H50.8716L50.3956 72.094C50.4049 71.4127 50.2696 70.8947 49.9896 70.54C49.7189 70.1853 49.3222 70.008 48.7996 70.008C48.2396 70.008 47.8056 70.2087 47.4976 70.61C47.1896 71.002 47.0356 71.5667 47.0356 72.304C47.0356 73.144 47.2082 73.7647 47.5536 74.166C47.8989 74.558 48.4216 74.754 49.1216 74.754C49.5042 74.754 49.8776 74.6933 50.2416 74.572C50.6149 74.4413 50.9602 74.2547 51.2776 74.012L51.7816 75.216ZM60.2553 76.098C59.574 76.098 58.9766 75.986 58.4633 75.762C57.95 75.538 57.5486 75.2253 57.2593 74.824C56.9793 74.4133 56.8393 73.9373 56.8393 73.396C56.8393 72.7147 57.054 72.1173 57.4833 71.604C57.9126 71.0907 58.6033 70.6053 59.5553 70.148C60.0873 69.8773 60.5073 69.6347 60.8153 69.42C61.1233 69.2053 61.338 69 61.4593 68.804C61.59 68.608 61.6553 68.3933 61.6553 68.16C61.6553 67.852 61.562 67.6047 61.3753 67.418C61.1886 67.2313 60.9413 67.138 60.6333 67.138C60.288 67.138 60.008 67.2407 59.7933 67.446C59.588 67.6513 59.4853 67.922 59.4853 68.258C59.4853 68.426 59.5133 68.5893 59.5693 68.748C59.6346 68.8973 59.742 69.07 59.8913 69.266C60.05 69.4527 60.274 69.7 60.5633 70.008L63.9793 73.564C64.2873 73.872 64.6233 74.1427 64.9873 74.376C65.3513 74.6 65.7573 74.7867 66.2053 74.936L65.3373 76.126C64.8426 75.958 64.404 75.7527 64.0213 75.51C63.6386 75.2673 63.2933 74.9873 62.9853 74.67L59.0793 70.61C58.7993 70.3113 58.5706 70.036 58.3933 69.784C58.216 69.5227 58.0853 69.2707 58.0013 69.028C57.9266 68.776 57.8893 68.524 57.8893 68.272C57.8893 67.8053 58.0013 67.3993 58.2253 67.054C58.4586 66.6993 58.7806 66.424 59.1913 66.228C59.602 66.032 60.0733 65.934 60.6053 65.934C61.3613 65.934 61.9633 66.13 62.4113 66.522C62.8686 66.914 63.0973 67.4367 63.0973 68.09C63.0973 68.4913 63.004 68.86 62.8173 69.196C62.6306 69.532 62.3366 69.8587 61.9353 70.176C61.534 70.484 61.0066 70.7967 60.3533 71.114C59.9333 71.3287 59.588 71.548 59.3173 71.772C59.0466 71.996 58.8506 72.234 58.7293 72.486C58.608 72.7287 58.5473 72.9993 58.5473 73.298C58.5473 73.746 58.706 74.1007 59.0233 74.362C59.3406 74.6233 59.77 74.754 60.3113 74.754C60.946 74.754 61.52 74.5533 62.0333 74.152C62.5466 73.7413 62.962 73.1813 63.2793 72.472C63.5966 71.7533 63.774 70.9273 63.8113 69.994H65.2813C65.2533 70.89 65.104 71.7113 64.8333 72.458C64.5626 73.2047 64.2033 73.8487 63.7553 74.39C63.3073 74.9313 62.7846 75.3513 62.1873 75.65C61.5993 75.9487 60.9553 76.098 60.2553 76.098ZM71.5524 76H69.7324L74.2404 66.032H75.7104L80.2184 76H78.4264L74.7584 67.432H75.2484L71.5524 76ZM71.7204 73.662L72.4064 72.262H77.4884L78.1464 73.662H71.7204ZM84.3628 76.098C83.6254 76.098 82.9861 75.9533 82.4448 75.664C81.9128 75.3653 81.5021 74.9453 81.2128 74.404C80.9328 73.8533 80.7928 73.2093 80.7928 72.472C80.7928 71.7253 80.9421 71.072 81.2408 70.512C81.5394 69.952 81.9641 69.518 82.5148 69.21C83.0654 68.902 83.7094 68.748 84.4468 68.748C84.9414 68.748 85.4221 68.8273 85.8888 68.986C86.3648 69.1447 86.7521 69.364 87.0508 69.644L86.5468 70.876C86.2481 70.6333 85.9308 70.4513 85.5948 70.33C85.2588 70.1993 84.9228 70.134 84.5868 70.134C83.9708 70.134 83.4808 70.33 83.1168 70.722C82.7621 71.114 82.5848 71.688 82.5848 72.444C82.5848 73.1907 82.7621 73.76 83.1168 74.152C83.4714 74.544 83.9661 74.74 84.6008 74.74C84.9274 74.74 85.2588 74.6793 85.5948 74.558C85.9308 74.4273 86.2481 74.236 86.5468 73.984L87.0508 75.216C86.7428 75.496 86.3461 75.7153 85.8608 75.874C85.3848 76.0233 84.8854 76.098 84.3628 76.098ZM91.4174 76.098C90.6801 76.098 90.0408 75.9533 89.4994 75.664C88.9674 75.3653 88.5568 74.9453 88.2674 74.404C87.9874 73.8533 87.8474 73.2093 87.8474 72.472C87.8474 71.7253 87.9968 71.072 88.2954 70.512C88.5941 69.952 89.0188 69.518 89.5694 69.21C90.1201 68.902 90.7641 68.748 91.5014 68.748C91.9961 68.748 92.4768 68.8273 92.9434 68.986C93.4194 69.1447 93.8068 69.364 94.1054 69.644L93.6014 70.876C93.3028 70.6333 92.9854 70.4513 92.6494 70.33C92.3134 70.1993 91.9774 70.134 91.6414 70.134C91.0254 70.134 90.5354 70.33 90.1714 70.722C89.8168 71.114 89.6394 71.688 89.6394 72.444C89.6394 73.1907 89.8168 73.76 90.1714 74.152C90.5261 74.544 91.0208 74.74 91.6554 74.74C91.9821 74.74 92.3134 74.6793 92.6494 74.558C92.9854 74.4273 93.3028 74.236 93.6014 73.984L94.1054 75.216C93.7974 75.496 93.4008 75.7153 92.9154 75.874C92.4394 76.0233 91.9401 76.098 91.4174 76.098ZM98.4861 76.098C97.7488 76.098 97.1095 75.9487 96.5681 75.65C96.0361 75.3513 95.6255 74.9313 95.3361 74.39C95.0468 73.8393 94.9021 73.186 94.9021 72.43C94.9021 71.6833 95.0468 71.0347 95.3361 70.484C95.6255 69.924 96.0361 69.4947 96.5681 69.196C97.1095 68.8973 97.7488 68.748 98.4861 68.748C99.2048 68.748 99.8301 68.8973 100.362 69.196C100.903 69.4947 101.319 69.924 101.608 70.484C101.907 71.0347 102.056 71.6833 102.056 72.43C102.056 73.186 101.907 73.8393 101.608 74.39C101.319 74.9313 100.903 75.3513 100.362 75.65C99.8301 75.9487 99.2048 76.098 98.4861 76.098ZM98.4861 74.754C99.0648 74.754 99.5081 74.5627 99.8161 74.18C100.133 73.788 100.292 73.2047 100.292 72.43C100.292 71.6647 100.133 71.0907 99.8161 70.708C99.5081 70.316 99.0648 70.12 98.4861 70.12C97.8981 70.12 97.4408 70.316 97.1141 70.708C96.7968 71.0907 96.6381 71.6647 96.6381 72.43C96.6381 73.2047 96.7968 73.788 97.1141 74.18C97.4315 74.5627 97.8888 74.754 98.4861 74.754ZM106.113 76.098C105.245 76.098 104.592 75.86 104.153 75.384C103.724 74.8987 103.509 74.1707 103.509 73.2V68.93H105.259V73.214C105.259 73.7273 105.367 74.1053 105.581 74.348C105.796 74.5907 106.118 74.712 106.547 74.712C107.061 74.712 107.471 74.544 107.779 74.208C108.087 73.872 108.241 73.424 108.241 72.864V68.93H110.005V76H108.297V74.544L108.479 74.53C108.274 75.0433 107.966 75.4353 107.555 75.706C107.145 75.9673 106.664 76.098 106.113 76.098ZM111.877 76V70.932C111.877 70.596 111.868 70.26 111.849 69.924C111.84 69.588 111.812 69.2567 111.765 68.93H113.417L113.571 70.33L113.417 70.372C113.641 69.84 113.973 69.4387 114.411 69.168C114.859 68.888 115.373 68.748 115.951 68.748C117.631 68.748 118.471 69.7187 118.471 71.66V76H116.721V71.73C116.721 71.1793 116.614 70.778 116.399 70.526C116.185 70.2647 115.853 70.134 115.405 70.134C114.864 70.134 114.43 70.3067 114.103 70.652C113.786 70.988 113.627 71.436 113.627 71.996V76H111.877ZM119.431 70.246V68.93H124.415V70.246H119.431ZM124.415 74.544V75.93C124.229 75.9953 124.042 76.0373 123.855 76.056C123.678 76.084 123.487 76.098 123.281 76.098C122.488 76.098 121.872 75.874 121.433 75.426C121.004 74.978 120.789 74.334 120.789 73.494V67.208L122.539 66.62V73.41C122.539 73.7273 122.591 73.9793 122.693 74.166C122.796 74.3433 122.931 74.4693 123.099 74.544C123.277 74.6187 123.473 74.656 123.687 74.656C123.809 74.656 123.925 74.6467 124.037 74.628C124.149 74.6093 124.275 74.5813 124.415 74.544ZM125.604 76V68.93H127.354V76H125.604ZM125.52 65.724H127.466V67.446H125.52V65.724ZM129.241 76V70.932C129.241 70.596 129.231 70.26 129.213 69.924C129.203 69.588 129.175 69.2567 129.129 68.93H130.781L130.935 70.33L130.781 70.372C131.005 69.84 131.336 69.4387 131.775 69.168C132.223 68.888 132.736 68.748 133.315 68.748C134.995 68.748 135.835 69.7187 135.835 71.66V76H134.085V71.73C134.085 71.1793 133.977 70.778 133.763 70.526C133.548 70.2647 133.217 70.134 132.769 70.134C132.227 70.134 131.793 70.3067 131.467 70.652C131.149 70.988 130.991 71.436 130.991 71.996V76H129.241ZM140.911 79.122C139.819 79.122 138.862 78.898 138.041 78.45L138.321 77.12C138.75 77.344 139.17 77.5073 139.581 77.61C140.001 77.722 140.435 77.778 140.883 77.778C141.508 77.778 141.979 77.624 142.297 77.316C142.614 77.008 142.773 76.5413 142.773 75.916V74.166H142.941C142.829 74.4647 142.651 74.74 142.409 74.992C142.175 75.2347 141.891 75.4307 141.555 75.58C141.219 75.72 140.85 75.79 140.449 75.79C139.833 75.79 139.287 75.6453 138.811 75.356C138.335 75.0667 137.961 74.6607 137.691 74.138C137.429 73.606 137.299 72.9853 137.299 72.276C137.299 71.5667 137.429 70.9507 137.691 70.428C137.961 69.896 138.335 69.4853 138.811 69.196C139.287 68.8973 139.833 68.748 140.449 68.748C141.055 68.748 141.583 68.8973 142.031 69.196C142.479 69.4947 142.782 69.896 142.941 70.4L142.773 70.428V68.93H144.509V75.776C144.509 76.8773 144.205 77.708 143.599 78.268C142.992 78.8373 142.096 79.122 140.911 79.122ZM140.925 74.432C141.503 74.432 141.956 74.2407 142.283 73.858C142.609 73.4753 142.773 72.948 142.773 72.276C142.773 71.604 142.609 71.0767 142.283 70.694C141.956 70.3113 141.503 70.12 140.925 70.12C140.337 70.12 139.875 70.3113 139.539 70.694C139.203 71.0767 139.035 71.604 139.035 72.276C139.035 72.948 139.203 73.4753 139.539 73.858C139.875 74.2407 140.337 74.432 140.925 74.432Z" fill="#202244" fill-opacity="0.8"/>
</svg>
