<svg width="104" height="72" viewBox="0 0 104 72" fill="none" xmlns="http://www.w3.org/2000/svg">
<path fill-rule="evenodd" clip-rule="evenodd" d="M49.7392 3.13041H36.174C35.599 3.13041 35.1305 2.66189 35.1305 2.08694C35.1305 1.51198 35.599 1.04346 36.174 1.04346H49.7392C50.3141 1.04346 50.7827 1.51198 50.7827 2.08694C50.7827 2.66189 50.3141 3.13041 49.7392 3.13041ZM67.4783 3.13041H53.9131C53.3381 3.13041 52.8696 2.66189 52.8696 2.08694C52.8696 1.51198 53.3381 1.04346 53.9131 1.04346H67.4783C68.0533 1.04346 68.5218 1.51198 68.5218 2.08694C68.5218 2.66189 68.0533 3.13041 67.4783 3.13041Z" fill="#DAD7E5"/>
<path fill-rule="evenodd" clip-rule="evenodd" d="M36.174 17.7391V16.6956C36.2021 8.92273 41.9047 2.33943 49.592 1.19786C50.1712 1.12064 50.7013 1.5203 50.7826 2.09943C50.864 2.67334 50.4602 3.2076 49.8863 3.28482C43.2341 4.27612 38.2974 9.97038 38.2609 16.6956V17.7391C38.2609 18.314 37.7924 18.7826 37.2174 18.7826C36.6425 18.7826 36.174 18.314 36.174 17.7391ZM65.3913 17.7391V16.6956C65.3913 9.95369 60.4432 4.23125 53.766 3.26499C53.192 3.1836 52.7882 2.65351 52.8696 2.07438C52.951 1.50047 53.4811 1.09664 54.0602 1.17804C61.7715 2.29038 67.4908 8.90604 67.4783 16.6956V17.7391C67.4783 18.314 67.0098 18.7826 66.4348 18.7826C65.8599 18.7826 65.3913 18.314 65.3913 17.7391Z" fill="#DAD7E5"/>
<path fill-rule="evenodd" clip-rule="evenodd" d="M61.2174 25.0434L57.0435 36.5217H46.6087L42.4348 25.0434L51.8261 14.6086L61.2174 25.0434Z" fill="#6FABE6"/>
<path fill-rule="evenodd" clip-rule="evenodd" d="M61.2174 25.0435L57.8052 34.4348H56.3141C52.6171 34.4222 49.2665 32.2414 47.7618 28.8626C46.2581 25.488 46.8779 21.5384 49.3437 18.7826L52.4741 15.3297L61.2174 25.0435Z" fill="#82BCF4"/>
<path fill-rule="evenodd" clip-rule="evenodd" d="M52.8695 15.7659V26.0869C52.8695 26.6619 52.401 27.1304 51.8261 27.1304C51.2511 27.1304 50.7826 26.6619 50.7826 26.0869V15.7659L51.8261 14.6086L52.8695 15.7659Z" fill="#FFDE76"/>
<path fill-rule="evenodd" clip-rule="evenodd" d="M53.9131 28.1739C53.9173 29.2132 53.1514 30.0981 52.1235 30.2442C51.0926 30.3913 50.1096 29.76 49.8206 28.7604C49.5315 27.7618 50.0209 26.7026 50.9705 26.2748C51.6143 25.9847 52.3646 26.0421 52.9594 26.4251C53.55 26.808 53.9131 27.4644 53.9131 28.1739Z" fill="#FFCC66"/>
<path fill-rule="evenodd" clip-rule="evenodd" d="M53.7255 29.0299C52.9345 29.3805 52.0131 29.2093 51.4027 28.5979C50.7902 27.9864 50.6201 27.065 50.9707 26.274C51.7617 25.9234 52.682 26.0946 53.2935 26.706C53.905 27.3175 54.0761 28.2389 53.7255 29.0299Z" fill="#FFDE76"/>
<mask id="mask0_0_901" style="mask-type:luminance" maskUnits="userSpaceOnUse" x="32" y="0" width="40" height="48">
<path fill-rule="evenodd" clip-rule="evenodd" d="M32 48H71.6522V0H32V48Z" fill="white"/>
</mask>
<g mask="url(#mask0_0_901)">
<path fill-rule="evenodd" clip-rule="evenodd" d="M48.6957 40.6956H54.9565V36.5217H48.6957V40.6956Z" fill="#F16F39"/>
<path fill-rule="evenodd" clip-rule="evenodd" d="M54.9565 36.5217V38.6087H52.8695C51.7165 38.6087 50.7826 37.6748 50.7826 36.5217H54.9565Z" fill="#F8834B"/>
<path fill-rule="evenodd" clip-rule="evenodd" d="M58.0869 48H45.5652L46.6087 40.6957H57.0434C57.9325 46.9565 57.6789 45.2119 58.0869 48Z" fill="#F16F39"/>
</g>
<path fill-rule="evenodd" clip-rule="evenodd" d="M57.7853 45.9131H53.9662C52.6409 45.9089 51.3815 45.3339 50.5133 44.3353C49.6451 43.3325 49.2538 42.0084 49.4375 40.6957H57.0434L57.7853 45.9131Z" fill="#F8834B"/>
<path fill-rule="evenodd" clip-rule="evenodd" d="M36.1739 2.08696C36.1739 3.24 35.24 4.17391 34.087 4.17391C32.9339 4.17391 32 3.24 32 2.08696C32 0.933913 32.9339 0 34.087 0C35.24 0 36.1739 0.933913 36.1739 2.08696Z" fill="#374F68"/>
<path fill-rule="evenodd" clip-rule="evenodd" d="M71.6522 2.08696C71.6522 3.24 70.7183 4.17391 69.5652 4.17391C68.4122 4.17391 67.4783 3.24 67.4783 2.08696C67.4783 0.933913 68.4122 0 69.5652 0C70.7183 0 71.6522 0.933913 71.6522 2.08696Z" fill="#374F68"/>
<mask id="mask1_0_901" style="mask-type:luminance" maskUnits="userSpaceOnUse" x="32" y="0" width="40" height="48">
<path fill-rule="evenodd" clip-rule="evenodd" d="M32 48H71.6522V0H32V48Z" fill="white"/>
</mask>
<g mask="url(#mask1_0_901)">
<path fill-rule="evenodd" clip-rule="evenodd" d="M64.3479 21.913H68.5218V17.7391H64.3479V21.913ZM35.1305 21.913H39.3044V17.7391H35.1305V21.913ZM49.7392 4.17391H53.9131V0H49.7392V4.17391Z" fill="#DB5669"/>
<path fill-rule="evenodd" clip-rule="evenodd" d="M71.4646 2.9424C70.6736 3.293 69.7523 3.12187 69.1408 2.5104C68.5293 1.89892 68.3582 0.978569 68.7088 0.187613C69.4997 -0.162996 70.4211 0.00813454 71.0326 0.619613C71.6441 1.23109 71.8152 2.15144 71.4646 2.9424ZM35.9863 2.9424C35.1954 3.293 34.275 3.12187 33.6636 2.5104C33.051 1.89892 32.8809 0.978569 33.2316 0.187613C34.0225 -0.162996 34.9429 0.00813454 35.5533 0.619613C36.1658 1.23109 36.3359 2.15144 35.9863 2.9424Z" fill="#425B72"/>
<path fill-rule="evenodd" clip-rule="evenodd" d="M53.9131 0V3.13043C52.1851 3.13043 50.7826 1.728 50.7826 0H53.9131ZM68.5218 17.7391V20.8696C66.7938 20.8696 65.3913 19.4671 65.3913 17.7391H68.5218ZM39.3044 17.7391V20.8696C37.5764 20.8696 36.174 19.4671 36.174 17.7391H39.3044Z" fill="#F26674"/>
</g>
<path d="M6.70355 68.112C5.66755 68.112 4.77155 67.9113 4.01555 67.51C3.26888 67.0993 2.69488 66.516 2.29355 65.76C1.90155 64.9947 1.70555 64.0753 1.70555 63.002C1.70555 61.9473 1.90155 61.042 2.29355 60.286C2.69488 59.5207 3.26421 58.9373 4.00155 58.536C4.73888 58.1253 5.61155 57.92 6.61955 57.92C7.31955 57.92 7.97288 58.018 8.57955 58.214C9.18621 58.41 9.69955 58.6993 10.1195 59.082L9.50355 60.398C9.02755 60.034 8.56555 59.7727 8.11755 59.614C7.66955 59.446 7.17955 59.362 6.64755 59.362C5.63021 59.362 4.85555 59.67 4.32355 60.286C3.80088 60.902 3.53955 61.8073 3.53955 63.002C3.53955 64.2247 3.81021 65.1487 4.35155 65.774C4.89288 66.39 5.70021 66.698 6.77355 66.698C7.18421 66.698 7.58555 66.6653 7.97755 66.6C8.37888 66.5253 8.75688 66.4227 9.11155 66.292L8.69155 66.964V63.912H6.54955V62.61H10.3295V67.398C10.0215 67.5567 9.67155 67.6873 9.27955 67.79C8.88755 67.8927 8.47221 67.972 8.03355 68.028C7.59488 68.084 7.15155 68.112 6.70355 68.112ZM12.2368 68V62.932C12.2368 62.6053 12.2275 62.274 12.2088 61.938C12.1995 61.5927 12.1715 61.2567 12.1248 60.93H13.7768L13.9728 62.75L13.7768 62.652C13.8982 62.0267 14.1735 61.5553 14.6028 61.238C15.0322 60.9207 15.5175 60.762 16.0588 60.762C16.1988 60.762 16.3295 60.7713 16.4508 60.79C16.5722 60.8087 16.6795 60.8367 16.7728 60.874L16.7448 62.47C16.4555 62.3487 16.1475 62.288 15.8208 62.288C15.4008 62.288 15.0555 62.372 14.7848 62.54C14.5235 62.708 14.3228 62.9367 14.1828 63.226C14.0522 63.506 13.9868 63.8233 13.9868 64.178V68H12.2368ZM20.3405 68.098C19.7245 68.098 19.1785 67.9533 18.7025 67.664C18.2265 67.3653 17.8579 66.9453 17.5965 66.404C17.3445 65.8533 17.2185 65.2093 17.2185 64.472C17.2185 63.7253 17.3492 63.0767 17.6105 62.526C17.8719 61.966 18.2359 61.532 18.7025 61.224C19.1785 60.9067 19.7245 60.748 20.3405 60.748C20.9379 60.748 21.4559 60.8973 21.8945 61.196C22.3425 61.4853 22.6459 61.8913 22.8045 62.414L22.6365 62.512V60.93H24.3585V68H22.6365V66.404L22.8045 66.46C22.6459 66.9827 22.3425 67.3887 21.8945 67.678C21.4559 67.958 20.9379 68.098 20.3405 68.098ZM20.8165 66.754C21.3952 66.754 21.8432 66.5533 22.1605 66.152C22.4779 65.7507 22.6365 65.1813 22.6365 64.444C22.6365 63.688 22.4779 63.114 22.1605 62.722C21.8432 62.3207 21.3952 62.12 20.8165 62.12C20.2285 62.12 19.7712 62.3253 19.4445 62.736C19.1179 63.1467 18.9545 63.7253 18.9545 64.472C18.9545 65.2 19.1179 65.7647 19.4445 66.166C19.7712 66.558 20.2285 66.754 20.8165 66.754ZM26.2505 71.024V62.932C26.2505 62.6053 26.2412 62.274 26.2225 61.938C26.2132 61.5927 26.1852 61.2567 26.1385 60.93H27.7905L27.9445 62.33L27.8465 62.414C27.9958 61.8913 28.2898 61.4853 28.7285 61.196C29.1672 60.8973 29.6852 60.748 30.2825 60.748C30.8985 60.748 31.4398 60.9067 31.9065 61.224C32.3825 61.532 32.7558 61.966 33.0265 62.526C33.2972 63.0767 33.4325 63.7253 33.4325 64.472C33.4325 65.2093 33.2972 65.8533 33.0265 66.404C32.7558 66.9453 32.3872 67.3653 31.9205 67.664C31.4538 67.9533 30.9078 68.098 30.2825 68.098C29.6852 68.098 29.1672 67.958 28.7285 67.678C28.2898 67.3887 27.9958 66.9827 27.8465 66.46L28.0005 66.236V71.024H26.2505ZM29.8345 66.754C30.4132 66.754 30.8612 66.558 31.1785 66.166C31.4958 65.7647 31.6545 65.2 31.6545 64.472C31.6545 63.7253 31.4958 63.1467 31.1785 62.736C30.8612 62.3253 30.4132 62.12 29.8345 62.12C29.2372 62.12 28.7798 62.3207 28.4625 62.722C28.1545 63.114 28.0005 63.688 28.0005 64.444C28.0005 65.1813 28.1545 65.7507 28.4625 66.152C28.7798 66.5533 29.2372 66.754 29.8345 66.754ZM34.9321 68V57.696H36.6821V62.358L36.4721 62.372C36.6961 61.84 37.0275 61.4387 37.4661 61.168C37.9141 60.888 38.4275 60.748 39.0061 60.748C40.6861 60.748 41.5261 61.7187 41.5261 63.66V68H39.7761V63.73C39.7761 63.1793 39.6688 62.778 39.4541 62.526C39.2395 62.2647 38.9081 62.134 38.4601 62.134C37.9188 62.134 37.4848 62.3067 37.1581 62.652C36.8408 62.988 36.6821 63.436 36.6821 63.996V68H34.9321ZM43.354 68V60.93H45.104V68H43.354ZM43.27 57.724H45.216V59.446H43.27V57.724ZM50.1967 68.098C49.4594 68.098 48.8201 67.9533 48.2787 67.664C47.7467 67.3653 47.3361 66.9453 47.0467 66.404C46.7667 65.8533 46.6267 65.2093 46.6267 64.472C46.6267 63.7253 46.7761 63.072 47.0747 62.512C47.3734 61.952 47.7981 61.518 48.3487 61.21C48.8994 60.902 49.5434 60.748 50.2807 60.748C50.7754 60.748 51.2561 60.8273 51.7227 60.986C52.1987 61.1447 52.5861 61.364 52.8847 61.644L52.3807 62.876C52.0821 62.6333 51.7647 62.4513 51.4287 62.33C51.0927 62.1993 50.7567 62.134 50.4207 62.134C49.8047 62.134 49.3147 62.33 48.9507 62.722C48.5961 63.114 48.4187 63.688 48.4187 64.444C48.4187 65.1907 48.5961 65.76 48.9507 66.152C49.3054 66.544 49.8001 66.74 50.4347 66.74C50.7614 66.74 51.0927 66.6793 51.4287 66.558C51.7647 66.4273 52.0821 66.236 52.3807 65.984L52.8847 67.216C52.5767 67.496 52.1801 67.7153 51.6947 67.874C51.2187 68.0233 50.7194 68.098 50.1967 68.098ZM58.0272 68V58.032H61.6952C62.7872 58.032 63.7159 58.228 64.4812 58.62C65.2466 59.012 65.8299 59.5813 66.2312 60.328C66.6419 61.0653 66.8472 61.9567 66.8472 63.002C66.8472 64.0567 66.6419 64.9573 66.2312 65.704C65.8299 66.4507 65.2419 67.02 64.4672 67.412C63.7019 67.804 62.7779 68 61.6952 68H58.0272ZM59.8332 66.53H61.5832C62.7312 66.53 63.5899 66.236 64.1592 65.648C64.7379 65.06 65.0272 64.178 65.0272 63.002C65.0272 60.6687 63.8792 59.502 61.5832 59.502H59.8332V66.53ZM74.6136 67.216C74.2776 67.496 73.8623 67.7153 73.3676 67.874C72.8823 68.0233 72.3876 68.098 71.8836 68.098C71.1183 68.098 70.4556 67.9533 69.8956 67.664C69.3449 67.3747 68.9203 66.9547 68.6216 66.404C68.3229 65.8533 68.1736 65.2 68.1736 64.444C68.1736 63.716 68.3183 63.0767 68.6076 62.526C68.8969 61.966 69.2983 61.532 69.8116 61.224C70.3249 60.9067 70.9176 60.748 71.5896 60.748C72.2429 60.748 72.8029 60.8927 73.2696 61.182C73.7363 61.462 74.0956 61.868 74.3476 62.4C74.6089 62.932 74.7396 63.562 74.7396 64.29V64.556H69.7136L69.7276 63.618H73.7036L73.2276 64.094C73.2369 63.4127 73.1016 62.8947 72.8216 62.54C72.5509 62.1853 72.1543 62.008 71.6316 62.008C71.0716 62.008 70.6376 62.2087 70.3296 62.61C70.0216 63.002 69.8676 63.5667 69.8676 64.304C69.8676 65.144 70.0403 65.7647 70.3856 66.166C70.7309 66.558 71.2536 66.754 71.9536 66.754C72.3363 66.754 72.7096 66.6933 73.0736 66.572C73.4469 66.4413 73.7923 66.2547 74.1096 66.012L74.6136 67.216ZM78.8115 68.098C77.5235 68.098 76.5062 67.804 75.7595 67.216L76.2495 65.984C76.6229 66.264 77.0289 66.474 77.4675 66.614C77.9062 66.754 78.3635 66.824 78.8395 66.824C79.2689 66.824 79.5955 66.754 79.8195 66.614C80.0435 66.474 80.1555 66.278 80.1555 66.026C80.1555 65.8113 80.0762 65.6433 79.9175 65.522C79.7589 65.3913 79.4882 65.2793 79.1055 65.186L77.9295 64.92C77.2855 64.78 76.8002 64.5467 76.4735 64.22C76.1562 63.884 75.9975 63.4593 75.9975 62.946C75.9975 62.5167 76.1189 62.1387 76.3615 61.812C76.6042 61.476 76.9449 61.2147 77.3835 61.028C77.8222 60.8413 78.3309 60.748 78.9095 60.748C79.4135 60.748 79.8989 60.8273 80.3655 60.986C80.8322 61.1353 81.2382 61.3547 81.5835 61.644L81.0795 62.848C80.7249 62.5773 80.3609 62.3767 79.9875 62.246C79.6235 62.1153 79.2595 62.05 78.8955 62.05C78.4942 62.05 78.1815 62.1247 77.9575 62.274C77.7335 62.4233 77.6215 62.6287 77.6215 62.89C77.6215 63.0953 77.6869 63.2587 77.8175 63.38C77.9575 63.5013 78.1955 63.5993 78.5315 63.674L79.7215 63.968C80.4215 64.1173 80.9302 64.36 81.2475 64.696C81.5742 65.0227 81.7375 65.4567 81.7375 65.998C81.7375 66.642 81.4762 67.1553 80.9535 67.538C80.4309 67.9113 79.7169 68.098 78.8115 68.098ZM83.2212 68V60.93H84.9712V68H83.2212ZM83.1372 57.724H85.0832V59.446H83.1372V57.724ZM90.1059 71.122C89.0139 71.122 88.0573 70.898 87.2359 70.45L87.5159 69.12C87.9453 69.344 88.3653 69.5073 88.7759 69.61C89.1959 69.722 89.6299 69.778 90.0779 69.778C90.7033 69.778 91.1746 69.624 91.4919 69.316C91.8093 69.008 91.9679 68.5413 91.9679 67.916V66.166H92.1359C92.0239 66.4647 91.8466 66.74 91.6039 66.992C91.3706 67.2347 91.0859 67.4307 90.7499 67.58C90.4139 67.72 90.0453 67.79 89.6439 67.79C89.0279 67.79 88.4819 67.6453 88.0059 67.356C87.5299 67.0667 87.1566 66.6607 86.8859 66.138C86.6246 65.606 86.4939 64.9853 86.4939 64.276C86.4939 63.5667 86.6246 62.9507 86.8859 62.428C87.1566 61.896 87.5299 61.4853 88.0059 61.196C88.4819 60.8973 89.0279 60.748 89.6439 60.748C90.2506 60.748 90.7779 60.8973 91.2259 61.196C91.6739 61.4947 91.9773 61.896 92.1359 62.4L91.9679 62.428V60.93H93.7039V67.776C93.7039 68.8773 93.4006 69.708 92.7939 70.268C92.1873 70.8373 91.2913 71.122 90.1059 71.122ZM90.1199 66.432C90.6986 66.432 91.1513 66.2407 91.4779 65.858C91.8046 65.4753 91.9679 64.948 91.9679 64.276C91.9679 63.604 91.8046 63.0767 91.4779 62.694C91.1513 62.3113 90.6986 62.12 90.1199 62.12C89.5319 62.12 89.0699 62.3113 88.7339 62.694C88.3979 63.0767 88.2299 63.604 88.2299 64.276C88.2299 64.948 88.3979 65.4753 88.7339 65.858C89.0699 66.2407 89.5319 66.432 90.1199 66.432ZM95.5806 68V62.932C95.5806 62.596 95.5712 62.26 95.5526 61.924C95.5432 61.588 95.5152 61.2567 95.4686 60.93H97.1206L97.2746 62.33L97.1206 62.372C97.3446 61.84 97.6759 61.4387 98.1146 61.168C98.5626 60.888 99.0759 60.748 99.6546 60.748C101.335 60.748 102.175 61.7187 102.175 63.66V68H100.425V63.73C100.425 63.1793 100.317 62.778 100.103 62.526C99.8879 62.2647 99.5566 62.134 99.1086 62.134C98.5672 62.134 98.1332 62.3067 97.8066 62.652C97.4892 62.988 97.3306 63.436 97.3306 63.996V68H95.5806Z" fill="#202244" fill-opacity="0.8"/>
</svg>
