<svg width="113" height="83" viewBox="0 0 113 83" fill="none" xmlns="http://www.w3.org/2000/svg">
<path fill-rule="evenodd" clip-rule="evenodd" d="M66.3281 38.6709C60.6411 44.3589 51.3711 44.3589 45.6721 38.6709C39.9801 32.9679 39.9801 23.6989 45.6721 18.0109C48.5121 15.1599 52.2501 13.7299 56.0001 13.7299C59.8751 13.7259 63.5901 15.2609 66.3281 17.9999C72.0311 23.6989 72.0311 32.9679 66.3281 38.6709ZM70.4881 39.2699C73.1131 35.8039 74.4021 31.5069 74.1211 27.1709C74.0781 26.5389 74.0121 25.9209 73.8981 25.2999C73.3011 21.6989 71.6211 18.2609 68.8401 15.4919C68.6091 15.2609 68.3711 15.0309 68.1291 14.8199C67.6211 14.3709 67.1091 13.9609 66.5781 13.5699C60.2811 9.04993 51.7111 9.04993 45.4101 13.5699C44.8791 13.9489 44.3591 14.3779 43.8591 14.8199C43.6291 15.0389 43.3911 15.2499 43.1601 15.4799C40.4881 18.1399 38.7151 21.5699 38.0901 25.2889C37.9881 25.9099 37.9101 26.5389 37.8711 27.1599C37.5511 32.1989 39.3091 37.3389 43.1481 41.1709C46.6911 44.7309 51.3521 46.4999 56.0001 46.4999C59.8591 46.4999 63.7111 45.2699 66.9411 42.8319L79.0581 57.0589C79.7891 57.9139 80.8401 58.4209 81.9611 58.4639C83.0781 58.5069 84.1681 58.0819 84.9611 57.2889C86.6091 55.6409 86.5001 52.9209 84.7191 51.4019L70.4881 39.2699Z" fill="#292F64"/>
<mask id="mask0_0_1056" style="mask-type:luminance" maskUnits="userSpaceOnUse" x="24" y="1" width="64" height="37">
<path fill-rule="evenodd" clip-rule="evenodd" d="M24 1H87.9998V37.4918H24V1Z" fill="white"/>
</mask>
<g mask="url(#mask0_0_1056)">
<path fill-rule="evenodd" clip-rule="evenodd" d="M76.2188 11.4409C79.1018 11.4409 81.4418 9.1009 81.4418 6.2179C81.4418 3.3389 79.1018 0.999898 76.2188 0.999898C73.3398 0.991898 70.9998 3.3389 70.9998 6.2179C70.9998 9.1009 73.3398 11.4409 76.2188 11.4409ZM79.8908 12.1789L79.7108 12.1599L76.8088 16.3199C76.6798 16.5109 76.4608 16.6249 76.2308 16.6209C75.9998 16.6209 75.7818 16.4999 75.6408 16.3079L72.7308 12.1519L72.5508 12.1709C71.3398 12.3079 70.1798 12.6789 69.1018 13.2889L68.7308 13.4999L69.0508 13.7889C69.3088 14.0189 69.5588 14.2609 69.8088 14.5109C72.6988 17.4019 74.5778 21.0389 75.2388 25.0579L75.2818 25.3199H83.5708L83.8088 21.0889C83.8358 20.7029 84.1638 20.4099 84.5508 20.4209H84.5588C84.9488 20.4409 85.2498 20.7809 85.2308 21.1709L85.0118 25.3199H87.9998V21.2609C87.9998 16.6089 84.5118 12.6989 79.8908 12.1789ZM35.7698 11.4409C38.6478 11.4409 40.9878 9.1009 40.9878 6.2179C40.9878 3.3389 38.6478 0.999898 35.7698 0.999898C32.8908 0.999898 30.5518 3.3389 30.5518 6.2179C30.5388 9.1009 32.8908 11.4409 35.7698 11.4409ZM42.9488 13.7999L43.2618 13.5189L42.8978 13.3079C41.8398 12.7029 40.6638 12.3199 39.4488 12.1789L39.2698 12.1599L36.3788 16.3079C36.2498 16.4799 36.0308 16.5889 35.7888 16.5889C35.5388 16.5889 35.3278 16.4919 35.2108 16.3079L32.3018 12.1519L32.1018 12.1789C27.4798 12.6789 23.9998 16.5889 23.9998 21.2689V25.3319H26.9688L26.7498 21.1789C26.7298 20.7889 27.0308 20.4489 27.4998 20.4289C27.8518 20.4289 28.1598 20.7419 28.1798 21.1089L28.4098 25.3389H36.6988L36.7378 25.0819C37.4098 21.0699 39.2888 17.4289 42.1908 14.5309C42.4408 14.2689 42.6908 14.0389 42.9488 13.7999ZM55.9998 25.9919C58.4888 25.9919 60.5118 23.9609 60.5118 21.4799C60.5118 18.9999 58.4888 16.9679 55.9998 16.9679C53.5118 16.9679 51.4878 18.9999 51.4878 21.4799C51.4878 23.9609 53.5118 25.9919 55.9998 25.9919ZM59.1598 26.7419L58.9808 26.7179L56.5898 30.1279C56.4688 30.3089 56.2388 30.4099 55.9998 30.4099C55.7618 30.4099 55.5388 30.2999 55.4218 30.1279L53.0308 26.7179L52.8518 26.7419C49.1018 27.1909 46.2698 30.4099 46.2698 34.2099V37.4919H48.5198L48.3398 34.1409C48.3198 33.7499 48.6288 33.4019 49.1018 33.3709C49.4408 33.3709 49.7498 33.6789 49.7698 34.0589L49.9608 37.4919H62.0388L62.2308 34.0589C62.2578 33.6679 62.5898 33.3669 62.9808 33.3779H62.9888C63.3788 33.4019 63.6798 33.7419 63.6598 34.1409L63.4808 37.4919H65.7308V34.2099C65.7188 30.4209 62.8988 27.2109 59.1598 26.7419Z" fill="#292F64"/>
</g>
<path d="M8.20656 79V69.032H9.97056V79H8.20656ZM1.30456 79V69.032H3.08256V79H1.30456ZM1.94856 74.66V73.218H9.24256V74.66H1.94856ZM12.1464 79V69.032H16.4164C17.5457 69.032 18.4044 69.2793 18.9924 69.774C19.5804 70.2687 19.8744 70.978 19.8744 71.902C19.8744 72.7793 19.571 73.4793 18.9644 74.002C18.3577 74.5153 17.513 74.772 16.4304 74.772L17.5504 74.548C17.8957 74.548 18.2037 74.6507 18.4744 74.856C18.745 75.0613 18.9597 75.3787 19.1184 75.808L20.3504 79H18.4464L17.1864 75.682C17.0557 75.3553 16.869 75.136 16.6264 75.024C16.393 74.912 16.099 74.856 15.7444 74.856H13.9244V79H12.1464ZM13.9104 73.456H16.1644C16.855 73.456 17.359 73.33 17.6764 73.078C17.9937 72.826 18.1524 72.448 18.1524 71.944C18.1524 71.4307 17.9937 71.0527 17.6764 70.81C17.359 70.5673 16.855 70.446 16.1644 70.446H13.9104V73.456ZM25.8462 79V69.032H27.2882L31.0542 77.614H30.3682L34.1062 69.032H35.5482V79H33.9382L33.9242 71.622L34.4002 71.734L31.2922 79H30.1022L26.9242 71.734L27.4282 71.622L27.4422 79H25.8462ZM40.3308 79.098C39.7148 79.098 39.1688 78.9533 38.6928 78.664C38.2168 78.3653 37.8481 77.9453 37.5868 77.404C37.3348 76.8533 37.2088 76.2093 37.2088 75.472C37.2088 74.7253 37.3394 74.0767 37.6008 73.526C37.8621 72.966 38.2261 72.532 38.6928 72.224C39.1688 71.9067 39.7148 71.748 40.3308 71.748C40.9281 71.748 41.4461 71.8973 41.8848 72.196C42.3328 72.4853 42.6361 72.8913 42.7948 73.414L42.6268 73.512V71.93H44.3488V79H42.6268V77.404L42.7948 77.46C42.6361 77.9827 42.3328 78.3887 41.8848 78.678C41.4461 78.958 40.9281 79.098 40.3308 79.098ZM40.8068 77.754C41.3854 77.754 41.8334 77.5533 42.1508 77.152C42.4681 76.7507 42.6268 76.1813 42.6268 75.444C42.6268 74.688 42.4681 74.114 42.1508 73.722C41.8334 73.3207 41.3854 73.12 40.8068 73.12C40.2188 73.12 39.7614 73.3253 39.4348 73.736C39.1081 74.1467 38.9448 74.7253 38.9448 75.472C38.9448 76.2 39.1081 76.7647 39.4348 77.166C39.7614 77.558 40.2188 77.754 40.8068 77.754ZM46.2407 79V73.932C46.2407 73.596 46.2314 73.26 46.2127 72.924C46.2034 72.588 46.1754 72.2567 46.1287 71.93H47.7807L47.9347 73.33L47.7807 73.372C48.0047 72.84 48.3361 72.4387 48.7747 72.168C49.2227 71.888 49.7361 71.748 50.3147 71.748C51.9947 71.748 52.8347 72.7187 52.8347 74.66V79H51.0847V74.73C51.0847 74.1793 50.9774 73.778 50.7627 73.526C50.5481 73.2647 50.2167 73.134 49.7687 73.134C49.2274 73.134 48.7934 73.3067 48.4667 73.652C48.1494 73.988 47.9907 74.436 47.9907 74.996V79H46.2407ZM57.4206 79.098C56.8046 79.098 56.2586 78.9533 55.7826 78.664C55.3066 78.3653 54.9379 77.9453 54.6766 77.404C54.4246 76.8533 54.2986 76.2093 54.2986 75.472C54.2986 74.7253 54.4293 74.0767 54.6906 73.526C54.9519 72.966 55.3159 72.532 55.7826 72.224C56.2586 71.9067 56.8046 71.748 57.4206 71.748C58.0179 71.748 58.5359 71.8973 58.9746 72.196C59.4226 72.4853 59.7259 72.8913 59.8846 73.414L59.7166 73.512V71.93H61.4386V79H59.7166V77.404L59.8846 77.46C59.7259 77.9827 59.4226 78.3887 58.9746 78.678C58.5359 78.958 58.0179 79.098 57.4206 79.098ZM57.8966 77.754C58.4753 77.754 58.9233 77.5533 59.2406 77.152C59.5579 76.7507 59.7166 76.1813 59.7166 75.444C59.7166 74.688 59.5579 74.114 59.2406 73.722C58.9233 73.3207 58.4753 73.12 57.8966 73.12C57.3086 73.12 56.8513 73.3253 56.5246 73.736C56.1979 74.1467 56.0346 74.7253 56.0346 75.472C56.0346 76.2 56.1979 76.7647 56.5246 77.166C56.8513 77.558 57.3086 77.754 57.8966 77.754ZM66.5786 82.122C65.4866 82.122 64.5299 81.898 63.7086 81.45L63.9886 80.12C64.4179 80.344 64.8379 80.5073 65.2486 80.61C65.6686 80.722 66.1026 80.778 66.5506 80.778C67.1759 80.778 67.6472 80.624 67.9646 80.316C68.2819 80.008 68.4406 79.5413 68.4406 78.916V77.166H68.6086C68.4966 77.4647 68.3192 77.74 68.0766 77.992C67.8432 78.2347 67.5586 78.4307 67.2226 78.58C66.8866 78.72 66.5179 78.79 66.1166 78.79C65.5006 78.79 64.9546 78.6453 64.4786 78.356C64.0026 78.0667 63.6292 77.6607 63.3586 77.138C63.0972 76.606 62.9666 75.9853 62.9666 75.276C62.9666 74.5667 63.0972 73.9507 63.3586 73.428C63.6292 72.896 64.0026 72.4853 64.4786 72.196C64.9546 71.8973 65.5006 71.748 66.1166 71.748C66.7232 71.748 67.2506 71.8973 67.6986 72.196C68.1466 72.4947 68.4499 72.896 68.6086 73.4L68.4406 73.428V71.93H70.1766V78.776C70.1766 79.8773 69.8732 80.708 69.2666 81.268C68.6599 81.8373 67.7639 82.122 66.5786 82.122ZM66.5926 77.432C67.1712 77.432 67.6239 77.2407 67.9506 76.858C68.2772 76.4753 68.4406 75.948 68.4406 75.276C68.4406 74.604 68.2772 74.0767 67.9506 73.694C67.6239 73.3113 67.1712 73.12 66.5926 73.12C66.0046 73.12 65.5426 73.3113 65.2066 73.694C64.8706 74.0767 64.7026 74.604 64.7026 75.276C64.7026 75.948 64.8706 76.4753 65.2066 76.858C65.5426 77.2407 66.0046 77.432 66.5926 77.432ZM78.1292 78.216C77.7932 78.496 77.3779 78.7153 76.8832 78.874C76.3979 79.0233 75.9032 79.098 75.3992 79.098C74.6339 79.098 73.9712 78.9533 73.4112 78.664C72.8606 78.3747 72.4359 77.9547 72.1372 77.404C71.8386 76.8533 71.6892 76.2 71.6892 75.444C71.6892 74.716 71.8339 74.0767 72.1232 73.526C72.4126 72.966 72.8139 72.532 73.3272 72.224C73.8406 71.9067 74.4332 71.748 75.1052 71.748C75.7586 71.748 76.3186 71.8927 76.7852 72.182C77.2519 72.462 77.6112 72.868 77.8632 73.4C78.1246 73.932 78.2552 74.562 78.2552 75.29V75.556H73.2292L73.2432 74.618H77.2192L76.7432 75.094C76.7526 74.4127 76.6172 73.8947 76.3372 73.54C76.0666 73.1853 75.6699 73.008 75.1472 73.008C74.5872 73.008 74.1532 73.2087 73.8452 73.61C73.5372 74.002 73.3832 74.5667 73.3832 75.304C73.3832 76.144 73.5559 76.7647 73.9012 77.166C74.2466 77.558 74.7692 77.754 75.4692 77.754C75.8519 77.754 76.2252 77.6933 76.5892 77.572C76.9626 77.4413 77.3079 77.2547 77.6252 77.012L78.1292 78.216ZM79.7232 79V73.932C79.7232 73.6053 79.7138 73.274 79.6952 72.938C79.6858 72.5927 79.6578 72.2567 79.6112 71.93H81.2632L81.4172 73.33L81.2632 73.344C81.4498 72.84 81.7485 72.448 82.1592 72.168C82.5698 71.888 83.0552 71.748 83.6152 71.748C84.2778 71.748 84.7958 71.916 85.1692 72.252C85.5518 72.5787 85.7992 73.0827 85.9112 73.764L85.5752 73.456C85.7618 72.9427 86.0792 72.532 86.5272 72.224C86.9752 71.9067 87.4978 71.748 88.0952 71.748C88.8885 71.748 89.4812 71.9907 89.8732 72.476C90.2652 72.952 90.4612 73.68 90.4612 74.66V79H88.7112V74.716C88.7112 74.1747 88.6178 73.778 88.4312 73.526C88.2538 73.2647 87.9552 73.134 87.5352 73.134C87.0498 73.134 86.6672 73.3067 86.3872 73.652C86.1165 73.988 85.9812 74.4547 85.9812 75.052V79H84.2312V74.716C84.2312 74.1747 84.1332 73.778 83.9372 73.526C83.7505 73.2647 83.4518 73.134 83.0412 73.134C82.5465 73.134 82.1592 73.3067 81.8792 73.652C81.6085 73.988 81.4732 74.4547 81.4732 75.052V79H79.7232ZM98.391 78.216C98.055 78.496 97.6396 78.7153 97.145 78.874C96.6596 79.0233 96.165 79.098 95.661 79.098C94.8956 79.098 94.233 78.9533 93.673 78.664C93.1223 78.3747 92.6976 77.9547 92.399 77.404C92.1003 76.8533 91.951 76.2 91.951 75.444C91.951 74.716 92.0956 74.0767 92.385 73.526C92.6743 72.966 93.0756 72.532 93.589 72.224C94.1023 71.9067 94.695 71.748 95.367 71.748C96.0203 71.748 96.5803 71.8927 97.047 72.182C97.5136 72.462 97.873 72.868 98.125 73.4C98.3863 73.932 98.517 74.562 98.517 75.29V75.556H93.491L93.505 74.618H97.481L97.005 75.094C97.0143 74.4127 96.879 73.8947 96.599 73.54C96.3283 73.1853 95.9316 73.008 95.409 73.008C94.849 73.008 94.415 73.2087 94.107 73.61C93.799 74.002 93.645 74.5667 93.645 75.304C93.645 76.144 93.8176 76.7647 94.163 77.166C94.5083 77.558 95.031 77.754 95.731 77.754C96.1136 77.754 96.487 77.6933 96.851 77.572C97.2243 77.4413 97.5696 77.2547 97.887 77.012L98.391 78.216ZM99.9849 79V73.932C99.9849 73.596 99.9755 73.26 99.9569 72.924C99.9475 72.588 99.9195 72.2567 99.8729 71.93H101.525L101.679 73.33L101.525 73.372C101.749 72.84 102.08 72.4387 102.519 72.168C102.967 71.888 103.48 71.748 104.059 71.748C105.739 71.748 106.579 72.7187 106.579 74.66V79H104.829V74.73C104.829 74.1793 104.722 73.778 104.507 73.526C104.292 73.2647 103.961 73.134 103.513 73.134C102.972 73.134 102.538 73.3067 102.211 73.652C101.894 73.988 101.735 74.436 101.735 74.996V79H99.9849ZM107.539 73.246V71.93H112.523V73.246H107.539ZM112.523 77.544V78.93C112.336 78.9953 112.149 79.0373 111.963 79.056C111.785 79.084 111.594 79.098 111.389 79.098C110.595 79.098 109.979 78.874 109.541 78.426C109.111 77.978 108.897 77.334 108.897 76.494V70.208L110.647 69.62V76.41C110.647 76.7273 110.698 76.9793 110.801 77.166C110.903 77.3433 111.039 77.4693 111.207 77.544C111.384 77.6187 111.58 77.656 111.795 77.656C111.916 77.656 112.033 77.6467 112.145 77.628C112.257 77.6093 112.383 77.5813 112.523 77.544Z" fill="#202244" fill-opacity="0.8"/>
</svg>
