<svg width="24" height="24" viewBox="0 0 24 24" fill="none" xmlns="http://www.w3.org/2000/svg">
<g clip-path="url(#clip0_0_3385)">
<circle cx="12" cy="12" r="13" fill="#0961F5" stroke="#E8F1FF" stroke-width="2"/>
<path d="M8.3 16.099C7.354 16.099 6.628 15.758 6.122 15.076C5.62333 14.3867 5.374 13.3857 5.374 12.073C5.374 10.7823 5.62333 9.796 6.122 9.114C6.628 8.432 7.354 8.091 8.3 8.091C9.246 8.091 9.96833 8.432 10.467 9.114C10.973 9.796 11.226 10.7823 11.226 12.073C11.226 13.3783 10.973 14.3757 10.467 15.065C9.96833 15.7543 9.246 16.099 8.3 16.099ZM8.3 14.779C8.73267 14.779 9.048 14.5663 9.246 14.141C9.444 13.7157 9.543 13.0263 9.543 12.073C9.543 11.1417 9.444 10.4633 9.246 10.038C9.048 9.61267 8.73267 9.4 8.3 9.4C7.86733 9.4 7.552 9.61267 7.354 10.038C7.156 10.4633 7.057 11.1417 7.057 12.073C7.057 13.0263 7.156 13.7157 7.354 14.141C7.552 14.5663 7.86733 14.779 8.3 14.779ZM14.7087 16.088C14.1734 16.088 13.6564 16.011 13.1577 15.857C12.659 15.6957 12.252 15.4793 11.9367 15.208L12.4867 13.976C12.8314 14.2327 13.1834 14.4233 13.5427 14.548C13.902 14.6727 14.265 14.735 14.6317 14.735C15.1084 14.735 15.453 14.6543 15.6657 14.493C15.8857 14.3317 15.9957 14.0677 15.9957 13.701C15.9957 13.3563 15.8857 13.1033 15.6657 12.942C15.453 12.7807 15.1084 12.7 14.6317 12.7H13.5097V11.369H14.4337C14.8957 11.369 15.2367 11.292 15.4567 11.138C15.6767 10.984 15.7867 10.742 15.7867 10.412C15.7867 10.0893 15.6877 9.84367 15.4897 9.675C15.2917 9.50633 15.0167 9.422 14.6647 9.422C14.3274 9.422 13.979 9.488 13.6197 9.62C13.2677 9.74467 12.9267 9.93167 12.5967 10.181L12.0467 8.949C12.362 8.67767 12.7654 8.465 13.2567 8.311C13.7554 8.14967 14.2614 8.069 14.7747 8.069C15.31 8.069 15.7757 8.157 16.1717 8.333C16.5677 8.50167 16.872 8.74733 17.0847 9.07C17.3047 9.38533 17.4147 9.75567 17.4147 10.181C17.4147 10.6357 17.2937 11.0243 17.0517 11.347C16.817 11.6697 16.4797 11.8933 16.0397 12.018V11.93C16.5457 12.04 16.9344 12.2637 17.2057 12.601C17.477 12.9383 17.6127 13.36 17.6127 13.866C17.6127 14.5553 17.3524 15.098 16.8317 15.494C16.311 15.89 15.6034 16.088 14.7087 16.088Z" fill="white"/>
</g>
<defs>
<clipPath id="clip0_0_3385">
<rect width="24" height="24" fill="white"/>
</clipPath>
</defs>
</svg>
