<svg width="360" height="181" viewBox="0 0 360 181" fill="none" xmlns="http://www.w3.org/2000/svg">
<rect y="0.131104" width="360" height="180" rx="22" fill="#0961F5"/>
<circle cx="143" cy="160.131" r="4" fill="#1A6EFC"/>
<circle cx="159" cy="160.131" r="4" fill="#1A6EFC"/>
<rect x="171" y="156.131" width="18" height="8" rx="4" fill="#FAC840"/>
<circle cx="201" cy="160.131" r="4" fill="#1A6EFC"/>
<circle cx="217" cy="160.131" r="4" fill="#1A6EFC"/>
<path fill-rule="evenodd" clip-rule="evenodd" d="M179 180.131C179 180.131 232 167.631 241 163.631C250 159.631 245 139.131 255 139.131C265 139.131 290.5 159.631 306 159.631C321.5 159.631 329 113.131 335.5 113.131C342 113.131 346 139.131 352 139.131C358 139.131 360 103.631 360 103.631V160.131C360 171.177 351.046 180.131 340 180.131H179Z" fill="#1A6EFC"/>
<path fill-rule="evenodd" clip-rule="evenodd" d="M0 64.6311V20.1311C0 9.08541 8.95431 0.131104 20 0.131104H156C156 0.131104 130.5 39.1311 117.5 32.6311C104.5 26.1311 100.914 13.179 83 18.6311C65.0858 24.0832 71.0279 46.7379 60 50.1311C48.9721 53.5243 35 31.6311 28 36.1311C21 40.6311 19.3524 68.7188 16 72.1311C12.6476 75.5434 0 64.6311 0 64.6311Z" fill="#1A6EFC"/>
<path d="M177.57 1.0001L160.43 28.2621" stroke="#1A6EFC" stroke-width="2" stroke-linecap="round" stroke-linejoin="round"/>
<path d="M175.158 24.39L161.682 44.2497" stroke="#1A6EFC" stroke-width="2" stroke-linecap="round" stroke-linejoin="round"/>
<path d="M201 76.4309C201.265 76.4309 201.507 76.5807 201.626 76.8176L205.626 84.8176C205.734 85.0346 205.723 85.2929 205.596 85.4993C205.468 85.7056 205.243 85.8313 205 85.8313H197C196.757 85.8313 196.532 85.7056 196.404 85.4993C196.277 85.2929 196.266 85.0346 196.374 84.8176L200.374 76.8176L200.424 76.7336C200.553 76.5459 200.768 76.4309 201 76.4309Z" stroke="#1A6EFC" stroke-width="1.4" stroke-linejoin="round"/>
<ellipse cx="225" cy="36.1311" rx="20" ry="5" stroke="#1A6EFC" stroke-width="2"/>
<path d="M24.975 45.1311V43.4061L28.53 39.6261C28.9 39.2161 29.175 38.8361 29.355 38.4861C29.545 38.1261 29.64 37.7711 29.64 37.4211C29.64 37.0011 29.515 36.6861 29.265 36.4761C29.015 36.2661 28.655 36.1611 28.185 36.1611C27.735 36.1611 27.27 36.2511 26.79 36.4311C26.32 36.6011 25.845 36.8561 25.365 37.1961L24.615 35.5161C25.045 35.1461 25.595 34.8561 26.265 34.6461C26.935 34.4261 27.615 34.3161 28.305 34.3161C29.035 34.3161 29.675 34.4361 30.225 34.6761C30.775 34.9161 31.195 35.2611 31.485 35.7111C31.785 36.1511 31.935 36.6711 31.935 37.2711C31.935 37.9011 31.805 38.4761 31.545 38.9961C31.295 39.5161 30.87 40.0961 30.27 40.7361L27.21 43.9461L26.91 43.2561H32.31V45.1311H24.975ZM37.4188 45.2511C36.7388 45.2511 36.0638 45.1461 35.3938 44.9361C34.7338 44.7161 34.1988 44.4211 33.7888 44.0511L34.5388 42.3711C35.0088 42.7111 35.4888 42.9711 35.9788 43.1511C36.4688 43.3211 36.9588 43.4061 37.4488 43.4061C38.0688 43.4061 38.5338 43.2661 38.8438 42.9861C39.1638 42.6961 39.3238 42.2811 39.3238 41.7411C39.3238 41.3811 39.2488 41.0761 39.0988 40.8261C38.9588 40.5661 38.7488 40.3711 38.4688 40.2411C38.1988 40.1011 37.8738 40.0311 37.4938 40.0311C37.1538 40.0311 36.8038 40.0961 36.4438 40.2261C36.0938 40.3461 35.7788 40.5261 35.4988 40.7661H34.1638V34.4511H41.0188V36.2511H36.4438V39.3111L35.7388 39.1911C36.0488 38.8711 36.3988 38.6311 36.7888 38.4711C37.1888 38.3011 37.6438 38.2161 38.1538 38.2161C38.8238 38.2161 39.4088 38.3611 39.9088 38.6511C40.4188 38.9411 40.8188 39.3411 41.1088 39.8511C41.3988 40.3611 41.5438 40.9611 41.5438 41.6511C41.5438 42.3711 41.3738 43.0011 41.0338 43.5411C40.6938 44.0811 40.2138 44.5011 39.5938 44.8011C38.9838 45.1011 38.2588 45.2511 37.4188 45.2511ZM44.8529 40.9161C44.0529 40.9161 43.4179 40.6411 42.9479 40.0911C42.4879 39.5411 42.2579 38.7211 42.2579 37.6311C42.2579 36.5611 42.4879 35.7561 42.9479 35.2161C43.4179 34.6661 44.0529 34.3911 44.8529 34.3911C45.6529 34.3911 46.2829 34.6661 46.7429 35.2161C47.2029 35.7661 47.4329 36.5761 47.4329 37.6461C47.4329 38.7261 47.2029 39.5411 46.7429 40.0911C46.2829 40.6411 45.6529 40.9161 44.8529 40.9161ZM44.8529 39.4911C45.0929 39.4911 45.2679 39.3511 45.3779 39.0711C45.4979 38.7911 45.5579 38.3161 45.5579 37.6461C45.5579 36.9861 45.4979 36.5161 45.3779 36.2361C45.2579 35.9561 45.0829 35.8161 44.8529 35.8161C44.6129 35.8161 44.4329 35.9561 44.3129 36.2361C44.1929 36.5161 44.1329 36.9861 44.1329 37.6461C44.1329 38.3161 44.1929 38.7911 44.3129 39.0711C44.4329 39.3511 44.6129 39.4911 44.8529 39.4911ZM44.5679 45.1311L50.7629 34.4511H52.9529L46.7579 45.1311H44.5679ZM52.6529 45.1911C51.8529 45.1911 51.2179 44.9161 50.7479 44.3661C50.2879 43.8161 50.0579 42.9961 50.0579 41.9061C50.0579 40.8361 50.2879 40.0311 50.7479 39.4911C51.2179 38.9411 51.8529 38.6661 52.6529 38.6661C53.4529 38.6661 54.0829 38.9411 54.5429 39.4911C55.0029 40.0411 55.2329 40.8511 55.2329 41.9211C55.2329 43.0011 55.0029 43.8161 54.5429 44.3661C54.0829 44.9161 53.4529 45.1911 52.6529 45.1911ZM52.6529 43.7661C52.8929 43.7661 53.0679 43.6261 53.1779 43.3461C53.2979 43.0661 53.3579 42.5911 53.3579 41.9211C53.3579 41.2611 53.2979 40.7911 53.1779 40.5111C53.0579 40.2311 52.8829 40.0911 52.6529 40.0911C52.4129 40.0911 52.2329 40.2311 52.1129 40.5111C51.9929 40.7911 51.9329 41.2611 51.9329 41.9211C51.9329 42.5911 51.9929 43.0661 52.1129 43.3461C52.2329 43.6261 52.4129 43.7661 52.6529 43.7661ZM65.6975 45.2661C64.6275 45.2661 63.7025 45.0411 62.9225 44.5911C62.1425 44.1411 61.5375 43.5061 61.1075 42.6861C60.6875 41.8661 60.4775 40.8961 60.4775 39.7761C60.4775 38.6661 60.6875 37.7011 61.1075 36.8811C61.5375 36.0611 62.1425 35.4311 62.9225 34.9911C63.7025 34.5411 64.6275 34.3161 65.6975 34.3161C66.7675 34.3161 67.6875 34.5411 68.4575 34.9911C69.2375 35.4311 69.8375 36.0611 70.2575 36.8811C70.6775 37.7011 70.8875 38.6661 70.8875 39.7761C70.8875 40.8961 70.6775 41.8661 70.2575 42.6861C69.8375 43.5061 69.2375 44.1411 68.4575 44.5911C67.6875 45.0411 66.7675 45.2661 65.6975 45.2661ZM65.6975 43.4511C66.5775 43.4511 67.2725 43.1411 67.7825 42.5211C68.3025 41.8911 68.5625 40.9761 68.5625 39.7761C68.5625 38.5761 68.3025 37.6711 67.7825 37.0611C67.2725 36.4411 66.5775 36.1311 65.6975 36.1311C64.8075 36.1311 64.1075 36.4411 63.5975 37.0611C63.0875 37.6711 62.8325 38.5761 62.8325 39.7761C62.8325 40.9861 63.0875 41.9011 63.5975 42.5211C64.1075 43.1411 64.8075 43.4511 65.6975 43.4511ZM72.7164 45.1311V34.4511H79.9164V36.3111H75.0264V38.7861H79.6164V40.6311H75.0264V45.1311H72.7164ZM81.3882 45.1311V34.4511H88.5882V36.3111H83.6982V38.7861H88.2882V40.6311H83.6982V45.1311H81.3882ZM91.2901 40.0911L90.0451 39.1761L91.3801 37.5711L89.3401 37.0311L89.8351 35.5461L91.7701 36.3111L91.6501 34.2261H93.2101L93.0751 36.2961L95.0401 35.5461L95.5201 37.0311L93.4801 37.5561L94.8151 39.1761L93.5551 40.0911L92.4301 38.3361L91.2901 40.0911Z" fill="white"/>
<path d="M29.17 71.1311V58.2611H24.264V55.4671H37.552V58.2611H32.646V71.1311H29.17ZM42.6973 71.3071C41.4946 71.3071 40.4533 71.0724 39.5733 70.6031C38.6933 70.1338 38.0113 69.4664 37.5273 68.6011C37.0579 67.7211 36.8233 66.6871 36.8233 65.4991C36.8233 64.3111 37.0579 63.2844 37.5273 62.4191C38.0113 61.5538 38.6933 60.8864 39.5733 60.4171C40.4533 59.9331 41.4946 59.6911 42.6973 59.6911C43.8706 59.6911 44.8973 59.9331 45.7773 60.4171C46.6573 60.8864 47.3319 61.5538 47.8013 62.4191C48.2853 63.2844 48.5273 64.3111 48.5273 65.4991C48.5273 66.6871 48.2853 67.7211 47.8013 68.6011C47.3319 69.4664 46.6573 70.1338 45.7773 70.6031C44.8973 71.0724 43.8706 71.3071 42.6973 71.3071ZM42.6973 68.7771C43.5039 68.7771 44.1273 68.5131 44.5673 67.9851C45.0073 67.4424 45.2273 66.6138 45.2273 65.4991C45.2273 64.3991 45.0073 63.5851 44.5673 63.0571C44.1273 62.5144 43.5039 62.2431 42.6973 62.2431C41.8759 62.2431 41.2379 62.5144 40.7833 63.0571C40.3433 63.5851 40.1233 64.3991 40.1233 65.4991C40.1233 66.6138 40.3433 67.4424 40.7833 67.9851C41.2233 68.5131 41.8613 68.7771 42.6973 68.7771ZM61.8266 71.1311H58.5486V68.4031L58.8126 68.8871C58.5633 69.6498 58.0939 70.2438 57.4046 70.6691C56.7153 71.0944 55.9233 71.3071 55.0286 71.3071C54.0606 71.3071 53.2026 71.0651 52.4546 70.5811C51.7213 70.0824 51.1419 69.4004 50.7166 68.5351C50.3059 67.6551 50.1006 66.6284 50.1006 65.4551C50.1006 64.2964 50.3059 63.2844 50.7166 62.4191C51.1273 61.5538 51.7066 60.8864 52.4546 60.4171C53.2026 59.9331 54.0606 59.6911 55.0286 59.6911C55.9233 59.6911 56.7153 59.9184 57.4046 60.3731C58.0939 60.8131 58.5633 61.3998 58.8126 62.1331L58.5046 62.5291V54.9391H61.8266V71.1311ZM55.9966 68.7771C56.8033 68.7771 57.4266 68.4984 57.8666 67.9411C58.3213 67.3838 58.5486 66.5698 58.5486 65.4991C58.5486 64.4724 58.3213 63.6731 57.8666 63.1011C57.4266 62.5291 56.8033 62.2431 55.9966 62.2431C55.1606 62.2431 54.5153 62.5218 54.0606 63.0791C53.6206 63.6364 53.4006 64.4284 53.4006 65.4551C53.4006 66.5258 53.6279 67.3471 54.0826 67.9191C54.5519 68.4911 55.1899 68.7771 55.9966 68.7771ZM68.886 71.3071C67.918 71.3071 67.06 71.0724 66.312 70.6031C65.564 70.1338 64.9847 69.4664 64.574 68.6011C64.1633 67.7358 63.958 66.7238 63.958 65.5651C63.958 64.4064 64.1633 63.3871 64.574 62.5071C64.9993 61.6124 65.5787 60.9231 66.312 60.4391C67.06 59.9404 67.918 59.6911 68.886 59.6911C69.7807 59.6911 70.5727 59.9111 71.262 60.3511C71.9513 60.7911 72.4207 61.3851 72.67 62.1331L72.406 62.3091V59.9771H75.684V71.1311H72.406V68.8431L72.67 68.8871C72.4207 69.6498 71.9513 70.2438 71.262 70.6691C70.5727 71.0944 69.7807 71.3071 68.886 71.3071ZM69.854 68.7771C70.6607 68.7771 71.284 68.4984 71.724 67.9411C72.1787 67.3838 72.406 66.5771 72.406 65.5211C72.406 64.4651 72.1787 63.6584 71.724 63.1011C71.284 62.5291 70.6607 62.2431 69.854 62.2431C69.0473 62.2431 68.4093 62.5364 67.94 63.1231C67.4853 63.7098 67.258 64.5238 67.258 65.5651C67.258 66.6064 67.478 67.4058 67.918 67.9631C68.3727 68.5058 69.018 68.7771 69.854 68.7771ZM78.2994 76.1471L77.5294 73.5951C78.2188 73.4631 78.7834 73.2944 79.2234 73.0891C79.6781 72.8984 80.0521 72.6564 80.3454 72.3631C80.6388 72.0698 80.8808 71.7104 81.0714 71.2851L81.9294 69.3711L82.8094 68.0731L86.0874 59.9771H89.3654L84.2394 71.7031C83.7848 72.7298 83.2641 73.5438 82.6774 74.1451C82.0908 74.7464 81.4308 75.2011 80.6974 75.5091C79.9641 75.8171 79.1648 76.0298 78.2994 76.1471ZM82.0174 71.9671L76.8034 59.9771H80.2574L83.4694 68.0731L82.0174 71.9671ZM91.996 62.1991L90.72 61.1651C91.2333 60.6371 91.6 60.1458 91.82 59.6911C92.04 59.2218 92.15 58.7304 92.15 58.2171L92.942 59.0091H90.412V55.4671H94.02V57.7331C94.02 58.5838 93.866 59.3538 93.558 60.0431C93.2647 60.7324 92.744 61.4511 91.996 62.1991ZM100.187 71.3071C98.06 71.3071 96.3807 70.8524 95.1487 69.9431L96.0507 67.6331C96.6374 68.0584 97.29 68.3884 98.0087 68.6231C98.742 68.8431 99.4754 68.9531 100.209 68.9531C100.781 68.9531 101.221 68.8651 101.529 68.6891C101.837 68.4984 101.991 68.2418 101.991 67.9191C101.991 67.6404 101.881 67.4278 101.661 67.2811C101.441 67.1198 101.052 66.9731 100.495 66.8411L98.6687 66.4011C97.5834 66.1811 96.784 65.8144 96.2707 65.3011C95.772 64.7878 95.5227 64.1058 95.5227 63.2551C95.5227 62.5658 95.7207 61.9571 96.1167 61.4291C96.5274 60.8864 97.092 60.4611 97.8107 60.1531C98.5294 59.8451 99.3654 59.6911 100.319 59.6911C101.125 59.6911 101.903 59.8158 102.651 60.0651C103.399 60.2998 104.081 60.6371 104.697 61.0771L103.773 63.2991C103.201 62.9031 102.614 62.6024 102.013 62.3971C101.426 62.1918 100.854 62.0891 100.297 62.0891C99.754 62.0891 99.3287 62.1844 99.0207 62.3751C98.7127 62.5658 98.5587 62.8298 98.5587 63.1671C98.5587 63.4164 98.6467 63.6144 98.8227 63.7611C99.0134 63.9078 99.3434 64.0398 99.8127 64.1571L101.683 64.5751C102.827 64.8391 103.655 65.2351 104.169 65.7631C104.682 66.2911 104.939 66.9951 104.939 67.8751C104.939 68.9311 104.513 69.7671 103.663 70.3831C102.827 70.9991 101.668 71.3071 100.187 71.3071ZM118.868 71.3291C118.076 71.3291 117.299 71.2631 116.536 71.1311C115.788 70.9844 115.084 70.7791 114.424 70.5151C113.764 70.2364 113.192 69.9064 112.708 69.5251L113.83 67.0611C114.607 67.6038 115.414 68.0071 116.25 68.2711C117.086 68.5351 117.966 68.6671 118.89 68.6671C119.887 68.6671 120.65 68.5058 121.178 68.1831C121.721 67.8604 121.992 67.4131 121.992 66.8411C121.992 66.5038 121.882 66.2178 121.662 65.9831C121.442 65.7484 121.09 65.5431 120.606 65.3671C120.122 65.1911 119.477 65.0151 118.67 64.8391C117.658 64.6338 116.793 64.3918 116.074 64.1131C115.355 63.8344 114.769 63.5118 114.314 63.1451C113.874 62.7784 113.551 62.3531 113.346 61.8691C113.141 61.3704 113.038 60.7984 113.038 60.1531C113.038 59.2291 113.295 58.4004 113.808 57.6671C114.336 56.9191 115.062 56.3324 115.986 55.9071C116.925 55.4818 118.017 55.2691 119.264 55.2691C120.012 55.2691 120.738 55.3424 121.442 55.4891C122.161 55.6358 122.821 55.8411 123.422 56.1051C124.023 56.3691 124.529 56.6918 124.94 57.0731L123.84 59.5371C123.136 58.9944 122.403 58.5911 121.64 58.3271C120.877 58.0631 120.1 57.9311 119.308 57.9311C118.413 57.9311 117.702 58.1144 117.174 58.4811C116.646 58.8331 116.382 59.3171 116.382 59.9331C116.382 60.2704 116.485 60.5564 116.69 60.7911C116.895 61.0258 117.233 61.2384 117.702 61.4291C118.186 61.6051 118.846 61.7884 119.682 61.9791C120.665 62.1844 121.515 62.4264 122.234 62.7051C122.953 62.9838 123.539 63.3064 123.994 63.6731C124.463 64.0251 124.808 64.4431 125.028 64.9271C125.248 65.3964 125.358 65.9391 125.358 66.5551C125.358 67.5378 125.101 68.3884 124.588 69.1071C124.075 69.8111 123.334 70.3611 122.366 70.7571C121.398 71.1384 120.232 71.3291 118.868 71.3291ZM127.629 75.8831V63.1671C127.629 62.6391 127.614 62.1111 127.585 61.5831C127.57 61.0404 127.526 60.5051 127.453 59.9771H130.577L130.819 62.1331H130.687C130.922 61.3851 131.376 60.7911 132.051 60.3511C132.74 59.9111 133.54 59.6911 134.449 59.6911C135.417 59.6911 136.268 59.9404 137.001 60.4391C137.749 60.9231 138.336 61.6124 138.761 62.5071C139.186 63.3871 139.399 64.4064 139.399 65.5651C139.399 66.7238 139.186 67.7358 138.761 68.6011C138.336 69.4664 137.749 70.1338 137.001 70.6031C136.268 71.0724 135.417 71.3071 134.449 71.3071C133.54 71.3071 132.74 71.0944 132.051 70.6691C131.376 70.2438 130.922 69.6498 130.687 68.8871L130.951 68.4691V75.8831H127.629ZM133.503 68.7771C134.324 68.7771 134.955 68.5058 135.395 67.9631C135.835 67.4058 136.055 66.6064 136.055 65.5651C136.055 64.5238 135.828 63.7098 135.373 63.1231C134.933 62.5364 134.31 62.2431 133.503 62.2431C132.667 62.2431 132.029 62.5291 131.589 63.1011C131.149 63.6584 130.929 64.4651 130.929 65.5211C130.929 66.5771 131.149 67.3838 131.589 67.9411C132.029 68.4984 132.667 68.7771 133.503 68.7771ZM151.342 69.9431C150.799 70.3684 150.139 70.7058 149.362 70.9551C148.584 71.1898 147.8 71.3071 147.008 71.3071C145.761 71.3071 144.683 71.0724 143.774 70.6031C142.879 70.1338 142.19 69.4664 141.706 68.6011C141.222 67.7358 140.98 66.7091 140.98 65.5211C140.98 64.3771 141.214 63.3651 141.684 62.4851C142.153 61.6051 142.791 60.9231 143.598 60.4391C144.419 59.9404 145.372 59.6911 146.458 59.6911C147.499 59.6911 148.401 59.9258 149.164 60.3951C149.926 60.8498 150.513 61.5024 150.924 62.3531C151.334 63.1891 151.54 64.1864 151.54 65.3451V65.8291H143.906L143.95 64.1791H149.56L148.702 64.8611C148.716 63.9224 148.533 63.2184 148.152 62.7491C147.785 62.2651 147.25 62.0231 146.546 62.0231C145.783 62.0231 145.189 62.3018 144.764 62.8591C144.353 63.4018 144.148 64.2011 144.148 65.2571C144.148 66.5038 144.39 67.4058 144.874 67.9631C145.372 68.5204 146.128 68.7991 147.14 68.7991C147.726 68.7991 148.306 68.7038 148.878 68.5131C149.45 68.3224 149.978 68.0511 150.462 67.6991L151.342 69.9431ZM158.905 71.3071C157.703 71.3071 156.661 71.0724 155.781 70.6031C154.901 70.1338 154.227 69.4738 153.757 68.6231C153.303 67.7578 153.075 66.7384 153.075 65.5651C153.075 64.3918 153.325 63.3651 153.823 62.4851C154.322 61.6051 155.019 60.9231 155.913 60.4391C156.808 59.9404 157.857 59.6911 159.059 59.6911C159.851 59.6911 160.629 59.8158 161.391 60.0651C162.154 60.3144 162.77 60.6518 163.239 61.0771L162.359 63.3871C161.919 63.0351 161.435 62.7638 160.907 62.5731C160.379 62.3678 159.866 62.2651 159.367 62.2651C158.473 62.2651 157.769 62.5364 157.255 63.0791C156.742 63.6218 156.485 64.4284 156.485 65.4991C156.485 66.5844 156.735 67.3984 157.233 67.9411C157.747 68.4838 158.458 68.7551 159.367 68.7551C159.866 68.7551 160.379 68.6598 160.907 68.4691C161.435 68.2784 161.919 67.9998 162.359 67.6331L163.239 69.9431C162.755 70.3684 162.125 70.7058 161.347 70.9551C160.57 71.1898 159.756 71.3071 158.905 71.3071ZM164.819 71.1311V59.9771H168.141V71.1311H164.819ZM164.687 54.7411H168.273V57.8651H164.687V54.7411ZM175.234 71.3071C174.266 71.3071 173.408 71.0724 172.66 70.6031C171.912 70.1338 171.332 69.4664 170.922 68.6011C170.511 67.7358 170.306 66.7238 170.306 65.5651C170.306 64.4064 170.511 63.3871 170.922 62.5071C171.347 61.6124 171.926 60.9231 172.66 60.4391C173.408 59.9404 174.266 59.6911 175.234 59.6911C176.128 59.6911 176.92 59.9111 177.61 60.3511C178.299 60.7911 178.768 61.3851 179.018 62.1331L178.754 62.3091V59.9771H182.032V71.1311H178.754V68.8431L179.018 68.8871C178.768 69.6498 178.299 70.2438 177.61 70.6691C176.92 71.0944 176.128 71.3071 175.234 71.3071ZM176.202 68.7771C177.008 68.7771 177.632 68.4984 178.072 67.9411C178.526 67.3838 178.754 66.5771 178.754 65.5211C178.754 64.4651 178.526 63.6584 178.072 63.1011C177.632 62.5291 177.008 62.2431 176.202 62.2431C175.395 62.2431 174.757 62.5364 174.288 63.1231C173.833 63.7098 173.606 64.5238 173.606 65.5651C173.606 66.6064 173.826 67.4058 174.266 67.9631C174.72 68.5058 175.366 68.7771 176.202 68.7771ZM184.713 71.1311V54.9391H188.035V71.1311H184.713Z" fill="white"/>
<path d="M29.434 100.248C28.446 100.248 27.5923 100.057 26.873 99.6761C26.1623 99.2948 25.612 98.7488 25.222 98.0381C24.8407 97.3274 24.65 96.4781 24.65 95.4901C24.65 94.5194 24.8407 93.6788 25.222 92.9681C25.612 92.2574 26.158 91.7114 26.86 91.3301C27.562 90.9488 28.3897 90.7581 29.343 90.7581C30.0017 90.7581 30.6213 90.8491 31.202 91.0311C31.7827 91.2131 32.2593 91.4688 32.632 91.7981L31.982 93.2541C31.54 92.9421 31.1153 92.7168 30.708 92.5781C30.3093 92.4394 29.8717 92.3701 29.395 92.3701C28.5023 92.3701 27.8307 92.6301 27.38 93.1501C26.938 93.6701 26.717 94.4501 26.717 95.4901C26.717 96.5561 26.9467 97.3578 27.406 97.8951C27.874 98.4238 28.5803 98.6881 29.525 98.6881C29.8543 98.6881 30.1837 98.6621 30.513 98.6101C30.851 98.5494 31.176 98.4628 31.488 98.3501L31.046 99.0131V96.4391H29.226V95.0221H32.879V99.5591C32.5757 99.7064 32.2333 99.8321 31.852 99.9361C31.4793 100.04 31.085 100.118 30.669 100.17C30.2617 100.222 29.85 100.248 29.434 100.248ZM40.2775 99.4291C39.9569 99.6804 39.5669 99.8798 39.1075 100.027C38.6482 100.166 38.1845 100.235 37.7165 100.235C36.9799 100.235 36.3429 100.096 35.8055 99.8191C35.2769 99.5418 34.8695 99.1474 34.5835 98.6361C34.2975 98.1248 34.1545 97.5181 34.1545 96.8161C34.1545 96.1401 34.2932 95.5421 34.5705 95.0221C34.8479 94.5021 35.2249 94.0991 35.7015 93.8131C36.1869 93.5184 36.7502 93.3711 37.3915 93.3711C38.0069 93.3711 38.5399 93.5098 38.9905 93.7871C39.4412 94.0558 39.7879 94.4414 40.0305 94.9441C40.2732 95.4381 40.3945 96.0274 40.3945 96.7121V96.9981H35.8835L35.9095 96.0231H39.2245L38.7175 96.4261C38.7262 95.8714 38.6179 95.4554 38.3925 95.1781C38.1759 94.8921 37.8595 94.7491 37.4435 94.7491C36.9929 94.7491 36.6419 94.9138 36.3905 95.2431C36.1479 95.5638 36.0265 96.0361 36.0265 96.6601C36.0265 97.3968 36.1695 97.9298 36.4555 98.2591C36.7502 98.5884 37.1965 98.7531 37.7945 98.7531C38.1412 98.7531 38.4835 98.6968 38.8215 98.5841C39.1595 98.4714 39.4715 98.3111 39.7575 98.1031L40.2775 99.4291ZM40.7717 95.0091V93.5401H45.6597V95.0091H40.7717ZM45.6597 98.5451V100.053C45.4777 100.122 45.2957 100.17 45.1137 100.196C44.9317 100.222 44.7367 100.235 44.5287 100.235C43.7141 100.235 43.0901 100.005 42.6567 99.5461C42.2321 99.0781 42.0197 98.4324 42.0197 97.6091V91.9931L43.9827 91.3561V97.5701C43.9827 97.8301 44.0304 98.0381 44.1257 98.1941C44.2211 98.3501 44.3467 98.4628 44.5027 98.5321C44.6587 98.5928 44.8277 98.6231 45.0097 98.6231C45.1137 98.6231 45.2134 98.6188 45.3087 98.6101C45.4127 98.5928 45.5297 98.5711 45.6597 98.5451ZM52.9103 100.235C52.3383 100.235 51.8313 100.096 51.3893 99.8191C50.9473 99.5418 50.6049 99.1474 50.3623 98.6361C50.1196 98.1248 49.9983 97.5268 49.9983 96.8421C49.9983 96.1574 50.1196 95.5551 50.3623 95.0351C50.6136 94.5064 50.9559 94.0991 51.3893 93.8131C51.8313 93.5184 52.3383 93.3711 52.9103 93.3711C53.4389 93.3711 53.9069 93.5011 54.3143 93.7611C54.7216 94.0211 54.9989 94.3721 55.1463 94.8141L54.9903 94.9181V93.5401H56.9273V100.131H54.9903V98.7791L55.1463 98.8051C54.9989 99.2558 54.7216 99.6068 54.3143 99.8581C53.9069 100.109 53.4389 100.235 52.9103 100.235ZM53.4823 98.7401C53.9589 98.7401 54.3273 98.5754 54.5873 98.2461C54.8559 97.9168 54.9903 97.4401 54.9903 96.8161C54.9903 96.1921 54.8559 95.7154 54.5873 95.3861C54.3273 95.0481 53.9589 94.8791 53.4823 94.8791C53.0056 94.8791 52.6286 95.0524 52.3513 95.3991C52.0826 95.7458 51.9483 96.2268 51.9483 96.8421C51.9483 97.4574 52.0783 97.9298 52.3383 98.2591C52.6069 98.5798 52.9883 98.7401 53.4823 98.7401ZM62.298 100.131V90.8751H65.886C66.9 90.8751 67.7667 91.0571 68.486 91.4211C69.214 91.7851 69.7687 92.3138 70.15 93.0071C70.54 93.6918 70.735 94.5194 70.735 95.4901C70.735 96.4694 70.5443 97.3058 70.163 97.9991C69.7817 98.6838 69.227 99.2124 68.499 99.5851C67.7797 99.9491 66.9087 100.131 65.886 100.131H62.298ZM64.326 98.4931H65.743C66.731 98.4931 67.472 98.2461 67.966 97.7521C68.46 97.2494 68.707 96.4954 68.707 95.4901C68.707 93.5054 67.719 92.5131 65.743 92.5131H64.326V98.4931ZM72.1973 100.131V93.5401H74.1603V100.131H72.1973ZM72.1193 90.4461H74.2383V92.2921H72.1193V90.4461ZM78.2997 100.235C77.043 100.235 76.0507 99.9664 75.3227 99.4291L75.8557 98.0641C76.2023 98.3154 76.588 98.5104 77.0127 98.6491C77.446 98.7791 77.8793 98.8441 78.3127 98.8441C78.6507 98.8441 78.9107 98.7921 79.0927 98.6881C79.2747 98.5754 79.3657 98.4238 79.3657 98.2331C79.3657 98.0684 79.3007 97.9428 79.1707 97.8561C79.0407 97.7608 78.811 97.6741 78.4817 97.5961L77.4027 97.3361C76.7613 97.2061 76.289 96.9894 75.9857 96.6861C75.691 96.3828 75.5437 95.9798 75.5437 95.4771C75.5437 95.0698 75.6607 94.7101 75.8947 94.3981C76.1373 94.0774 76.471 93.8261 76.8957 93.6441C77.3203 93.4621 77.8143 93.3711 78.3777 93.3711C78.8543 93.3711 79.3137 93.4448 79.7557 93.5921C80.1977 93.7308 80.6007 93.9301 80.9647 94.1901L80.4187 95.5031C80.0807 95.2691 79.734 95.0914 79.3787 94.9701C79.032 94.8488 78.694 94.7881 78.3647 94.7881C78.044 94.7881 77.7927 94.8444 77.6107 94.9571C77.4287 95.0698 77.3377 95.2258 77.3377 95.4251C77.3377 95.5724 77.3897 95.6894 77.4937 95.7761C77.6063 95.8628 77.8013 95.9408 78.0787 96.0101L79.1837 96.2571C79.8597 96.4131 80.3493 96.6471 80.6527 96.9591C80.956 97.2711 81.1077 97.6871 81.1077 98.2071C81.1077 98.8311 80.8563 99.3251 80.3537 99.6891C79.8597 100.053 79.175 100.235 78.2997 100.235ZM85.4355 100.235C84.7248 100.235 84.1095 100.096 83.5895 99.8191C83.0695 99.5418 82.6708 99.1518 82.3935 98.6491C82.1248 98.1378 81.9905 97.5354 81.9905 96.8421C81.9905 96.1488 82.1378 95.5421 82.4325 95.0221C82.7271 94.5021 83.1388 94.0991 83.6675 93.8131C84.1961 93.5184 84.8158 93.3711 85.5265 93.3711C85.9945 93.3711 86.4538 93.4448 86.9045 93.5921C87.3551 93.7394 87.7191 93.9388 87.9965 94.1901L87.4765 95.5551C87.2165 95.3471 86.9305 95.1868 86.6185 95.0741C86.3065 94.9528 86.0031 94.8921 85.7085 94.8921C85.1798 94.8921 84.7638 95.0524 84.4605 95.3731C84.1571 95.6938 84.0055 96.1704 84.0055 96.8031C84.0055 97.4444 84.1528 97.9254 84.4475 98.2461C84.7508 98.5668 85.1711 98.7271 85.7085 98.7271C86.0031 98.7271 86.3065 98.6708 86.6185 98.5581C86.9305 98.4454 87.2165 98.2808 87.4765 98.0641L87.9965 99.4291C87.7105 99.6804 87.3378 99.8798 86.8785 100.027C86.4191 100.166 85.9381 100.235 85.4355 100.235ZM92.0757 100.235C91.3651 100.235 90.7497 100.096 90.2297 99.8191C89.7097 99.5418 89.3067 99.1474 89.0207 98.6361C88.7434 98.1161 88.6047 97.5051 88.6047 96.8031C88.6047 96.1011 88.7434 95.4944 89.0207 94.9831C89.3067 94.4718 89.7097 94.0774 90.2297 93.8001C90.7497 93.5141 91.3651 93.3711 92.0757 93.3711C92.7691 93.3711 93.3757 93.5141 93.8957 93.8001C94.4157 94.0774 94.8144 94.4718 95.0917 94.9831C95.3777 95.4944 95.5207 96.1011 95.5207 96.8031C95.5207 97.5051 95.3777 98.1161 95.0917 98.6361C94.8144 99.1474 94.4157 99.5418 93.8957 99.8191C93.3757 100.096 92.7691 100.235 92.0757 100.235ZM92.0757 98.7401C92.5524 98.7401 92.9207 98.5841 93.1807 98.2721C93.4407 97.9514 93.5707 97.4618 93.5707 96.8031C93.5707 96.1531 93.4407 95.6721 93.1807 95.3601C92.9207 95.0394 92.5524 94.8791 92.0757 94.8791C91.5904 94.8791 91.2134 95.0394 90.9447 95.3601C90.6847 95.6721 90.5547 96.1531 90.5547 96.8031C90.5547 97.4618 90.6847 97.9514 90.9447 98.2721C91.2047 98.5841 91.5817 98.7401 92.0757 98.7401ZM99.1934 100.235C98.3701 100.235 97.7548 100.005 97.3474 99.5461C96.9401 99.0868 96.7364 98.3934 96.7364 97.4661V93.5401H98.6994V97.5051C98.6994 97.9124 98.7818 98.2158 98.9464 98.4151C99.1198 98.6058 99.3841 98.7011 99.7394 98.7011C100.138 98.7011 100.463 98.5624 100.714 98.2851C100.966 98.0078 101.091 97.6394 101.091 97.1801V93.5401H103.067V100.131H101.156V98.8181L101.325 98.8311C101.135 99.2904 100.853 99.6414 100.48 99.8841C100.116 100.118 99.6874 100.235 99.1934 100.235ZM104.659 100.131V95.4251C104.659 95.1131 104.651 94.8011 104.633 94.4891C104.625 94.1684 104.599 93.8521 104.555 93.5401H106.401L106.544 94.8271L106.401 94.8141C106.627 94.3461 106.939 93.9908 107.337 93.7481C107.745 93.4968 108.213 93.3711 108.741 93.3711C110.293 93.3711 111.068 94.2941 111.068 96.1401V100.131H109.105V96.2311C109.105 95.7631 109.019 95.4251 108.845 95.2171C108.681 95.0091 108.416 94.9051 108.052 94.9051C107.619 94.9051 107.272 95.0438 107.012 95.3211C106.752 95.5984 106.622 95.9711 106.622 96.4391V100.131H104.659ZM111.878 95.0091V93.5401H116.766V95.0091H111.878ZM116.766 98.5451V100.053C116.584 100.122 116.402 100.17 116.22 100.196C116.038 100.222 115.843 100.235 115.635 100.235C114.821 100.235 114.197 100.005 113.763 99.5461C113.339 99.0781 113.126 98.4324 113.126 97.6091V91.9931L115.089 91.3561V97.5701C115.089 97.8301 115.137 98.0381 115.232 98.1941C115.328 98.3501 115.453 98.4628 115.609 98.5321C115.765 98.5928 115.934 98.6231 116.116 98.6231C116.22 98.6231 116.32 98.6188 116.415 98.6101C116.519 98.5928 116.636 98.5711 116.766 98.5451ZM120.689 95.0091V93.5401H125.265V95.0091H120.689ZM125.525 92.2011C125.273 92.1404 125.061 92.1101 124.888 92.1101C124.706 92.1101 124.537 92.1448 124.381 92.2141C124.225 92.2834 124.103 92.3961 124.017 92.5521C123.93 92.7081 123.887 92.9161 123.887 93.1761V100.131H121.924V93.1241C121.924 92.3008 122.132 91.6594 122.548 91.2001C122.972 90.7321 123.592 90.4981 124.407 90.4981C124.606 90.4981 124.797 90.5111 124.979 90.5371C125.169 90.5631 125.351 90.6064 125.525 90.6671V92.2011ZM129.514 100.235C128.804 100.235 128.188 100.096 127.668 99.8191C127.148 99.5418 126.745 99.1474 126.459 98.6361C126.182 98.1161 126.043 97.5051 126.043 96.8031C126.043 96.1011 126.182 95.4944 126.459 94.9831C126.745 94.4718 127.148 94.0774 127.668 93.8001C128.188 93.5141 128.804 93.3711 129.514 93.3711C130.208 93.3711 130.814 93.5141 131.334 93.8001C131.854 94.0774 132.253 94.4718 132.53 94.9831C132.816 95.4944 132.959 96.1011 132.959 96.8031C132.959 97.5051 132.816 98.1161 132.53 98.6361C132.253 99.1474 131.854 99.5418 131.334 99.8191C130.814 100.096 130.208 100.235 129.514 100.235ZM129.514 98.7401C129.991 98.7401 130.359 98.5841 130.619 98.2721C130.879 97.9514 131.009 97.4618 131.009 96.8031C131.009 96.1531 130.879 95.6721 130.619 95.3601C130.359 95.0394 129.991 94.8791 129.514 94.8791C129.029 94.8791 128.652 95.0394 128.383 95.3601C128.123 95.6721 127.993 96.1531 127.993 96.8031C127.993 97.4618 128.123 97.9514 128.383 98.2721C128.643 98.5841 129.02 98.7401 129.514 98.7401ZM134.214 100.131V95.4251C134.214 95.1131 134.205 94.8011 134.188 94.4891C134.179 94.1684 134.153 93.8521 134.11 93.5401H135.956L136.164 95.2821L135.956 95.1781C136.06 94.5888 136.307 94.1424 136.697 93.8391C137.096 93.5358 137.546 93.3841 138.049 93.3841C138.196 93.3841 138.326 93.3971 138.439 93.4231C138.56 93.4491 138.664 93.4794 138.751 93.5141L138.738 95.3081C138.417 95.1608 138.097 95.0871 137.776 95.0871C137.421 95.0871 137.126 95.1521 136.892 95.2821C136.667 95.4121 136.489 95.5984 136.359 95.8411C136.238 96.0751 136.177 96.3568 136.177 96.6861V100.131H134.214ZM143.332 100.131V90.8751H149.715V92.4481H145.321V94.6321H149.442V96.2181H145.321V98.5581H149.715V100.131H143.332ZM152.934 100.131L150.061 93.5531H152.102L154 98.3241H153.61L155.547 93.5531H157.484L154.585 100.131H152.934ZM163.816 99.4291C163.495 99.6804 163.105 99.8798 162.646 100.027C162.186 100.166 161.723 100.235 161.255 100.235C160.518 100.235 159.881 100.096 159.344 99.8191C158.815 99.5418 158.408 99.1474 158.122 98.6361C157.836 98.1248 157.693 97.5181 157.693 96.8161C157.693 96.1401 157.831 95.5421 158.109 95.0221C158.386 94.5021 158.763 94.0991 159.24 93.8131C159.725 93.5184 160.288 93.3711 160.93 93.3711C161.545 93.3711 162.078 93.5098 162.529 93.7871C162.979 94.0558 163.326 94.4414 163.569 94.9441C163.811 95.4381 163.933 96.0274 163.933 96.7121V96.9981H159.422L159.448 96.0231H162.763L162.256 96.4261C162.264 95.8714 162.156 95.4554 161.931 95.1781C161.714 94.8921 161.398 94.7491 160.982 94.7491C160.531 94.7491 160.18 94.9138 159.929 95.2431C159.686 95.5638 159.565 96.0361 159.565 96.6601C159.565 97.3968 159.708 97.9298 159.994 98.2591C160.288 98.5884 160.735 98.7531 161.333 98.7531C161.679 98.7531 162.022 98.6968 162.36 98.5841C162.698 98.4714 163.01 98.3111 163.296 98.1031L163.816 99.4291ZM165.165 100.131V95.4251C165.165 95.1131 165.156 94.8011 165.139 94.4891C165.13 94.1684 165.104 93.8521 165.061 93.5401H166.907L167.115 95.2821L166.907 95.1781C167.011 94.5888 167.258 94.1424 167.648 93.8391C168.047 93.5358 168.497 93.3841 169 93.3841C169.147 93.3841 169.277 93.3971 169.39 93.4231C169.511 93.4491 169.615 93.4794 169.702 93.5141L169.689 95.3081C169.368 95.1608 169.048 95.0871 168.727 95.0871C168.372 95.0871 168.077 95.1521 167.843 95.2821C167.618 95.4121 167.44 95.5984 167.31 95.8411C167.189 96.0751 167.128 96.3568 167.128 96.6861V100.131H165.165ZM170.852 103.095L170.397 101.587C170.804 101.509 171.138 101.409 171.398 101.288C171.666 101.175 171.887 101.032 172.061 100.859C172.234 100.686 172.377 100.473 172.49 100.222L172.997 99.0911L173.517 98.3241L175.454 93.5401H177.391L174.362 100.469C174.093 101.076 173.785 101.557 173.439 101.912C173.092 102.267 172.702 102.536 172.269 102.718C171.835 102.9 171.363 103.026 170.852 103.095ZM173.049 100.625L169.968 93.5401H172.009L173.907 98.3241L173.049 100.625ZM29.265 116.248C28.3203 116.248 27.5013 116.053 26.808 115.663C26.1147 115.273 25.5817 114.723 25.209 114.012C24.8363 113.293 24.65 112.452 24.65 111.49C24.65 110.537 24.8363 109.705 25.209 108.994C25.5817 108.283 26.1147 107.733 26.808 107.343C27.5013 106.953 28.3203 106.758 29.265 106.758C29.8803 106.758 30.4653 106.853 31.02 107.044C31.5747 107.226 32.034 107.486 32.398 107.824L31.761 109.28C31.345 108.968 30.9377 108.743 30.539 108.604C30.149 108.457 29.7373 108.383 29.304 108.383C28.4807 108.383 27.8437 108.647 27.393 109.176C26.9423 109.696 26.717 110.467 26.717 111.49C26.717 112.513 26.9423 113.293 27.393 113.83C27.8437 114.359 28.4807 114.623 29.304 114.623C29.7373 114.623 30.149 114.554 30.539 114.415C30.9377 114.268 31.345 114.038 31.761 113.726L32.398 115.182C32.034 115.52 31.5747 115.784 31.02 115.975C30.4653 116.157 29.8803 116.248 29.265 116.248ZM36.7115 116.235C36.0008 116.235 35.3855 116.096 34.8655 115.819C34.3455 115.542 33.9425 115.147 33.6565 114.636C33.3791 114.116 33.2405 113.505 33.2405 112.803C33.2405 112.101 33.3791 111.494 33.6565 110.983C33.9425 110.472 34.3455 110.077 34.8655 109.8C35.3855 109.514 36.0008 109.371 36.7115 109.371C37.4048 109.371 38.0115 109.514 38.5315 109.8C39.0515 110.077 39.4501 110.472 39.7275 110.983C40.0135 111.494 40.1565 112.101 40.1565 112.803C40.1565 113.505 40.0135 114.116 39.7275 114.636C39.4501 115.147 39.0515 115.542 38.5315 115.819C38.0115 116.096 37.4048 116.235 36.7115 116.235ZM36.7115 114.74C37.1881 114.74 37.5565 114.584 37.8165 114.272C38.0765 113.951 38.2065 113.462 38.2065 112.803C38.2065 112.153 38.0765 111.672 37.8165 111.36C37.5565 111.039 37.1881 110.879 36.7115 110.879C36.2261 110.879 35.8491 111.039 35.5805 111.36C35.3205 111.672 35.1905 112.153 35.1905 112.803C35.1905 113.462 35.3205 113.951 35.5805 114.272C35.8405 114.584 36.2175 114.74 36.7115 114.74ZM43.8292 116.235C43.0058 116.235 42.3905 116.005 41.9832 115.546C41.5758 115.087 41.3722 114.393 41.3722 113.466V109.54H43.3352V113.505C43.3352 113.912 43.4175 114.216 43.5822 114.415C43.7555 114.606 44.0198 114.701 44.3752 114.701C44.7738 114.701 45.0988 114.562 45.3502 114.285C45.6015 114.008 45.7272 113.639 45.7272 113.18V109.54H47.7032V116.131H45.7922V114.818L45.9612 114.831C45.7705 115.29 45.4888 115.641 45.1162 115.884C44.7522 116.118 44.3232 116.235 43.8292 116.235ZM49.295 116.131V111.425C49.295 111.113 49.2863 110.801 49.269 110.489C49.2603 110.168 49.2343 109.852 49.191 109.54H51.037L51.245 111.282L51.037 111.178C51.141 110.589 51.388 110.142 51.778 109.839C52.1766 109.536 52.6273 109.384 53.13 109.384C53.2773 109.384 53.4073 109.397 53.52 109.423C53.6413 109.449 53.7453 109.479 53.832 109.514L53.819 111.308C53.4983 111.161 53.1776 111.087 52.857 111.087C52.5016 111.087 52.207 111.152 51.973 111.282C51.7476 111.412 51.57 111.598 51.44 111.841C51.3186 112.075 51.258 112.357 51.258 112.686V116.131H49.295ZM57.0985 116.235C55.8418 116.235 54.8495 115.966 54.1215 115.429L54.6545 114.064C55.0012 114.315 55.3868 114.51 55.8115 114.649C56.2448 114.779 56.6782 114.844 57.1115 114.844C57.4495 114.844 57.7095 114.792 57.8915 114.688C58.0735 114.575 58.1645 114.424 58.1645 114.233C58.1645 114.068 58.0995 113.943 57.9695 113.856C57.8395 113.761 57.6098 113.674 57.2805 113.596L56.2015 113.336C55.5602 113.206 55.0878 112.989 54.7845 112.686C54.4898 112.383 54.3425 111.98 54.3425 111.477C54.3425 111.07 54.4595 110.71 54.6935 110.398C54.9362 110.077 55.2698 109.826 55.6945 109.644C56.1192 109.462 56.6132 109.371 57.1765 109.371C57.6532 109.371 58.1125 109.445 58.5545 109.592C58.9965 109.731 59.3995 109.93 59.7635 110.19L59.2175 111.503C58.8795 111.269 58.5328 111.091 58.1775 110.97C57.8308 110.849 57.4928 110.788 57.1635 110.788C56.8428 110.788 56.5915 110.844 56.4095 110.957C56.2275 111.07 56.1365 111.226 56.1365 111.425C56.1365 111.572 56.1885 111.689 56.2925 111.776C56.4052 111.863 56.6002 111.941 56.8775 112.01L57.9825 112.257C58.6585 112.413 59.1482 112.647 59.4515 112.959C59.7548 113.271 59.9065 113.687 59.9065 114.207C59.9065 114.831 59.6552 115.325 59.1525 115.689C58.6585 116.053 57.9738 116.235 57.0985 116.235ZM66.9123 115.429C66.5916 115.68 66.2016 115.88 65.7423 116.027C65.283 116.166 64.8193 116.235 64.3513 116.235C63.6146 116.235 62.9776 116.096 62.4403 115.819C61.9116 115.542 61.5043 115.147 61.2183 114.636C60.9323 114.125 60.7893 113.518 60.7893 112.816C60.7893 112.14 60.928 111.542 61.2053 111.022C61.4826 110.502 61.8596 110.099 62.3363 109.813C62.8216 109.518 63.385 109.371 64.0263 109.371C64.6416 109.371 65.1746 109.51 65.6253 109.787C66.076 110.056 66.4226 110.441 66.6653 110.944C66.908 111.438 67.0293 112.027 67.0293 112.712V112.998H62.5183L62.5443 112.023H65.8593L65.3523 112.426C65.361 111.871 65.2526 111.455 65.0273 111.178C64.8106 110.892 64.4943 110.749 64.0783 110.749C63.6276 110.749 63.2766 110.914 63.0253 111.243C62.7826 111.564 62.6613 112.036 62.6613 112.66C62.6613 113.397 62.8043 113.93 63.0903 114.259C63.385 114.588 63.8313 114.753 64.4293 114.753C64.776 114.753 65.1183 114.697 65.4563 114.584C65.7943 114.471 66.1063 114.311 66.3923 114.103L66.9123 115.429ZM76.299 116.248C75.3717 116.248 74.57 116.053 73.894 115.663C73.218 115.273 72.6937 114.723 72.321 114.012C71.957 113.301 71.775 112.461 71.775 111.49C71.775 110.528 71.957 109.692 72.321 108.981C72.6937 108.27 73.218 107.724 73.894 107.343C74.57 106.953 75.3717 106.758 76.299 106.758C77.2263 106.758 78.0237 106.953 78.691 107.343C79.367 107.724 79.887 108.27 80.251 108.981C80.615 109.692 80.797 110.528 80.797 111.49C80.797 112.461 80.615 113.301 80.251 114.012C79.887 114.723 79.367 115.273 78.691 115.663C78.0237 116.053 77.2263 116.248 76.299 116.248ZM76.299 114.675C77.0617 114.675 77.664 114.406 78.106 113.869C78.5567 113.323 78.782 112.53 78.782 111.49C78.782 110.45 78.5567 109.666 78.106 109.137C77.664 108.6 77.0617 108.331 76.299 108.331C75.5277 108.331 74.921 108.6 74.479 109.137C74.037 109.666 73.816 110.45 73.816 111.49C73.816 112.539 74.037 113.332 74.479 113.869C74.921 114.406 75.5277 114.675 76.299 114.675ZM82.252 116.131V111.425C82.252 111.113 82.2433 110.801 82.226 110.489C82.2173 110.168 82.1913 109.852 82.148 109.54H83.994L84.202 111.282L83.994 111.178C84.098 110.589 84.345 110.142 84.735 109.839C85.1337 109.536 85.5843 109.384 86.087 109.384C86.2343 109.384 86.3643 109.397 86.477 109.423C86.5983 109.449 86.7023 109.479 86.789 109.514L86.776 111.308C86.4553 111.161 86.1347 111.087 85.814 111.087C85.4587 111.087 85.164 111.152 84.93 111.282C84.7047 111.412 84.527 111.598 84.397 111.841C84.2757 112.075 84.215 112.357 84.215 112.686V116.131H82.252ZM94.0611 116.131H92.1241V114.519L92.2801 114.805C92.1327 115.256 91.8554 115.607 91.4481 115.858C91.0407 116.109 90.5727 116.235 90.0441 116.235C89.4721 116.235 88.9651 116.092 88.5231 115.806C88.0897 115.511 87.7474 115.108 87.4961 114.597C87.2534 114.077 87.1321 113.47 87.1321 112.777C87.1321 112.092 87.2534 111.494 87.4961 110.983C87.7387 110.472 88.0811 110.077 88.5231 109.8C88.9651 109.514 89.4721 109.371 90.0441 109.371C90.5727 109.371 91.0407 109.505 91.4481 109.774C91.8554 110.034 92.1327 110.381 92.2801 110.814L92.0981 111.048V106.563H94.0611V116.131ZM90.6161 114.74C91.0927 114.74 91.4611 114.575 91.7211 114.246C91.9897 113.917 92.1241 113.436 92.1241 112.803C92.1241 112.196 91.9897 111.724 91.7211 111.386C91.4611 111.048 91.0927 110.879 90.6161 110.879C90.1221 110.879 89.7407 111.044 89.4721 111.373C89.2121 111.702 89.0821 112.17 89.0821 112.777C89.0821 113.41 89.2164 113.895 89.4851 114.233C89.7624 114.571 90.1394 114.74 90.6161 114.74ZM101.444 115.429C101.123 115.68 100.733 115.88 100.274 116.027C99.8142 116.166 99.3505 116.235 98.8825 116.235C98.1459 116.235 97.5089 116.096 96.9715 115.819C96.4429 115.542 96.0355 115.147 95.7495 114.636C95.4635 114.125 95.3205 113.518 95.3205 112.816C95.3205 112.14 95.4592 111.542 95.7365 111.022C96.0139 110.502 96.3909 110.099 96.8675 109.813C97.3529 109.518 97.9162 109.371 98.5575 109.371C99.1729 109.371 99.7059 109.51 100.157 109.787C100.607 110.056 100.954 110.441 101.197 110.944C101.439 111.438 101.561 112.027 101.561 112.712V112.998H97.0495L97.0755 112.023H100.391L99.8835 112.426C99.8922 111.871 99.7839 111.455 99.5585 111.178C99.3419 110.892 99.0255 110.749 98.6095 110.749C98.1589 110.749 97.8079 110.914 97.5565 111.243C97.3139 111.564 97.1925 112.036 97.1925 112.66C97.1925 113.397 97.3355 113.93 97.6215 114.259C97.9162 114.588 98.3625 114.753 98.9605 114.753C99.3072 114.753 99.6495 114.697 99.9875 114.584C100.326 114.471 100.638 114.311 100.924 114.103L101.444 115.429ZM102.793 116.131V111.425C102.793 111.113 102.784 110.801 102.767 110.489C102.758 110.168 102.732 109.852 102.689 109.54H104.535L104.743 111.282L104.535 111.178C104.639 110.589 104.886 110.142 105.276 109.839C105.675 109.536 106.125 109.384 106.628 109.384C106.775 109.384 106.905 109.397 107.018 109.423C107.139 109.449 107.243 109.479 107.33 109.514L107.317 111.308C106.996 111.161 106.676 111.087 106.355 111.087C106 111.087 105.705 111.152 105.471 111.282C105.246 111.412 105.068 111.598 104.938 111.841C104.817 112.075 104.756 112.357 104.756 112.686V116.131H102.793ZM114.927 116.235C114.217 116.235 113.601 116.096 113.081 115.819C112.561 115.542 112.158 115.147 111.872 114.636C111.595 114.116 111.456 113.505 111.456 112.803C111.456 112.101 111.595 111.494 111.872 110.983C112.158 110.472 112.561 110.077 113.081 109.8C113.601 109.514 114.217 109.371 114.927 109.371C115.621 109.371 116.227 109.514 116.747 109.8C117.267 110.077 117.666 110.472 117.943 110.983C118.229 111.494 118.372 112.101 118.372 112.803C118.372 113.505 118.229 114.116 117.943 114.636C117.666 115.147 117.267 115.542 116.747 115.819C116.227 116.096 115.621 116.235 114.927 116.235ZM114.927 114.74C115.404 114.74 115.772 114.584 116.032 114.272C116.292 113.951 116.422 113.462 116.422 112.803C116.422 112.153 116.292 111.672 116.032 111.36C115.772 111.039 115.404 110.879 114.927 110.879C114.442 110.879 114.065 111.039 113.796 111.36C113.536 111.672 113.406 112.153 113.406 112.803C113.406 113.462 113.536 113.951 113.796 114.272C114.056 114.584 114.433 114.74 114.927 114.74ZM119.627 116.131V111.425C119.627 111.113 119.618 110.801 119.601 110.489C119.592 110.168 119.566 109.852 119.523 109.54H121.369L121.512 110.827L121.369 110.814C121.594 110.346 121.906 109.991 122.305 109.748C122.712 109.497 123.18 109.371 123.709 109.371C125.26 109.371 126.036 110.294 126.036 112.14V116.131H124.073V112.231C124.073 111.763 123.986 111.425 123.813 111.217C123.648 111.009 123.384 110.905 123.02 110.905C122.587 110.905 122.24 111.044 121.98 111.321C121.72 111.598 121.59 111.971 121.59 112.439V116.131H119.627ZM127.587 116.131V106.563H129.55V116.131H127.587ZM131.115 119.095L130.66 117.587C131.068 117.509 131.401 117.409 131.661 117.288C131.93 117.175 132.151 117.032 132.324 116.859C132.498 116.686 132.641 116.473 132.753 116.222L133.26 115.091L133.78 114.324L135.717 109.54H137.654L134.625 116.469C134.357 117.076 134.049 117.557 133.702 117.912C133.356 118.267 132.966 118.536 132.532 118.718C132.099 118.9 131.627 119.026 131.115 119.095ZM133.312 116.625L130.231 109.54H132.272L134.17 114.324L133.312 116.625ZM145.143 116.131L140.97 106.875H143.089L146.274 114.285H145.676L148.887 106.875H150.941L146.781 116.131H145.143ZM153.33 116.235C152.758 116.235 152.251 116.096 151.809 115.819C151.367 115.542 151.025 115.147 150.782 114.636C150.54 114.125 150.418 113.527 150.418 112.842C150.418 112.157 150.54 111.555 150.782 111.035C151.034 110.506 151.376 110.099 151.809 109.813C152.251 109.518 152.758 109.371 153.33 109.371C153.859 109.371 154.327 109.501 154.734 109.761C155.142 110.021 155.419 110.372 155.566 110.814L155.41 110.918V109.54H157.347V116.131H155.41V114.779L155.566 114.805C155.419 115.256 155.142 115.607 154.734 115.858C154.327 116.109 153.859 116.235 153.33 116.235ZM153.902 114.74C154.379 114.74 154.747 114.575 155.007 114.246C155.276 113.917 155.41 113.44 155.41 112.816C155.41 112.192 155.276 111.715 155.007 111.386C154.747 111.048 154.379 110.879 153.902 110.879C153.426 110.879 153.049 111.052 152.771 111.399C152.503 111.746 152.368 112.227 152.368 112.842C152.368 113.457 152.498 113.93 152.758 114.259C153.027 114.58 153.408 114.74 153.902 114.74ZM158.932 116.131V106.563H160.895V116.131H158.932ZM162.499 116.131V109.54H164.462V116.131H162.499ZM162.421 106.446H164.54V108.292H162.421V106.446ZM172.67 116.131H170.733V114.519L170.889 114.805C170.742 115.256 170.465 115.607 170.057 115.858C169.65 116.109 169.182 116.235 168.653 116.235C168.081 116.235 167.574 116.092 167.132 115.806C166.699 115.511 166.357 115.108 166.105 114.597C165.863 114.077 165.741 113.47 165.741 112.777C165.741 112.092 165.863 111.494 166.105 110.983C166.348 110.472 166.69 110.077 167.132 109.8C167.574 109.514 168.081 109.371 168.653 109.371C169.182 109.371 169.65 109.505 170.057 109.774C170.465 110.034 170.742 110.381 170.889 110.814L170.707 111.048V106.563H172.67V116.131ZM169.225 114.74C169.702 114.74 170.07 114.575 170.33 114.246C170.599 113.917 170.733 113.436 170.733 112.803C170.733 112.196 170.599 111.724 170.33 111.386C170.07 111.048 169.702 110.879 169.225 110.879C168.731 110.879 168.35 111.044 168.081 111.373C167.821 111.702 167.691 112.17 167.691 112.777C167.691 113.41 167.826 113.895 168.094 114.233C168.372 114.571 168.749 114.74 169.225 114.74ZM177.17 111.009V109.54H181.746V111.009H177.17ZM182.006 108.201C181.755 108.14 181.542 108.11 181.369 108.11C181.187 108.11 181.018 108.145 180.862 108.214C180.706 108.283 180.585 108.396 180.498 108.552C180.411 108.708 180.368 108.916 180.368 109.176V116.131H178.405V109.124C178.405 108.301 178.613 107.659 179.029 107.2C179.454 106.732 180.073 106.498 180.888 106.498C181.087 106.498 181.278 106.511 181.46 106.537C181.651 106.563 181.833 106.606 182.006 106.667V108.201ZM185.996 116.235C185.285 116.235 184.67 116.096 184.15 115.819C183.63 115.542 183.227 115.147 182.941 114.636C182.663 114.116 182.525 113.505 182.525 112.803C182.525 112.101 182.663 111.494 182.941 110.983C183.227 110.472 183.63 110.077 184.15 109.8C184.67 109.514 185.285 109.371 185.996 109.371C186.689 109.371 187.296 109.514 187.816 109.8C188.336 110.077 188.734 110.472 189.012 110.983C189.298 111.494 189.441 112.101 189.441 112.803C189.441 113.505 189.298 114.116 189.012 114.636C188.734 115.147 188.336 115.542 187.816 115.819C187.296 116.096 186.689 116.235 185.996 116.235ZM185.996 114.74C186.472 114.74 186.841 114.584 187.101 114.272C187.361 113.951 187.491 113.462 187.491 112.803C187.491 112.153 187.361 111.672 187.101 111.36C186.841 111.039 186.472 110.879 185.996 110.879C185.51 110.879 185.133 111.039 184.865 111.36C184.605 111.672 184.475 112.153 184.475 112.803C184.475 113.462 184.605 113.951 184.865 114.272C185.125 114.584 185.502 114.74 185.996 114.74ZM190.695 116.131V111.425C190.695 111.113 190.687 110.801 190.669 110.489C190.661 110.168 190.635 109.852 190.591 109.54H192.437L192.645 111.282L192.437 111.178C192.541 110.589 192.788 110.142 193.178 109.839C193.577 109.536 194.028 109.384 194.53 109.384C194.678 109.384 194.808 109.397 194.92 109.423C195.042 109.449 195.146 109.479 195.232 109.514L195.219 111.308C194.899 111.161 194.578 111.087 194.257 111.087C193.902 111.087 193.607 111.152 193.373 111.282C193.148 111.412 192.97 111.598 192.84 111.841C192.719 112.075 192.658 112.357 192.658 112.686V116.131H190.695ZM27.055 132.131V124.526H24.156V122.875H32.008V124.526H29.109V132.131H27.055ZM35.0484 132.235C34.3377 132.235 33.7224 132.096 33.2024 131.819C32.6824 131.542 32.2794 131.147 31.9934 130.636C31.716 130.116 31.5774 129.505 31.5774 128.803C31.5774 128.101 31.716 127.494 31.9934 126.983C32.2794 126.472 32.6824 126.077 33.2024 125.8C33.7224 125.514 34.3377 125.371 35.0484 125.371C35.7417 125.371 36.3484 125.514 36.8684 125.8C37.3884 126.077 37.787 126.472 38.0644 126.983C38.3504 127.494 38.4934 128.101 38.4934 128.803C38.4934 129.505 38.3504 130.116 38.0644 130.636C37.787 131.147 37.3884 131.542 36.8684 131.819C36.3484 132.096 35.7417 132.235 35.0484 132.235ZM35.0484 130.74C35.525 130.74 35.8934 130.584 36.1534 130.272C36.4134 129.951 36.5434 129.462 36.5434 128.803C36.5434 128.153 36.4134 127.672 36.1534 127.36C35.8934 127.039 35.525 126.879 35.0484 126.879C34.563 126.879 34.186 127.039 33.9174 127.36C33.6574 127.672 33.5274 128.153 33.5274 128.803C33.5274 129.462 33.6574 129.951 33.9174 130.272C34.1774 130.584 34.5544 130.74 35.0484 130.74ZM46.3521 132.131H44.4151V130.519L44.5711 130.805C44.4237 131.256 44.1464 131.607 43.7391 131.858C43.3317 132.109 42.8637 132.235 42.3351 132.235C41.7631 132.235 41.2561 132.092 40.8141 131.806C40.3807 131.511 40.0384 131.108 39.7871 130.597C39.5444 130.077 39.4231 129.47 39.4231 128.777C39.4231 128.092 39.5444 127.494 39.7871 126.983C40.0297 126.472 40.3721 126.077 40.8141 125.8C41.2561 125.514 41.7631 125.371 42.3351 125.371C42.8637 125.371 43.3317 125.505 43.7391 125.774C44.1464 126.034 44.4237 126.381 44.5711 126.814L44.3891 127.048V122.563H46.3521V132.131ZM42.9071 130.74C43.3837 130.74 43.7521 130.575 44.0121 130.246C44.2807 129.917 44.4151 129.436 44.4151 128.803C44.4151 128.196 44.2807 127.724 44.0121 127.386C43.7521 127.048 43.3837 126.879 42.9071 126.879C42.4131 126.879 42.0317 127.044 41.7631 127.373C41.5031 127.702 41.3731 128.17 41.3731 128.777C41.3731 129.41 41.5074 129.895 41.7761 130.233C42.0534 130.571 42.4304 130.74 42.9071 130.74ZM50.5236 132.235C49.9516 132.235 49.4446 132.096 49.0026 131.819C48.5606 131.542 48.2182 131.147 47.9756 130.636C47.7329 130.125 47.6116 129.527 47.6116 128.842C47.6116 128.157 47.7329 127.555 47.9756 127.035C48.2269 126.506 48.5692 126.099 49.0026 125.813C49.4446 125.518 49.9516 125.371 50.5236 125.371C51.0522 125.371 51.5202 125.501 51.9276 125.761C52.3349 126.021 52.6122 126.372 52.7596 126.814L52.6036 126.918V125.54H54.5406V132.131H52.6036V130.779L52.7596 130.805C52.6122 131.256 52.3349 131.607 51.9276 131.858C51.5202 132.109 51.0522 132.235 50.5236 132.235ZM51.0956 130.74C51.5722 130.74 51.9406 130.575 52.2006 130.246C52.4692 129.917 52.6036 129.44 52.6036 128.816C52.6036 128.192 52.4692 127.715 52.2006 127.386C51.9406 127.048 51.5722 126.879 51.0956 126.879C50.6189 126.879 50.2419 127.052 49.9646 127.399C49.6959 127.746 49.5616 128.227 49.5616 128.842C49.5616 129.457 49.6916 129.93 49.9516 130.259C50.2202 130.58 50.6016 130.74 51.0956 130.74ZM56.086 135.095L55.631 133.587C56.0384 133.509 56.372 133.409 56.632 133.288C56.9007 133.175 57.1217 133.032 57.295 132.859C57.4684 132.686 57.6114 132.473 57.724 132.222L58.231 131.091L58.751 130.324L60.688 125.54H62.625L59.596 132.469C59.3274 133.076 59.0197 133.557 58.673 133.912C58.3264 134.267 57.9364 134.536 57.503 134.718C57.0697 134.9 56.5974 135.026 56.086 135.095ZM58.283 132.625L55.202 125.54H57.243L59.141 130.324L58.283 132.625ZM62.596 130.038H64.728V132.131H62.596V130.038ZM66.479 129.154L65.868 122.862L68.286 122.875L67.675 129.154H66.479ZM66.011 130.038H68.143V132.131H66.011V130.038Z" fill="white"/>
</svg>
