<svg width="125" height="69" viewBox="0 0 125 69" fill="none" xmlns="http://www.w3.org/2000/svg">
<path fill-rule="evenodd" clip-rule="evenodd" d="M83.0852 18.0519V23.9482L78.8823 24.3691V24.3701C77.3912 23.3483 75.6253 22.8029 73.8178 22.8061C73.667 22.8061 73.5175 22.8097 73.3684 22.8169V22.8097C74.1534 18.3015 71.925 13.8052 67.8623 11.6999C63.7996 9.59412 58.841 10.3655 55.6101 13.6058C52.3791 16.8461 51.6223 21.8072 53.7394 25.8635C55.8569 29.92 60.3597 32.1356 64.8653 31.3374C64.8582 31.4726 64.8554 31.6095 64.8554 31.7465C64.8525 33.5334 65.3886 35.2792 66.3939 36.7564L65.9746 41.1116H60.0783L59.6563 36.7418C57.7444 36.3184 55.9246 35.5513 54.2868 34.4774L50.9178 37.2679L46.7577 33.1089L49.5483 29.7396C48.4658 28.1061 47.6984 26.2846 47.2846 24.3691L42.9149 23.9482V18.0519L47.2846 17.6311C47.7084 15.7186 48.4752 13.899 49.5483 12.2605L46.7577 8.89116L50.9178 4.73216L54.2868 7.52269C55.92 6.43982 57.741 5.67195 59.6563 5.25825L60.0783 0.888428H65.9746L66.3957 5.25825C68.3081 5.68163 70.1278 6.44877 71.7663 7.52269L75.1353 4.73216L79.2422 8.89116L76.4517 12.2605C77.5341 13.894 78.3017 15.7154 78.7154 17.6311L83.0852 18.0519Z" fill="#00ACEA"/>
<path fill-rule="evenodd" clip-rule="evenodd" d="M66.3939 36.7565C65.3885 35.2791 64.8524 33.5333 64.8552 31.7465C64.8552 31.6095 64.8582 31.4726 64.8653 31.3374C65.0814 26.7308 68.7624 23.0426 73.3684 22.8168C73.5175 22.8097 73.6668 22.8062 73.8178 22.8062C78.0741 22.8151 81.7341 25.8235 82.5665 29.9978C83.399 34.1721 81.1734 38.3546 77.2459 39.9957C73.3188 41.6369 68.7789 40.282 66.3939 36.7565Z" fill="#FEDB41"/>
<mask id="mask0_0_1042" style="mask-type:luminance" maskUnits="userSpaceOnUse" x="42" y="0" width="42" height="42">
<path fill-rule="evenodd" clip-rule="evenodd" d="M42 0H84V42H42V0Z" fill="white"/>
</mask>
<g mask="url(#mask0_0_1042)">
<path fill-rule="evenodd" clip-rule="evenodd" d="M82.1739 23.1222L79.1131 23.4289C77.6975 22.529 76.0754 22.0065 74.4005 21.9116C74.4248 21.6089 74.4373 21.3047 74.4373 21.0004C74.4373 14.6982 69.3282 9.58949 63.0264 9.58949C56.7243 9.58949 51.6154 14.6986 51.6154 21.0004C51.6154 27.3025 56.7247 32.4113 63.0264 32.4113C63.3381 32.4113 63.6513 32.3981 63.9634 32.3724C64.0646 34.0077 64.5775 35.5909 65.4542 36.9751L65.1457 40.174H60.9075L60.5651 36.6416C60.5266 36.2479 60.2366 35.9244 59.8493 35.843C58.0453 35.4432 56.3288 34.7196 54.7826 33.7074C54.4477 33.492 54.0115 33.5183 53.7051 33.7726L50.9753 36.0335L47.9911 33.0504L50.2513 30.3223C50.5085 30.0117 50.5316 29.5691 50.308 29.2335C49.2897 27.6949 48.5672 25.9801 48.1769 24.1765C48.0927 23.788 47.7671 23.4988 47.3713 23.4606L43.8261 23.119V18.8812L47.3713 18.5399C47.7671 18.5017 48.0927 18.2121 48.1766 17.8237C48.5782 16.019 49.3025 14.3021 50.3151 12.7552C50.5313 12.4207 50.5052 11.9845 50.2513 11.6777L47.9911 8.94935L50.9753 5.96589L53.7041 8.22604C54.0151 8.48315 54.4577 8.50598 54.7933 8.28238C56.3316 7.26378 58.046 6.54084 59.8493 6.1506C60.2359 6.07217 60.5262 5.75078 60.5651 5.35854L60.9075 1.82615H65.1457L65.4869 5.35817C65.5255 5.75224 65.8155 6.07573 66.2031 6.15708C68.0075 6.55681 69.7247 7.28049 71.2713 8.29269C71.6062 8.50854 72.0423 8.48178 72.3487 8.22741L75.0735 5.96982L78.0124 8.94543L75.7487 11.6777C75.4915 11.9884 75.4687 12.431 75.6924 12.7666C76.7103 14.3053 77.4328 16.0201 77.8231 17.8237C77.9073 18.2121 78.2332 18.5013 78.6287 18.5395L82.1739 18.8812V23.1222ZM73.8177 39.7742C71.1468 39.7756 68.6487 38.4531 67.1487 36.2429C66.2467 34.9172 65.7655 33.3501 65.7683 31.7465C65.7683 31.6131 65.7713 31.4954 65.7777 31.3784C65.9728 27.2423 69.2779 23.9314 73.4137 23.7289C73.5467 23.7224 73.6826 23.7192 73.8177 23.7192C78.2568 23.7142 81.86 27.3076 81.8672 31.7465C81.8672 36.1729 78.2564 39.7742 73.8177 39.7742ZM64.0176 30.5321C63.6883 30.5667 63.3574 30.5845 63.0264 30.5852C57.7328 30.5859 53.4409 26.2946 53.4405 21.0012C53.4398 15.7072 57.7311 11.4156 63.0247 11.4149C68.3185 11.4146 72.6101 15.7055 72.6109 20.9993V21.0001C72.6101 21.3249 72.593 21.6499 72.5598 21.973C68.0927 22.5419 64.5778 26.0639 64.0176 30.5321ZM83.1736 17.1432L79.453 16.7847C79.0464 15.2176 78.4151 13.7175 77.5787 12.3315L79.9455 9.47362C80.2444 9.1127 80.2212 8.58377 79.892 8.25024L75.7851 4.09059C75.4524 3.7535 74.9173 3.72675 74.5528 4.02887L71.6896 6.40068C70.3033 5.56717 68.8057 4.93443 67.2421 4.52146L66.8836 0.812493C66.8369 0.347115 66.4424 -0.00559368 65.9745 6.71866e-05H60.0783C59.6103 -0.00559368 59.2159 0.347115 59.1695 0.812493L58.8103 4.52675C57.2435 4.9326 55.7438 5.56288 54.3579 6.39849L51.4999 4.0307C51.1372 3.73003 50.6054 3.75459 50.272 4.0874L46.1123 8.24594C45.7792 8.57911 45.7542 9.11087 46.0545 9.47399L48.4263 12.3372C47.5935 13.7239 46.9611 15.2211 46.5481 16.7847L42.8264 17.1432C42.3581 17.1881 42.0004 17.5815 42 18.0519V23.9482C42.0004 24.4186 42.3581 24.812 42.8264 24.8569L46.547 25.2154C46.9536 26.7826 47.5849 28.2827 48.4213 29.6686L46.0545 32.5265C45.7542 32.8893 45.7792 33.4214 46.1123 33.7545L50.272 37.9135C50.6051 38.2465 51.1372 38.2716 51.4999 37.9709L54.3635 35.5994C55.7492 36.433 57.2464 37.0657 58.81 37.4787L59.1691 41.1872C59.2155 41.653 59.6103 42.0057 60.0783 42.0001H65.9745C66.4428 42.0057 66.8372 41.6527 66.8836 41.1869L67.0984 38.9606C68.9255 40.6551 71.3255 41.597 73.8177 41.597C79.2632 41.597 83.6933 37.178 83.6933 31.7454C83.6926 29.2691 82.7581 26.8842 81.0764 25.0667L83.1772 24.8566C83.6441 24.8102 84 24.4176 84 23.9482V18.0519C83.9996 17.5815 83.6419 17.1881 83.1736 17.1432Z" fill="#083863"/>
</g>
<path fill-rule="evenodd" clip-rule="evenodd" d="M74.0478 26.144C73.5435 26.144 73.1347 26.5528 73.1347 27.0571V31.6094L70.9313 33.7964C70.5725 34.1506 70.5689 34.7288 70.9231 35.0876C71.2759 35.4425 71.8494 35.4442 72.2043 35.0915L72.2082 35.0876L74.6776 32.633C74.8535 32.4637 74.9552 32.2315 74.9608 31.9875V27.0571C74.9608 26.5528 74.5521 26.144 74.0478 26.144Z" fill="#083863"/>
<path d="M6.26665 65.112C5.29598 65.112 4.45598 64.9067 3.74665 64.496C3.03732 64.0853 2.49132 63.4973 2.10865 62.732C1.72598 61.9667 1.53465 61.0613 1.53465 60.016C1.53465 58.9613 1.72598 58.056 2.10865 57.3C2.49132 56.5347 3.03732 55.9467 3.74665 55.536C4.45598 55.1253 5.29598 54.92 6.26665 54.92C7.24665 54.92 8.09132 55.1253 8.80065 55.536C9.50998 55.9467 10.056 56.5347 10.4386 57.3C10.8213 58.056 11.0126 58.9567 11.0126 60.002C11.0126 61.0567 10.8166 61.9667 10.4246 62.732C10.042 63.4973 9.49598 64.0853 8.78665 64.496C8.08665 64.9067 7.24665 65.112 6.26665 65.112ZM6.26665 63.684C7.18132 63.684 7.89998 63.3713 8.42265 62.746C8.94532 62.1113 9.20665 61.1967 9.20665 60.002C9.20665 58.8073 8.94532 57.902 8.42265 57.286C7.89998 56.6607 7.18132 56.348 6.26665 56.348C5.36132 56.348 4.64732 56.6607 4.12465 57.286C3.60198 57.902 3.34065 58.8073 3.34065 60.002C3.34065 61.1967 3.60198 62.1113 4.12465 62.746C4.64732 63.3713 5.36132 63.684 6.26665 63.684ZM11.8542 59.246V57.93H16.5162V59.246H11.8542ZM16.7682 56.194C16.5068 56.1193 16.2735 56.082 16.0682 56.082C15.8628 56.082 15.6715 56.124 15.4942 56.208C15.3262 56.2827 15.1908 56.4133 15.0882 56.6C14.9948 56.7773 14.9482 57.02 14.9482 57.328V65H13.1982V57.244C13.1982 56.404 13.4082 55.76 13.8282 55.312C14.2575 54.864 14.8688 54.64 15.6622 54.64C15.8582 54.64 16.0495 54.6493 16.2362 54.668C16.4228 54.6867 16.6002 54.7287 16.7682 54.794V56.194ZM22.7658 54.654H24.7398V56.418H22.7658V54.654ZM24.6278 57.93V65H22.8778V59.246H16.8718V57.93H24.6278ZM18.2298 65V57.216C18.2298 56.5907 18.3278 56.0913 18.5238 55.718C18.7198 55.3447 19.0418 55.074 19.4898 54.906C19.9378 54.738 20.5398 54.654 21.2958 54.654H21.8278V55.942H21.4778C21.0578 55.942 20.7404 55.9793 20.5258 56.054C20.3111 56.1193 20.1664 56.2593 20.0918 56.474C20.0171 56.6793 19.9798 56.992 19.9798 57.412V65H18.2298ZM29.7094 65.098C28.9721 65.098 28.3328 64.9533 27.7914 64.664C27.2594 64.3653 26.8488 63.9453 26.5594 63.404C26.2794 62.8533 26.1394 62.2093 26.1394 61.472C26.1394 60.7253 26.2888 60.072 26.5874 59.512C26.8861 58.952 27.3108 58.518 27.8614 58.21C28.4121 57.902 29.0561 57.748 29.7934 57.748C30.2881 57.748 30.7688 57.8273 31.2354 57.986C31.7114 58.1447 32.0988 58.364 32.3974 58.644L31.8934 59.876C31.5948 59.6333 31.2774 59.4513 30.9414 59.33C30.6054 59.1993 30.2694 59.134 29.9334 59.134C29.3174 59.134 28.8274 59.33 28.4634 59.722C28.1088 60.114 27.9314 60.688 27.9314 61.444C27.9314 62.1907 28.1088 62.76 28.4634 63.152C28.8181 63.544 29.3128 63.74 29.9474 63.74C30.2741 63.74 30.6054 63.6793 30.9414 63.558C31.2774 63.4273 31.5948 63.236 31.8934 62.984L32.3974 64.216C32.0894 64.496 31.6928 64.7153 31.2074 64.874C30.7314 65.0233 30.2321 65.098 29.7094 65.098ZM39.6341 64.216C39.2981 64.496 38.8828 64.7153 38.3881 64.874C37.9028 65.0233 37.4081 65.098 36.9041 65.098C36.1388 65.098 35.4761 64.9533 34.9161 64.664C34.3655 64.3747 33.9408 63.9547 33.6421 63.404C33.3435 62.8533 33.1941 62.2 33.1941 61.444C33.1941 60.716 33.3388 60.0767 33.6281 59.526C33.9175 58.966 34.3188 58.532 34.8321 58.224C35.3455 57.9067 35.9381 57.748 36.6101 57.748C37.2635 57.748 37.8235 57.8927 38.2901 58.182C38.7568 58.462 39.1161 58.868 39.3681 59.4C39.6295 59.932 39.7601 60.562 39.7601 61.29V61.556H34.7341L34.7481 60.618H38.7241L38.2481 61.094C38.2575 60.4127 38.1221 59.8947 37.8421 59.54C37.5715 59.1853 37.1748 59.008 36.6521 59.008C36.0921 59.008 35.6581 59.2087 35.3501 59.61C35.0421 60.002 34.8881 60.5667 34.8881 61.304C34.8881 62.144 35.0608 62.7647 35.4061 63.166C35.7515 63.558 36.2741 63.754 36.9741 63.754C37.3568 63.754 37.7301 63.6933 38.0941 63.572C38.4675 63.4413 38.8128 63.2547 39.1301 63.012L39.6341 64.216ZM45.2098 65V55.032H49.5358C50.6185 55.032 51.4538 55.2933 52.0418 55.816C52.6392 56.3293 52.9378 57.034 52.9378 57.93C52.9378 58.8167 52.6345 59.5213 52.0278 60.044C51.4305 60.5667 50.5998 60.828 49.5358 60.828H47.0158V65H45.2098ZM47.0158 59.442H49.3258C49.9605 59.442 50.4318 59.3113 50.7398 59.05C51.0572 58.7887 51.2158 58.42 51.2158 57.944C51.2158 57.4587 51.0618 57.09 50.7538 56.838C50.4458 56.5767 49.9698 56.446 49.3258 56.446H47.0158V59.442ZM54.2573 65V59.932C54.2573 59.6053 54.248 59.274 54.2293 58.938C54.22 58.5927 54.192 58.2567 54.1453 57.93H55.7973L55.9933 59.75L55.7973 59.652C55.9187 59.0267 56.194 58.5553 56.6233 58.238C57.0527 57.9207 57.538 57.762 58.0793 57.762C58.2193 57.762 58.35 57.7713 58.4713 57.79C58.5927 57.8087 58.7 57.8367 58.7933 57.874L58.7653 59.47C58.476 59.3487 58.168 59.288 57.8413 59.288C57.4213 59.288 57.076 59.372 56.8053 59.54C56.544 59.708 56.3433 59.9367 56.2033 60.226C56.0727 60.506 56.0073 60.8233 56.0073 61.178V65H54.2573ZM62.823 65.098C62.0857 65.098 61.4464 64.9487 60.905 64.65C60.373 64.3513 59.9624 63.9313 59.673 63.39C59.3837 62.8393 59.239 62.186 59.239 61.43C59.239 60.6833 59.3837 60.0347 59.673 59.484C59.9624 58.924 60.373 58.4947 60.905 58.196C61.4464 57.8973 62.0857 57.748 62.823 57.748C63.5417 57.748 64.167 57.8973 64.699 58.196C65.2404 58.4947 65.6557 58.924 65.945 59.484C66.2437 60.0347 66.393 60.6833 66.393 61.43C66.393 62.186 66.2437 62.8393 65.945 63.39C65.6557 63.9313 65.2404 64.3513 64.699 64.65C64.167 64.9487 63.5417 65.098 62.823 65.098ZM62.823 63.754C63.4017 63.754 63.845 63.5627 64.153 63.18C64.4704 62.788 64.629 62.2047 64.629 61.43C64.629 60.6647 64.4704 60.0907 64.153 59.708C63.845 59.316 63.4017 59.12 62.823 59.12C62.235 59.12 61.7777 59.316 61.451 59.708C61.1337 60.0907 60.975 60.6647 60.975 61.43C60.975 62.2047 61.1337 62.788 61.451 63.18C61.7684 63.5627 62.2257 63.754 62.823 63.754ZM74.6642 65H72.9422V63.208L73.1102 63.46C72.9515 63.9827 72.6482 64.3887 72.2002 64.678C71.7615 64.958 71.2435 65.098 70.6462 65.098C70.0302 65.098 69.4842 64.9487 69.0082 64.65C68.5415 64.342 68.1775 63.908 67.9162 63.348C67.6549 62.788 67.5242 62.1393 67.5242 61.402C67.5242 60.6647 67.6502 60.0207 67.9022 59.47C68.1635 58.9193 68.5322 58.4947 69.0082 58.196C69.4842 57.8973 70.0302 57.748 70.6462 57.748C71.2435 57.748 71.7615 57.8973 72.2002 58.196C72.6482 58.4947 72.9515 58.896 73.1102 59.4L72.9142 59.61V54.696H74.6642V65ZM71.1222 63.754C71.7009 63.754 72.1489 63.5533 72.4662 63.152C72.7835 62.7507 72.9422 62.1767 72.9422 61.43C72.9422 60.6927 72.7835 60.1233 72.4662 59.722C72.1489 59.3207 71.7009 59.12 71.1222 59.12C70.5342 59.12 70.0769 59.3207 69.7502 59.722C69.4235 60.114 69.2602 60.674 69.2602 61.402C69.2602 62.1487 69.4235 62.7273 69.7502 63.138C70.0769 63.5487 70.5342 63.754 71.1222 63.754ZM79.1182 65.098C78.2502 65.098 77.5968 64.86 77.1582 64.384C76.7288 63.8987 76.5142 63.1707 76.5142 62.2V57.93H78.2642V62.214C78.2642 62.7273 78.3715 63.1053 78.5862 63.348C78.8008 63.5907 79.1228 63.712 79.5522 63.712C80.0655 63.712 80.4762 63.544 80.7842 63.208C81.0922 62.872 81.2462 62.424 81.2462 61.864V57.93H83.0102V65H81.3022V63.544L81.4842 63.53C81.2788 64.0433 80.9708 64.4353 80.5602 64.706C80.1495 64.9673 79.6688 65.098 79.1182 65.098ZM88.0883 65.098C87.351 65.098 86.7117 64.9533 86.1703 64.664C85.6383 64.3653 85.2277 63.9453 84.9383 63.404C84.6583 62.8533 84.5183 62.2093 84.5183 61.472C84.5183 60.7253 84.6677 60.072 84.9663 59.512C85.265 58.952 85.6897 58.518 86.2403 58.21C86.791 57.902 87.435 57.748 88.1723 57.748C88.667 57.748 89.1477 57.8273 89.6143 57.986C90.0903 58.1447 90.4777 58.364 90.7763 58.644L90.2723 59.876C89.9737 59.6333 89.6563 59.4513 89.3203 59.33C88.9843 59.1993 88.6483 59.134 88.3123 59.134C87.6963 59.134 87.2063 59.33 86.8423 59.722C86.4877 60.114 86.3103 60.688 86.3103 61.444C86.3103 62.1907 86.4877 62.76 86.8423 63.152C87.197 63.544 87.6917 63.74 88.3263 63.74C88.653 63.74 88.9843 63.6793 89.3203 63.558C89.6563 63.4273 89.9737 63.236 90.2723 62.984L90.7763 64.216C90.4683 64.496 90.0717 64.7153 89.5863 64.874C89.1103 65.0233 88.611 65.098 88.0883 65.098ZM91.11 59.246V57.93H96.094V59.246H91.11ZM96.094 63.544V64.93C95.9074 64.9953 95.7207 65.0373 95.534 65.056C95.3567 65.084 95.1654 65.098 94.96 65.098C94.1667 65.098 93.5507 64.874 93.112 64.426C92.6827 63.978 92.468 63.334 92.468 62.494V56.208L94.218 55.62V62.41C94.218 62.7273 94.2694 62.9793 94.372 63.166C94.4747 63.3433 94.61 63.4693 94.778 63.544C94.9554 63.6187 95.1514 63.656 95.366 63.656C95.4874 63.656 95.604 63.6467 95.716 63.628C95.828 63.6093 95.954 63.5813 96.094 63.544ZM97.2827 65V57.93H99.0327V65H97.2827ZM97.1987 54.724H99.1447V56.446H97.1987V54.724ZM103.005 65L99.9534 57.944H101.787L104.013 63.474H103.621L105.889 57.944H107.625L104.531 65H103.005ZM108.521 65V57.93H110.271V65H108.521ZM108.437 54.724H110.383V56.446H108.437V54.724ZM111.29 59.246V57.93H116.274V59.246H111.29ZM116.274 63.544V64.93C116.087 64.9953 115.9 65.0373 115.714 65.056C115.536 65.084 115.345 65.098 115.14 65.098C114.346 65.098 113.73 64.874 113.292 64.426C112.862 63.978 112.648 63.334 112.648 62.494V56.208L114.398 55.62V62.41C114.398 62.7273 114.449 62.9793 114.552 63.166C114.654 63.3433 114.79 63.4693 114.958 63.544C115.135 63.6187 115.331 63.656 115.546 63.656C115.667 63.656 115.784 63.6467 115.896 63.628C116.008 63.6093 116.134 63.5813 116.274 63.544ZM117.418 68.178L117.026 66.834C117.464 66.7407 117.828 66.6287 118.118 66.498C118.407 66.3767 118.645 66.218 118.832 66.022C119.028 65.826 119.191 65.574 119.322 65.266L119.826 64.118L120.274 63.474L122.542 57.93H124.278L121.002 65.476C120.731 66.092 120.418 66.582 120.064 66.946C119.709 67.3193 119.308 67.5993 118.86 67.786C118.421 67.9727 117.94 68.1033 117.418 68.178ZM119.868 65.462L116.606 57.93H118.44L120.666 63.474L119.868 65.462Z" fill="#202244" fill-opacity="0.8"/>
</svg>
