<svg width="152" height="85" viewBox="0 0 152 85" fill="none" xmlns="http://www.w3.org/2000/svg">
<path fill-rule="evenodd" clip-rule="evenodd" d="M46 40.001H50V0H46V40.001Z" fill="#41EAD4"/>
<path fill-rule="evenodd" clip-rule="evenodd" d="M54 40.001H58V10.001H54V40.001Z" fill="#FF9F1C"/>
<path fill-rule="evenodd" clip-rule="evenodd" d="M62 40.001H66V6.00098H62V40.001Z" fill="#1B98E0"/>
<path fill-rule="evenodd" clip-rule="evenodd" d="M70 40.001H74V22.001H70V40.001Z" fill="#F71735"/>
<path fill-rule="evenodd" clip-rule="evenodd" d="M78 42.001H46V40.001H77V20.001C77 19.45 77.449 19.001 78 19.001C78.551 19.001 79 19.45 79 20.001V41.001C79 41.552 78.551 42.001 78 42.001Z" fill="#4F5D75"/>
<path fill-rule="evenodd" clip-rule="evenodd" d="M60.9219 51.9112C55.7769 51.0672 54.9339 50.2242 54.0899 45.0792C54.0819 45.0322 54.0469 45.0012 53.9999 45.0012C53.9529 45.0012 53.9179 45.0322 53.9099 45.0792C53.0659 50.2242 52.2229 51.0672 47.0779 51.9112C47.0309 51.9192 46.9999 51.9542 46.9999 52.0012C46.9999 52.0482 47.0309 52.0832 47.0779 52.0912C52.2229 52.9342 53.0659 53.7782 53.9099 58.9232C53.9179 58.9702 53.9529 59.0012 53.9999 59.0012C54.0469 59.0012 54.0819 58.9702 54.0899 58.9232C54.9339 53.7782 55.7769 52.9342 60.9219 52.0912C60.9689 52.0832 60.9999 52.0482 60.9999 52.0012C60.9999 51.9542 60.9689 51.9192 60.9219 51.9112ZM104.922 7.91122C99.7769 7.06722 98.9339 6.22422 98.0899 1.07922C98.0819 1.03222 98.0469 1.00122 97.9999 1.00122C97.9529 1.00122 97.9179 1.03222 97.9099 1.07922C97.0669 6.22422 96.2229 7.06722 91.0779 7.91122C91.0309 7.91922 90.9999 7.95422 90.9999 8.00122C90.9999 8.04822 91.0309 8.08322 91.0779 8.09122C96.2229 8.93522 97.0669 9.77822 97.9099 14.9232C97.9179 14.9702 97.9529 15.0012 97.9999 15.0012C98.0469 15.0012 98.0819 14.9702 98.0899 14.9232C98.9339 9.77822 99.7769 8.93522 104.922 8.09122C104.969 8.08322 105 8.04822 105 8.00122C105 7.95422 104.969 7.91922 104.922 7.91122Z" fill="#1B98E0"/>
<path fill-rule="evenodd" clip-rule="evenodd" d="M89.7109 42.001H96.2889C101.652 42.001 106 46.349 106 51.712V60.001H79.9999V51.712C79.9999 46.349 84.3479 42.001 89.7109 42.001Z" fill="#2D3142"/>
<path fill-rule="evenodd" clip-rule="evenodd" d="M96.1094 52.001L93.0004 47.716L89.8904 52.001L89.0004 42.001H97.0004L96.1094 52.001Z" fill="#247BA0"/>
<path fill-rule="evenodd" clip-rule="evenodd" d="M93 48.001L95 42.001H91L93 48.001Z" fill="#F71735"/>
<path fill-rule="evenodd" clip-rule="evenodd" d="M101 60.001H99V51.001C99 50.45 99.449 50.001 100 50.001C100.551 50.001 101 50.45 101 51.001V60.001ZM87 60.001H85V51.001C85 50.45 85.449 50.001 86 50.001C86.551 50.001 87 50.45 87 51.001V60.001Z" fill="#4F5D75"/>
<path fill-rule="evenodd" clip-rule="evenodd" d="M99.9219 30.8799V31.4309C101.152 31.5209 102.082 32.5869 102 33.8209C102.008 34.4429 101.789 35.0439 101.391 35.5209C101.027 35.9579 100.488 36.2159 99.9219 36.2199C99.8519 38.5599 98.4769 40.6609 96.3589 41.6609L94.4609 42.6499C93.5429 43.1179 92.4569 43.1179 91.5389 42.6499L89.6409 41.6609C88.5859 41.1299 87.6879 40.3329 87.0309 39.3529C86.4139 38.4229 86.0859 37.3329 86.0779 36.2199C84.8869 36.0519 83.9999 35.0319 83.9999 33.8249C83.9999 32.6219 84.8869 31.5989 86.0779 31.4309V31.0009L94.6019 29.0009H97.0119L99.9219 30.8799Z" fill="#FFBF69"/>
<path fill-rule="evenodd" clip-rule="evenodd" d="M101 32.001C99.574 31.989 98.219 31.368 97.273 30.302L96 31.001L95.91 29.001C94.105 30.962 91.547 32.052 88.887 32.001H85V29.603C85 25.622 87.93 24.001 91.547 24.001H94.453C98.07 24.001 101 25.626 101 29.603V32.001Z" fill="#2D3142"/>
<path d="M1.58777 81.001V71.033H5.91377C6.99643 71.033 7.83177 71.2943 8.41977 71.817C9.0171 72.3303 9.31577 73.035 9.31577 73.931C9.31577 74.8176 9.01243 75.5223 8.40577 76.045C7.80843 76.5676 6.97777 76.829 5.91377 76.829H3.39377V81.001H1.58777ZM3.39377 75.443H5.70377C6.33843 75.443 6.80977 75.3123 7.11777 75.051C7.4351 74.7896 7.59377 74.421 7.59377 73.945C7.59377 73.4596 7.43977 73.091 7.13177 72.839C6.82377 72.5776 6.34777 72.447 5.70377 72.447H3.39377V75.443ZM16.5882 80.217C16.2522 80.497 15.8369 80.7163 15.3422 80.875C14.8569 81.0243 14.3622 81.099 13.8582 81.099C13.0929 81.099 12.4302 80.9543 11.8702 80.665C11.3196 80.3756 10.8949 79.9556 10.5962 79.405C10.2976 78.8543 10.1482 78.201 10.1482 77.445C10.1482 76.717 10.2929 76.0776 10.5822 75.527C10.8716 74.967 11.2729 74.533 11.7862 74.225C12.2996 73.9076 12.8922 73.749 13.5642 73.749C14.2176 73.749 14.7776 73.8936 15.2442 74.183C15.7109 74.463 16.0702 74.869 16.3222 75.401C16.5836 75.933 16.7142 76.563 16.7142 77.291V77.557H11.6882L11.7022 76.619H15.6782L15.2022 77.095C15.2116 76.4136 15.0762 75.8956 14.7962 75.541C14.5256 75.1863 14.1289 75.009 13.6062 75.009C13.0462 75.009 12.6122 75.2096 12.3042 75.611C11.9962 76.003 11.8422 76.5676 11.8422 77.305C11.8422 78.145 12.0149 78.7656 12.3602 79.167C12.7056 79.559 13.2282 79.755 13.9282 79.755C14.3109 79.755 14.6842 79.6943 15.0482 79.573C15.4216 79.4423 15.7669 79.2556 16.0842 79.013L16.5882 80.217ZM18.1821 81.001V75.933C18.1821 75.6063 18.1728 75.275 18.1541 74.939C18.1448 74.5936 18.1168 74.2576 18.0701 73.931H19.7221L19.9181 75.751L19.7221 75.653C19.8435 75.0276 20.1188 74.5563 20.5481 74.239C20.9775 73.9216 21.4628 73.763 22.0041 73.763C22.1441 73.763 22.2748 73.7723 22.3961 73.791C22.5175 73.8096 22.6248 73.8376 22.7181 73.875L22.6901 75.471C22.4008 75.3496 22.0928 75.289 21.7661 75.289C21.3461 75.289 21.0008 75.373 20.7301 75.541C20.4688 75.709 20.2681 75.9376 20.1281 76.227C19.9975 76.507 19.9321 76.8243 19.9321 77.179V81.001H18.1821ZM26.2002 81.099C24.9122 81.099 23.8949 80.805 23.1482 80.217L23.6382 78.985C24.0115 79.265 24.4175 79.475 24.8562 79.615C25.2949 79.755 25.7522 79.825 26.2282 79.825C26.6575 79.825 26.9842 79.755 27.2082 79.615C27.4322 79.475 27.5442 79.279 27.5442 79.027C27.5442 78.8123 27.4649 78.6443 27.3062 78.523C27.1475 78.3923 26.8769 78.2803 26.4942 78.187L25.3182 77.921C24.6742 77.781 24.1889 77.5476 23.8622 77.221C23.5449 76.885 23.3862 76.4603 23.3862 75.947C23.3862 75.5176 23.5075 75.1396 23.7502 74.813C23.9929 74.477 24.3335 74.2156 24.7722 74.029C25.2109 73.8423 25.7195 73.749 26.2982 73.749C26.8022 73.749 27.2875 73.8283 27.7542 73.987C28.2209 74.1363 28.6269 74.3556 28.9722 74.645L28.4682 75.849C28.1135 75.5783 27.7495 75.3776 27.3762 75.247C27.0122 75.1163 26.6482 75.051 26.2842 75.051C25.8829 75.051 25.5702 75.1256 25.3462 75.275C25.1222 75.4243 25.0102 75.6296 25.0102 75.891C25.0102 76.0963 25.0755 76.2596 25.2062 76.381C25.3462 76.5023 25.5842 76.6003 25.9202 76.675L27.1102 76.969C27.8102 77.1183 28.3189 77.361 28.6362 77.697C28.9629 78.0236 29.1262 78.4576 29.1262 78.999C29.1262 79.643 28.8649 80.1563 28.3422 80.539C27.8195 80.9123 27.1055 81.099 26.2002 81.099ZM33.8299 81.099C33.0925 81.099 32.4532 80.9496 31.9119 80.651C31.3799 80.3523 30.9692 79.9323 30.6799 79.391C30.3905 78.8403 30.2459 78.187 30.2459 77.431C30.2459 76.6843 30.3905 76.0356 30.6799 75.485C30.9692 74.925 31.3799 74.4956 31.9119 74.197C32.4532 73.8983 33.0925 73.749 33.8299 73.749C34.5485 73.749 35.1739 73.8983 35.7059 74.197C36.2472 74.4956 36.6625 74.925 36.9519 75.485C37.2505 76.0356 37.3999 76.6843 37.3999 77.431C37.3999 78.187 37.2505 78.8403 36.9519 79.391C36.6625 79.9323 36.2472 80.3523 35.7059 80.651C35.1739 80.9496 34.5485 81.099 33.8299 81.099ZM33.8299 79.755C34.4085 79.755 34.8519 79.5636 35.1599 79.181C35.4772 78.789 35.6359 78.2056 35.6359 77.431C35.6359 76.6656 35.4772 76.0916 35.1599 75.709C34.8519 75.317 34.4085 75.121 33.8299 75.121C33.2419 75.121 32.7845 75.317 32.4579 75.709C32.1405 76.0916 31.9819 76.6656 31.9819 77.431C31.9819 78.2056 32.1405 78.789 32.4579 79.181C32.7752 79.5636 33.2325 79.755 33.8299 79.755ZM38.895 81.001V75.933C38.895 75.597 38.8857 75.261 38.867 74.925C38.8577 74.589 38.8297 74.2576 38.783 73.931H40.435L40.589 75.331L40.435 75.373C40.659 74.841 40.9904 74.4396 41.429 74.169C41.877 73.889 42.3904 73.749 42.969 73.749C44.649 73.749 45.489 74.7196 45.489 76.661V81.001H43.739V76.731C43.739 76.1803 43.6317 75.779 43.417 75.527C43.2024 75.2656 42.871 75.135 42.423 75.135C41.8817 75.135 41.4477 75.3076 41.121 75.653C40.8037 75.989 40.645 76.437 40.645 76.997V81.001H38.895ZM50.0749 81.099C49.4589 81.099 48.9129 80.9543 48.4369 80.665C47.9609 80.3663 47.5922 79.9463 47.3309 79.405C47.0789 78.8543 46.9529 78.2103 46.9529 77.473C46.9529 76.7263 47.0836 76.0776 47.3449 75.527C47.6062 74.967 47.9702 74.533 48.4369 74.225C48.9129 73.9076 49.4589 73.749 50.0749 73.749C50.6722 73.749 51.1902 73.8983 51.6289 74.197C52.0769 74.4863 52.3802 74.8923 52.5389 75.415L52.3709 75.513V73.931H54.0929V81.001H52.3709V79.405L52.5389 79.461C52.3802 79.9836 52.0769 80.3896 51.6289 80.679C51.1902 80.959 50.6722 81.099 50.0749 81.099ZM50.5509 79.755C51.1296 79.755 51.5776 79.5543 51.8949 79.153C52.2122 78.7516 52.3709 78.1823 52.3709 77.445C52.3709 76.689 52.2122 76.115 51.8949 75.723C51.5776 75.3216 51.1296 75.121 50.5509 75.121C49.9629 75.121 49.5056 75.3263 49.1789 75.737C48.8522 76.1476 48.6889 76.7263 48.6889 77.473C48.6889 78.201 48.8522 78.7656 49.1789 79.167C49.5056 79.559 49.9629 79.755 50.5509 79.755ZM55.9849 81.001V70.697H57.7349V81.001H55.9849ZM63.6034 81.001V71.033H67.2714C68.3634 71.033 69.2921 71.229 70.0574 71.621C70.8227 72.013 71.4061 72.5823 71.8074 73.329C72.2181 74.0663 72.4234 74.9576 72.4234 76.003C72.4234 77.0576 72.2181 77.9583 71.8074 78.705C71.4061 79.4516 70.8181 80.021 70.0434 80.413C69.2781 80.805 68.3541 81.001 67.2714 81.001H63.6034ZM65.4094 79.531H67.1594C68.3074 79.531 69.1661 79.237 69.7354 78.649C70.3141 78.061 70.6034 77.179 70.6034 76.003C70.6034 73.6696 69.4554 72.503 67.1594 72.503H65.4094V79.531ZM80.1898 80.217C79.8538 80.497 79.4384 80.7163 78.9438 80.875C78.4584 81.0243 77.9638 81.099 77.4598 81.099C76.6944 81.099 76.0318 80.9543 75.4718 80.665C74.9211 80.3756 74.4964 79.9556 74.1978 79.405C73.8991 78.8543 73.7498 78.201 73.7498 77.445C73.7498 76.717 73.8944 76.0776 74.1838 75.527C74.4731 74.967 74.8744 74.533 75.3878 74.225C75.9011 73.9076 76.4938 73.749 77.1658 73.749C77.8191 73.749 78.3791 73.8936 78.8458 74.183C79.3124 74.463 79.6718 74.869 79.9238 75.401C80.1851 75.933 80.3158 76.563 80.3158 77.291V77.557H75.2898L75.3038 76.619H79.2798L78.8038 77.095C78.8131 76.4136 78.6778 75.8956 78.3978 75.541C78.1271 75.1863 77.7304 75.009 77.2078 75.009C76.6478 75.009 76.2138 75.2096 75.9058 75.611C75.5978 76.003 75.4438 76.5676 75.4438 77.305C75.4438 78.145 75.6164 78.7656 75.9618 79.167C76.3071 79.559 76.8298 79.755 77.5298 79.755C77.9124 79.755 78.2858 79.6943 78.6498 79.573C79.0231 79.4423 79.3684 79.2556 79.6858 79.013L80.1898 80.217ZM83.7603 81.001L80.7083 73.945H82.5423L84.7683 79.475H84.3763L86.6443 73.945H88.3803L85.2863 81.001H83.7603ZM95.2425 80.217C94.9065 80.497 94.4912 80.7163 93.9965 80.875C93.5112 81.0243 93.0165 81.099 92.5125 81.099C91.7472 81.099 91.0845 80.9543 90.5245 80.665C89.9738 80.3756 89.5492 79.9556 89.2505 79.405C88.9518 78.8543 88.8025 78.201 88.8025 77.445C88.8025 76.717 88.9472 76.0776 89.2365 75.527C89.5258 74.967 89.9272 74.533 90.4405 74.225C90.9538 73.9076 91.5465 73.749 92.2185 73.749C92.8718 73.749 93.4318 73.8936 93.8985 74.183C94.3652 74.463 94.7245 74.869 94.9765 75.401C95.2378 75.933 95.3685 76.563 95.3685 77.291V77.557H90.3425L90.3565 76.619H94.3325L93.8565 77.095C93.8658 76.4136 93.7305 75.8956 93.4505 75.541C93.1798 75.1863 92.7832 75.009 92.2605 75.009C91.7005 75.009 91.2665 75.2096 90.9585 75.611C90.6505 76.003 90.4965 76.5676 90.4965 77.305C90.4965 78.145 90.6692 78.7656 91.0145 79.167C91.3598 79.559 91.8825 79.755 92.5825 79.755C92.9652 79.755 93.3385 79.6943 93.7025 79.573C94.0758 79.4423 94.4212 79.2556 94.7385 79.013L95.2425 80.217ZM96.8364 81.001V70.697H98.5864V81.001H96.8364ZM103.693 81.099C102.956 81.099 102.316 80.9496 101.775 80.651C101.243 80.3523 100.832 79.9323 100.543 79.391C100.254 78.8403 100.109 78.187 100.109 77.431C100.109 76.6843 100.254 76.0356 100.543 75.485C100.832 74.925 101.243 74.4956 101.775 74.197C102.316 73.8983 102.956 73.749 103.693 73.749C104.412 73.749 105.037 73.8983 105.569 74.197C106.11 74.4956 106.526 74.925 106.815 75.485C107.114 76.0356 107.263 76.6843 107.263 77.431C107.263 78.187 107.114 78.8403 106.815 79.391C106.526 79.9323 106.11 80.3523 105.569 80.651C105.037 80.9496 104.412 81.099 103.693 81.099ZM103.693 79.755C104.272 79.755 104.715 79.5636 105.023 79.181C105.34 78.789 105.499 78.2056 105.499 77.431C105.499 76.6656 105.34 76.0916 105.023 75.709C104.715 75.317 104.272 75.121 103.693 75.121C103.105 75.121 102.648 75.317 102.321 75.709C102.004 76.0916 101.845 76.6656 101.845 77.431C101.845 78.2056 102.004 78.789 102.321 79.181C102.638 79.5636 103.096 79.755 103.693 79.755ZM108.758 84.025V75.933C108.758 75.6063 108.749 75.275 108.73 74.939C108.721 74.5936 108.693 74.2576 108.646 73.931H110.298L110.452 75.331L110.354 75.415C110.504 74.8923 110.798 74.4863 111.236 74.197C111.675 73.8983 112.193 73.749 112.79 73.749C113.406 73.749 113.948 73.9076 114.414 74.225C114.89 74.533 115.264 74.967 115.534 75.527C115.805 76.0776 115.94 76.7263 115.94 77.473C115.94 78.2103 115.805 78.8543 115.534 79.405C115.264 79.9463 114.895 80.3663 114.428 80.665C113.962 80.9543 113.416 81.099 112.79 81.099C112.193 81.099 111.675 80.959 111.236 80.679C110.798 80.3896 110.504 79.9836 110.354 79.461L110.508 79.237V84.025H108.758ZM112.342 79.755C112.921 79.755 113.369 79.559 113.686 79.167C114.004 78.7656 114.162 78.201 114.162 77.473C114.162 76.7263 114.004 76.1476 113.686 75.737C113.369 75.3263 112.921 75.121 112.342 75.121C111.745 75.121 111.288 75.3216 110.97 75.723C110.662 76.115 110.508 76.689 110.508 77.445C110.508 78.1823 110.662 78.7516 110.97 79.153C111.288 79.5543 111.745 79.755 112.342 79.755ZM117.44 81.001V75.933C117.44 75.6063 117.431 75.275 117.412 74.939C117.403 74.5936 117.375 74.2576 117.328 73.931H118.98L119.134 75.331L118.98 75.345C119.167 74.841 119.465 74.449 119.876 74.169C120.287 73.889 120.772 73.749 121.332 73.749C121.995 73.749 122.513 73.917 122.886 74.253C123.269 74.5796 123.516 75.0836 123.628 75.765L123.292 75.457C123.479 74.9436 123.796 74.533 124.244 74.225C124.692 73.9076 125.215 73.749 125.812 73.749C126.605 73.749 127.198 73.9916 127.59 74.477C127.982 74.953 128.178 75.681 128.178 76.661V81.001H126.428V76.717C126.428 76.1756 126.335 75.779 126.148 75.527C125.971 75.2656 125.672 75.135 125.252 75.135C124.767 75.135 124.384 75.3076 124.104 75.653C123.833 75.989 123.698 76.4556 123.698 77.053V81.001H121.948V76.717C121.948 76.1756 121.85 75.779 121.654 75.527C121.467 75.2656 121.169 75.135 120.758 75.135C120.263 75.135 119.876 75.3076 119.596 75.653C119.325 75.989 119.19 76.4556 119.19 77.053V81.001H117.44ZM136.108 80.217C135.772 80.497 135.356 80.7163 134.862 80.875C134.376 81.0243 133.882 81.099 133.378 81.099C132.612 81.099 131.95 80.9543 131.39 80.665C130.839 80.3756 130.414 79.9556 130.116 79.405C129.817 78.8543 129.668 78.201 129.668 77.445C129.668 76.717 129.812 76.0776 130.102 75.527C130.391 74.967 130.792 74.533 131.306 74.225C131.819 73.9076 132.412 73.749 133.084 73.749C133.737 73.749 134.297 73.8936 134.764 74.183C135.23 74.463 135.59 74.869 135.842 75.401C136.103 75.933 136.234 76.563 136.234 77.291V77.557H131.208L131.222 76.619H135.198L134.722 77.095C134.731 76.4136 134.596 75.8956 134.316 75.541C134.045 75.1863 133.648 75.009 133.126 75.009C132.566 75.009 132.132 75.2096 131.824 75.611C131.516 76.003 131.362 76.5676 131.362 77.305C131.362 78.145 131.534 78.7656 131.88 79.167C132.225 79.559 132.748 79.755 133.448 79.755C133.83 79.755 134.204 79.6943 134.568 79.573C134.941 79.4423 135.286 79.2556 135.604 79.013L136.108 80.217ZM137.702 81.001V75.933C137.702 75.597 137.692 75.261 137.674 74.925C137.664 74.589 137.636 74.2576 137.59 73.931H139.242L139.396 75.331L139.242 75.373C139.466 74.841 139.797 74.4396 140.236 74.169C140.684 73.889 141.197 73.749 141.776 73.749C143.456 73.749 144.296 74.7196 144.296 76.661V81.001H142.546V76.731C142.546 76.1803 142.438 75.779 142.224 75.527C142.009 75.2656 141.678 75.135 141.23 75.135C140.688 75.135 140.254 75.3076 139.928 75.653C139.61 75.989 139.452 76.437 139.452 76.997V81.001H137.702ZM145.256 75.247V73.931H150.24V75.247H145.256ZM150.24 79.545V80.931C150.053 80.9963 149.866 81.0383 149.68 81.057C149.502 81.085 149.311 81.099 149.106 81.099C148.312 81.099 147.696 80.875 147.258 80.427C146.828 79.979 146.614 79.335 146.614 78.495V72.209L148.364 71.621V78.411C148.364 78.7283 148.415 78.9803 148.518 79.167C148.62 79.3443 148.756 79.4703 148.924 79.545C149.101 79.6196 149.297 79.657 149.512 79.657C149.633 79.657 149.75 79.6476 149.862 79.629C149.974 79.6103 150.1 79.5823 150.24 79.545Z" fill="#202244" fill-opacity="0.8"/>
</svg>
