<svg width="114" height="82" viewBox="0 0 114 82" fill="none" xmlns="http://www.w3.org/2000/svg">
<path d="M57 32V42" stroke="black" stroke-width="2" stroke-linecap="round" stroke-linejoin="round"/>
<path fill-rule="evenodd" clip-rule="evenodd" d="M32 0H82C84.211 0 86 1.789 86 4V54C86 56.211 84.211 58 82 58H32C29.789 58 28 56.211 28 54V4C28 1.789 29.789 0 32 0Z" fill="#EBEBEB"/>
<path fill-rule="evenodd" clip-rule="evenodd" d="M86 4V12H28V4C28 1.789 29.789 0 32 0H82C84.211 0 86 1.789 86 4Z" fill="#232D4D"/>
<path fill-rule="evenodd" clip-rule="evenodd" d="M35 6C35 6.551 34.551 7 34 7C33.449 7 33 6.551 33 6C33 5.449 33.449 5 34 5C34.551 5 35 5.449 35 6Z" fill="white"/>
<path fill-rule="evenodd" clip-rule="evenodd" d="M40 6C40 6.551 39.551 7 39 7C38.449 7 38 6.551 38 6C38 5.449 38.449 5 39 5C39.551 5 40 5.449 40 6Z" fill="white"/>
<path fill-rule="evenodd" clip-rule="evenodd" d="M45 6C45 6.551 44.551 7 44 7C43.449 7 43 6.551 43 6C43 5.449 43.449 5 44 5C44.551 5 45 5.449 45 6Z" fill="white"/>
<path fill-rule="evenodd" clip-rule="evenodd" d="M80 5H70C69.449 5 69 5.449 69 6C69 6.551 69.449 7 70 7H80C80.551 7 81 6.551 81 6C81 5.449 80.551 5 80 5Z" fill="white"/>
<path fill-rule="evenodd" clip-rule="evenodd" d="M72 36H58V31C58 30.449 57.551 30 57 30C56.449 30 56 30.449 56 31V36H42C41.449 36 41 36.449 41 37V44C41 44.551 41.449 45 42 45C42.551 45 43 44.551 43 44V38H56V44C56 44.551 56.449 45 57 45C57.551 45 58 44.551 58 44V38H71V44C71 44.551 71.449 45 72 45C72.551 45 73 44.551 73 44V37C73 36.449 72.551 36 72 36Z" fill="#CDCDCD"/>
<path fill-rule="evenodd" clip-rule="evenodd" d="M50 17H64C65.105 17 66 17.895 66 19V31C66 32.105 65.105 33 64 33H50C48.895 33 48 32.105 48 31V19C48 17.895 48.895 17 50 17Z" fill="#1AB3FF"/>
<path fill-rule="evenodd" clip-rule="evenodd" d="M62 30H52C51.449 30 51 29.551 51 29C51 28.449 51.449 28 52 28H62C62.551 28 63 28.449 63 29C63 29.551 62.551 30 62 30ZM62 26H52C51.449 26 51 25.551 51 25C51 24.449 51.449 24 52 24H62C62.551 24 63 24.449 63 25C63 25.551 62.551 26 62 26ZM62 22H56C55.449 22 55 21.551 55 21C55 20.449 55.449 20 56 20H62C62.551 20 63 20.449 63 21C63 21.551 62.551 22 62 22Z" fill="#0094E4"/>
<path fill-rule="evenodd" clip-rule="evenodd" d="M53 21C53 21.551 52.551 22 52 22C51.449 22 51 21.551 51 21C51 20.449 51.449 20 52 20C52.551 20 53 20.449 53 21Z" fill="#0094E4"/>
<path fill-rule="evenodd" clip-rule="evenodd" d="M39 42H45C46.105 42 47 42.895 47 44V50C47 51.105 46.105 52 45 52H39C37.895 52 37 51.105 37 50V44C37 42.895 37.895 42 39 42Z" fill="#1AB3FF"/>
<path fill-rule="evenodd" clip-rule="evenodd" d="M75 52H69C67.895 52 67 51.105 67 50V44C67 42.895 67.895 42 69 42H75C76.105 42 77 42.895 77 44V50C77 51.105 76.105 52 75 52Z" fill="#1AB3FF"/>
<path fill-rule="evenodd" clip-rule="evenodd" d="M54 42H60C61.105 42 62 42.895 62 44V50C62 51.105 61.105 52 60 52H54C52.895 52 52 51.105 52 50V44C52 42.895 52.895 42 54 42Z" fill="#1AB3FF"/>
<path fill-rule="evenodd" clip-rule="evenodd" d="M73 46H71C70.449 46 70 46.449 70 47C70 47.551 70.449 48 71 48H73C73.551 48 74 47.551 74 47C74 46.449 73.551 46 73 46ZM58 46H56C55.449 46 55 46.449 55 47C55 47.551 55.449 48 56 48H58C58.551 48 59 47.551 59 47C59 46.449 58.551 46 58 46ZM43 46H41C40.449 46 40 46.449 40 47C40 47.551 40.449 48 41 48H43C43.551 48 44 47.551 44 47C44 46.449 43.551 46 43 46Z" fill="#0094E4"/>
<path d="M5.46665 78.112C4.95332 78.112 4.46332 78.07 3.99665 77.986C3.52998 77.8927 3.09132 77.7573 2.68065 77.58C2.27932 77.4027 1.92465 77.188 1.61665 76.936L2.21865 75.62C2.72265 75.9933 3.23598 76.264 3.75865 76.432C4.28132 76.6 4.85532 76.684 5.48065 76.684C6.17132 76.684 6.70332 76.5627 7.07665 76.32C7.45932 76.0773 7.65065 75.7367 7.65065 75.298C7.65065 75.0367 7.56665 74.822 7.39865 74.654C7.23065 74.4767 6.97865 74.3273 6.64265 74.206C6.30665 74.0847 5.89132 73.968 5.39665 73.856C4.80865 73.744 4.29065 73.6087 3.84265 73.45C3.39465 73.282 3.02132 73.086 2.72265 72.862C2.42398 72.638 2.19532 72.372 2.03665 72.064C1.88732 71.7467 1.81265 71.3733 1.81265 70.944C1.81265 70.356 1.97132 69.8333 2.28865 69.376C2.60598 68.9187 3.04932 68.564 3.61865 68.312C4.19732 68.0507 4.87398 67.92 5.64865 67.92C6.11532 67.92 6.56798 67.9667 7.00665 68.06C7.45465 68.1533 7.86532 68.2887 8.23865 68.466C8.61198 68.634 8.93398 68.844 9.20465 69.096L8.58865 70.412C8.14065 70.048 7.67398 69.782 7.18865 69.614C6.70332 69.4367 6.19465 69.348 5.66265 69.348C5.01865 69.348 4.50998 69.4787 4.13665 69.74C3.76332 70.0013 3.57665 70.3653 3.57665 70.832C3.57665 71.1027 3.65132 71.3267 3.80065 71.504C3.95932 71.6813 4.19732 71.8307 4.51465 71.952C4.84132 72.0733 5.25665 72.1947 5.76065 72.316C6.33932 72.4373 6.85265 72.5773 7.30065 72.736C7.75798 72.8947 8.14532 73.086 8.46265 73.31C8.77998 73.5247 9.01798 73.786 9.17665 74.094C9.34465 74.3927 9.42865 74.752 9.42865 75.172C9.42865 75.7693 9.26998 76.292 8.95265 76.74C8.63532 77.1787 8.17798 77.5193 7.58065 77.762C6.99265 77.9953 6.28798 78.112 5.46665 78.112ZM11.1161 78V68.032H17.7801V69.446H12.8801V72.218H17.5001V73.646H12.8801V76.586H17.7801V78H11.1161ZM23.8389 78.112C22.8682 78.112 22.0282 77.9067 21.3189 77.496C20.6096 77.0853 20.0636 76.4973 19.6809 75.732C19.2982 74.9667 19.1069 74.0613 19.1069 73.016C19.1069 71.9613 19.2982 71.056 19.6809 70.3C20.0636 69.5347 20.6096 68.9467 21.3189 68.536C22.0282 68.1253 22.8682 67.92 23.8389 67.92C24.8189 67.92 25.6636 68.1253 26.3729 68.536C27.0822 68.9467 27.6282 69.5347 28.0109 70.3C28.3936 71.056 28.5849 71.9567 28.5849 73.002C28.5849 74.0567 28.3889 74.9667 27.9969 75.732C27.6142 76.4973 27.0682 77.0853 26.3589 77.496C25.6589 77.9067 24.8189 78.112 23.8389 78.112ZM23.8389 76.684C24.7536 76.684 25.4722 76.3713 25.9949 75.746C26.5176 75.1113 26.7789 74.1967 26.7789 73.002C26.7789 71.8073 26.5176 70.902 25.9949 70.286C25.4722 69.6607 24.7536 69.348 23.8389 69.348C22.9336 69.348 22.2196 69.6607 21.6969 70.286C21.1742 70.902 20.9129 71.8073 20.9129 73.002C20.9129 74.1967 21.1742 75.1113 21.6969 75.746C22.2196 76.3713 22.9336 76.684 23.8389 76.684ZM37.1742 78.098C36.4929 78.098 35.8956 77.986 35.3822 77.762C34.8689 77.538 34.4676 77.2253 34.1782 76.824C33.8982 76.4133 33.7582 75.9373 33.7582 75.396C33.7582 74.7147 33.9729 74.1173 34.4022 73.604C34.8316 73.0907 35.5222 72.6053 36.4742 72.148C37.0062 71.8773 37.4262 71.6347 37.7342 71.42C38.0422 71.2053 38.2569 71 38.3782 70.804C38.5089 70.608 38.5742 70.3933 38.5742 70.16C38.5742 69.852 38.4809 69.6047 38.2942 69.418C38.1076 69.2313 37.8602 69.138 37.5522 69.138C37.2069 69.138 36.9269 69.2407 36.7122 69.446C36.5069 69.6513 36.4042 69.922 36.4042 70.258C36.4042 70.426 36.4322 70.5893 36.4882 70.748C36.5536 70.8973 36.6609 71.07 36.8102 71.266C36.9689 71.4527 37.1929 71.7 37.4822 72.008L40.8982 75.564C41.2062 75.872 41.5422 76.1427 41.9062 76.376C42.2702 76.6 42.6762 76.7867 43.1242 76.936L42.2562 78.126C41.7616 77.958 41.3229 77.7527 40.9402 77.51C40.5576 77.2673 40.2122 76.9873 39.9042 76.67L35.9982 72.61C35.7182 72.3113 35.4896 72.036 35.3122 71.784C35.1349 71.5227 35.0042 71.2707 34.9202 71.028C34.8456 70.776 34.8082 70.524 34.8082 70.272C34.8082 69.8053 34.9202 69.3993 35.1442 69.054C35.3776 68.6993 35.6996 68.424 36.1102 68.228C36.5209 68.032 36.9922 67.934 37.5242 67.934C38.2802 67.934 38.8822 68.13 39.3302 68.522C39.7876 68.914 40.0162 69.4367 40.0162 70.09C40.0162 70.4913 39.9229 70.86 39.7362 71.196C39.5496 71.532 39.2556 71.8587 38.8542 72.176C38.4529 72.484 37.9256 72.7967 37.2722 73.114C36.8522 73.3287 36.5069 73.548 36.2362 73.772C35.9656 73.996 35.7696 74.234 35.6482 74.486C35.5269 74.7287 35.4662 74.9993 35.4662 75.298C35.4662 75.746 35.6249 76.1007 35.9422 76.362C36.2596 76.6233 36.6889 76.754 37.2302 76.754C37.8649 76.754 38.4389 76.5533 38.9522 76.152C39.4656 75.7413 39.8809 75.1813 40.1982 74.472C40.5156 73.7533 40.6929 72.9273 40.7302 71.994H42.2002C42.1722 72.89 42.0229 73.7113 41.7522 74.458C41.4816 75.2047 41.1222 75.8487 40.6742 76.39C40.2262 76.9313 39.7036 77.3513 39.1062 77.65C38.5182 77.9487 37.8742 78.098 37.1742 78.098ZM47.7574 78V68.032H49.1994L52.9654 76.614H52.2794L56.0174 68.032H57.4594V78H55.8494L55.8354 70.622L56.3114 70.734L53.2034 78H52.0134L48.8354 70.734L49.3394 70.622L49.3534 78H47.7574ZM62.2419 78.098C61.6259 78.098 61.0799 77.9533 60.6039 77.664C60.1279 77.3653 59.7592 76.9453 59.4979 76.404C59.2459 75.8533 59.1199 75.2093 59.1199 74.472C59.1199 73.7253 59.2506 73.0767 59.5119 72.526C59.7732 71.966 60.1372 71.532 60.6039 71.224C61.0799 70.9067 61.6259 70.748 62.2419 70.748C62.8392 70.748 63.3572 70.8973 63.7959 71.196C64.2439 71.4853 64.5472 71.8913 64.7059 72.414L64.5379 72.512V70.93H66.2599V78H64.5379V76.404L64.7059 76.46C64.5472 76.9827 64.2439 77.3887 63.7959 77.678C63.3572 77.958 62.8392 78.098 62.2419 78.098ZM62.7179 76.754C63.2966 76.754 63.7446 76.5533 64.0619 76.152C64.3792 75.7507 64.5379 75.1813 64.5379 74.444C64.5379 73.688 64.3792 73.114 64.0619 72.722C63.7446 72.3207 63.2966 72.12 62.7179 72.12C62.1299 72.12 61.6726 72.3253 61.3459 72.736C61.0192 73.1467 60.8559 73.7253 60.8559 74.472C60.8559 75.2 61.0192 75.7647 61.3459 76.166C61.6726 76.558 62.1299 76.754 62.7179 76.754ZM68.1519 78V72.932C68.1519 72.6053 68.1425 72.274 68.1239 71.938C68.1145 71.5927 68.0865 71.2567 68.0399 70.93H69.6919L69.8879 72.75L69.6919 72.652C69.8132 72.0267 70.0885 71.5553 70.5179 71.238C70.9472 70.9207 71.4325 70.762 71.9739 70.762C72.1139 70.762 72.2445 70.7713 72.3659 70.79C72.4872 70.8087 72.5945 70.8367 72.6879 70.874L72.6599 72.47C72.3705 72.3487 72.0625 72.288 71.7359 72.288C71.3159 72.288 70.9705 72.372 70.6999 72.54C70.4385 72.708 70.2379 72.9367 70.0979 73.226C69.9672 73.506 69.9019 73.8233 69.9019 74.178V78H68.1519ZM78.4783 78L75.0763 74.402L78.2963 70.944H80.4243L76.7703 74.808L76.8543 73.926L80.6623 78H78.4783ZM73.6343 78V67.696H75.3843V78H73.6343ZM87.3392 77.216C87.0032 77.496 86.5879 77.7153 86.0932 77.874C85.6079 78.0233 85.1132 78.098 84.6092 78.098C83.8439 78.098 83.1812 77.9533 82.6212 77.664C82.0705 77.3747 81.6459 76.9547 81.3472 76.404C81.0485 75.8533 80.8992 75.2 80.8992 74.444C80.8992 73.716 81.0439 73.0767 81.3332 72.526C81.6225 71.966 82.0239 71.532 82.5372 71.224C83.0505 70.9067 83.6432 70.748 84.3152 70.748C84.9685 70.748 85.5285 70.8927 85.9952 71.182C86.4619 71.462 86.8212 71.868 87.0732 72.4C87.3345 72.932 87.4652 73.562 87.4652 74.29V74.556H82.4392L82.4532 73.618H86.4292L85.9532 74.094C85.9625 73.4127 85.8272 72.8947 85.5472 72.54C85.2765 72.1853 84.8799 72.008 84.3572 72.008C83.7972 72.008 83.3632 72.2087 83.0552 72.61C82.7472 73.002 82.5932 73.5667 82.5932 74.304C82.5932 75.144 82.7659 75.7647 83.1112 76.166C83.4565 76.558 83.9792 76.754 84.6792 76.754C85.0619 76.754 85.4352 76.6933 85.7992 76.572C86.1725 76.4413 86.5179 76.2547 86.8352 76.012L87.3392 77.216ZM87.9694 72.246V70.93H92.9534V72.246H87.9694ZM92.9534 76.544V77.93C92.7667 77.9953 92.5801 78.0373 92.3934 78.056C92.2161 78.084 92.0247 78.098 91.8194 78.098C91.0261 78.098 90.4101 77.874 89.9714 77.426C89.5421 76.978 89.3274 76.334 89.3274 75.494V69.208L91.0774 68.62V75.41C91.0774 75.7273 91.1287 75.9793 91.2314 76.166C91.3341 76.3433 91.4694 76.4693 91.6374 76.544C91.8147 76.6187 92.0107 76.656 92.2254 76.656C92.3467 76.656 92.4634 76.6467 92.5754 76.628C92.6874 76.6093 92.8134 76.5813 92.9534 76.544ZM94.1421 78V70.93H95.8921V78H94.1421ZM94.0581 67.724H96.0041V69.446H94.0581V67.724ZM97.7788 78V72.932C97.7788 72.596 97.7695 72.26 97.7508 71.924C97.7415 71.588 97.7135 71.2567 97.6668 70.93H99.3188L99.4728 72.33L99.3188 72.372C99.5428 71.84 99.8742 71.4387 100.313 71.168C100.761 70.888 101.274 70.748 101.853 70.748C103.533 70.748 104.373 71.7187 104.373 73.66V78H102.623V73.73C102.623 73.1793 102.515 72.778 102.301 72.526C102.086 72.2647 101.755 72.134 101.307 72.134C100.765 72.134 100.331 72.3067 100.005 72.652C99.6875 72.988 99.5288 73.436 99.5288 73.996V78H97.7788ZM109.449 81.122C108.357 81.122 107.4 80.898 106.579 80.45L106.859 79.12C107.288 79.344 107.708 79.5073 108.119 79.61C108.539 79.722 108.973 79.778 109.421 79.778C110.046 79.778 110.517 79.624 110.835 79.316C111.152 79.008 111.311 78.5413 111.311 77.916V76.166H111.479C111.367 76.4647 111.189 76.74 110.947 76.992C110.713 77.2347 110.429 77.4307 110.093 77.58C109.757 77.72 109.388 77.79 108.987 77.79C108.371 77.79 107.825 77.6453 107.349 77.356C106.873 77.0667 106.499 76.6607 106.229 76.138C105.967 75.606 105.837 74.9853 105.837 74.276C105.837 73.5667 105.967 72.9507 106.229 72.428C106.499 71.896 106.873 71.4853 107.349 71.196C107.825 70.8973 108.371 70.748 108.987 70.748C109.593 70.748 110.121 70.8973 110.569 71.196C111.017 71.4947 111.32 71.896 111.479 72.4L111.311 72.428V70.93H113.047V77.776C113.047 78.8773 112.743 79.708 112.137 80.268C111.53 80.8373 110.634 81.122 109.449 81.122ZM109.463 76.432C110.041 76.432 110.494 76.2407 110.821 75.858C111.147 75.4753 111.311 74.948 111.311 74.276C111.311 73.604 111.147 73.0767 110.821 72.694C110.494 72.3113 110.041 72.12 109.463 72.12C108.875 72.12 108.413 72.3113 108.077 72.694C107.741 73.0767 107.573 73.604 107.573 74.276C107.573 74.948 107.741 75.4753 108.077 75.858C108.413 76.2407 108.875 76.432 109.463 76.432Z" fill="#202244" fill-opacity="0.8"/>
</svg>
