<svg width="12" height="12" viewBox="0 0 12 12" fill="none" xmlns="http://www.w3.org/2000/svg">
<path fill-rule="evenodd" clip-rule="evenodd" d="M6.58809 0.372798L7.92429 3.0566C8.02269 3.251 8.20989 3.3872 8.42769 3.4196L11.4259 3.8558C11.6011 3.8816 11.7607 3.9728 11.8663 4.1132C11.9743 4.2542 12.0187 4.43 11.9929 4.6034C11.9719 4.7462 11.9035 4.88 11.8009 4.9808L9.62769 7.0856C9.46869 7.2356 9.39609 7.451 9.43329 7.664L9.97029 10.6268C10.0285 10.9808 9.79209 11.3156 9.43329 11.3882C9.28809 11.4116 9.13809 11.3882 9.00669 11.3204L6.33009 9.926C6.13089 9.8252 5.89689 9.8252 5.70009 9.926L3.02349 11.3204C2.69229 11.4962 2.28069 11.3744 2.10189 11.051C2.03469 10.922 2.01129 10.7744 2.03229 10.6316L2.56809 7.6688C2.60649 7.4582 2.53389 7.2398 2.37429 7.0898L0.201092 4.9874C0.0750921 4.8632 0.00189209 4.6946 0.00189209 4.5188C0.00189209 4.343 0.0750921 4.1744 0.201092 4.0502C0.304292 3.947 0.439892 3.8792 0.588092 3.8606L3.58629 3.4244C3.80349 3.3914 3.99069 3.2582 4.08729 3.0614L5.37849 0.372798C5.49069 0.145398 5.72769 0.000198292 5.98809 0.00499829H6.06789C6.29289 0.0331983 6.48969 0.171198 6.58809 0.372798Z" fill="#FCCB40"/>
<path fill-rule="evenodd" clip-rule="evenodd" d="M6.00453 9.84631C5.88693 9.84631 5.77713 9.88591 5.67153 9.93751L3.00453 11.3277C2.68353 11.4891 2.27793 11.3601 2.10213 11.0511C2.03433 10.9245 2.00853 10.7793 2.03193 10.6359L2.56833 7.68091C2.60373 7.46491 2.53113 7.24951 2.37393 7.09711L0.196528 4.99231C-0.0656721 4.73491 -0.0656721 4.31491 0.196528 4.05511C0.299728 3.95431 0.433528 3.88831 0.576328 3.86731L3.58593 3.42451C3.81513 3.39151 3.98193 3.26311 4.08693 3.06151L5.39493 0.34231C5.49333 0.12211 5.82873 -0.0302901 6.00933 0.00510993C6.00453 0.18571 6.00453 9.72691 6.00453 9.84631Z" fill="#FAC025"/>
</svg>
