<svg width="60" height="26" viewBox="0 0 60 26" fill="none" xmlns="http://www.w3.org/2000/svg">
<g clip-path="url(#clip0_0_1849)">
<rect x="1" y="1" width="58" height="24" rx="12" fill="#E8F1FF" stroke="#4D81E5" stroke-width="2"/>
<path fill-rule="evenodd" clip-rule="evenodd" d="M19.5882 7.37304L20.9244 10.0568C21.0228 10.2512 21.21 10.3874 21.4278 10.4198L24.426 10.856C24.6012 10.8818 24.7608 10.973 24.8664 11.1134C24.9744 11.2544 25.0188 11.4302 24.993 11.6036C24.972 11.7464 24.9036 11.8802 24.801 11.981L22.6278 14.0858C22.4688 14.2358 22.3962 14.4512 22.4334 14.6642L22.9704 17.627C23.0286 17.981 22.7922 18.3158 22.4334 18.3884C22.2882 18.4118 22.1382 18.3884 22.0068 18.3206L19.3302 16.9262C19.131 16.8254 18.897 16.8254 18.7002 16.9262L16.0236 18.3206C15.6924 18.4964 15.2808 18.3746 15.102 18.0512C15.0348 17.9222 15.0114 17.7746 15.0324 17.6318L15.5682 14.669C15.6066 14.4584 15.534 14.24 15.3744 14.09L13.2012 11.9876C13.0752 11.8634 13.002 11.6948 13.002 11.519C13.002 11.3432 13.0752 11.1746 13.2012 11.0504C13.3044 10.9472 13.44 10.8794 13.5882 10.8608L16.5864 10.4246C16.8036 10.3916 16.9908 10.2584 17.0874 10.0616L18.3786 7.37304C18.4908 7.14564 18.7278 7.00044 18.9882 7.00524H19.068C19.293 7.03344 19.4898 7.17144 19.5882 7.37304Z" fill="#FF9C07"/>
<path fill-rule="evenodd" clip-rule="evenodd" d="M19.0047 16.8466C18.8871 16.8466 18.7772 16.8862 18.6716 16.9378L16.0047 18.328C15.6837 18.4894 15.2781 18.3604 15.1023 18.0514C15.0345 17.9248 15.0086 17.7796 15.032 17.6362L15.5684 14.6812C15.6038 14.4652 15.5312 14.2498 15.374 14.0974L13.1966 11.9926C12.9345 11.7352 12.9345 11.3152 13.1966 11.0554C13.2998 10.9546 13.4336 10.8886 13.5764 10.8676L16.5861 10.4248C16.8152 10.3918 16.982 10.2634 17.087 10.0618L18.3951 7.34255C18.4935 7.12235 18.8288 6.96995 19.0094 7.00535C19.0047 7.18595 19.0047 16.7272 19.0047 16.8466Z" fill="#FF9C07"/>
<path d="M27.208 16.323H35.112V14.737H33.253L33.032 14.932H29.782L31.927 11.864V15.569L31.771 15.712V18H33.682V8.9H32.421L27.208 16.323ZM36.5954 17.233C36.5954 17.5103 36.6951 17.753 36.8944 17.961C37.1024 18.169 37.3581 18.273 37.6614 18.273C37.9734 18.273 38.2291 18.169 38.4284 17.961C38.6278 17.753 38.7274 17.5103 38.7274 17.233C38.7274 16.9383 38.6278 16.6913 38.4284 16.492C38.2291 16.284 37.9734 16.18 37.6614 16.18C37.3581 16.18 37.1024 16.284 36.8944 16.492C36.6951 16.6913 36.5954 16.9383 36.5954 17.233ZM47.248 15.062C47.248 14.438 47.118 13.905 46.858 13.463C46.6067 13.0123 46.273 12.6657 45.857 12.423C45.441 12.1803 44.986 12.059 44.492 12.059C44.2233 12.059 43.959 12.085 43.699 12.137C43.4477 12.1803 43.2093 12.2627 42.984 12.384L43.53 10.512H47.105V8.9H42.152L40.904 14.022C41.216 13.8487 41.5107 13.7187 41.788 13.632C42.074 13.5367 42.3513 13.4717 42.62 13.437C42.8887 13.3937 43.1443 13.372 43.387 13.372C43.7163 13.372 44.0197 13.4327 44.297 13.554C44.583 13.6667 44.8083 13.8357 44.973 14.061C45.1463 14.2863 45.233 14.5637 45.233 14.893C45.233 15.231 45.1593 15.517 45.012 15.751C44.8647 15.9763 44.6523 16.1497 44.375 16.271C44.1063 16.3923 43.777 16.453 43.387 16.453C43.1357 16.453 42.8713 16.4053 42.594 16.31C42.3167 16.206 42.048 16.0673 41.788 15.894C41.5367 15.7207 41.3027 15.5257 41.086 15.309L40.215 16.752C40.4663 17.0033 40.7567 17.2373 41.086 17.454C41.4153 17.662 41.7967 17.831 42.23 17.961C42.672 18.091 43.1703 18.156 43.725 18.156C44.167 18.156 44.596 18.0953 45.012 17.974C45.428 17.8527 45.805 17.6663 46.143 17.415C46.481 17.1637 46.7497 16.843 46.949 16.453C47.1483 16.063 47.248 15.5993 47.248 15.062Z" fill="#202244"/>
</g>
<defs>
<clipPath id="clip0_0_1849">
<rect width="60" height="26" fill="white"/>
</clipPath>
</defs>
</svg>
