<svg width="125" height="65" viewBox="0 0 125 65" fill="none" xmlns="http://www.w3.org/2000/svg">
<path fill-rule="evenodd" clip-rule="evenodd" d="M43.6575 4.93152H85.7726C86.7258 4.93152 87.4986 5.70438 87.4986 6.65755V34.274C87.4986 35.2271 86.7258 36 85.7726 36H43.6575C42.7044 36 41.9315 35.2271 41.9315 34.274V6.65755C41.9315 5.70438 42.7044 4.93152 43.6575 4.93152Z" fill="#8397CC"/>
<path fill-rule="evenodd" clip-rule="evenodd" d="M43.6575 4.93152C42.7048 4.9327 41.9327 5.70478 41.9315 6.65755V33.0411H82.8137C83.7665 33.0399 84.5386 32.2678 84.5397 31.3151V4.93152H43.6575Z" fill="#6D83B5"/>
<path fill-rule="evenodd" clip-rule="evenodd" d="M38.726 0H80.8411C81.7943 0 82.5671 0.772866 82.5671 1.72603V29.3425C82.5671 30.2956 81.7943 31.0685 80.8411 31.0685H38.726C37.7729 31.0685 37 30.2956 37 29.3425V1.72603C37 0.772866 37.7729 0 38.726 0Z" fill="#3D58FF"/>
<path fill-rule="evenodd" clip-rule="evenodd" d="M38.9726 3.69863C38.9738 2.74586 39.7459 1.97379 40.6986 1.9726H82.5671V1.72603C82.5659 0.77326 81.7939 0.00118356 80.8411 0H38.726C37.7733 0.00118356 37.0012 0.77326 37 1.72603V29.3425C37.0012 30.2952 37.7733 31.0673 38.726 31.0685H38.9726V3.69863Z" fill="#3146CC"/>
<path fill-rule="evenodd" clip-rule="evenodd" d="M67.0329 22.6849H77.8822C78.8354 22.6849 79.6083 23.4578 79.6083 24.411V26.3836C79.6083 27.3367 78.8354 28.1096 77.8822 28.1096H67.0329C66.0798 28.1096 65.3069 27.3367 65.3069 26.3836V24.411C65.3069 23.4578 66.0798 22.6849 67.0329 22.6849Z" fill="#3146CC"/>
<path fill-rule="evenodd" clip-rule="evenodd" d="M66.0466 21.6986H76.8959C77.8491 21.6986 78.6219 22.4715 78.6219 23.4246V25.3972C78.6219 26.3504 77.8491 27.1233 76.8959 27.1233H66.0466C65.0934 27.1233 64.3206 26.3504 64.3206 25.3972V23.4246C64.3206 22.4715 65.0934 21.6986 66.0466 21.6986Z" fill="#F65D6D"/>
<path fill-rule="evenodd" clip-rule="evenodd" d="M65.3069 26.3835V24.4109C65.308 23.4582 66.0801 22.6861 67.0329 22.6849H77.8822C78.0952 22.6853 78.306 22.725 78.5045 22.8024C78.2466 22.1382 77.6083 21.7002 76.8959 21.6986H66.0466C65.0938 21.6998 64.3217 22.4719 64.3206 23.4246V25.3972C64.3221 26.1096 64.7602 26.748 65.4243 27.0058C65.3469 26.8074 65.3073 26.5966 65.3069 26.3835Z" fill="#E25065"/>
<path fill-rule="evenodd" clip-rule="evenodd" d="M82.5671 4.93151V1.72603C82.5659 0.77326 81.7939 0.00118356 80.8411 0H38.726C37.7733 0.00118356 37.0012 0.77326 37 1.72603V4.93151H82.5671Z" fill="white"/>
<path fill-rule="evenodd" clip-rule="evenodd" d="M38.9726 3.69863C38.9738 2.74586 39.7459 1.97379 40.6986 1.9726H82.5671V1.72603C82.5659 0.77326 81.7939 0.00118356 80.8411 0H38.726C37.7733 0.00118356 37.0012 0.77326 37 1.72603V4.93151H38.9726V3.69863Z" fill="#E8EFFF"/>
<path fill-rule="evenodd" clip-rule="evenodd" d="M51.4 19.2329C51.0778 19.2329 50.7928 19.0241 50.6956 18.717L48.0326 10.3335C47.9441 10.0791 48.0003 9.79674 48.1799 9.59603C48.3594 9.39532 48.6341 9.30823 48.8964 9.36829C49.1588 9.42885 49.368 9.6268 49.442 9.88571L52.105 18.2693C52.1771 18.4943 52.137 18.7397 51.9976 18.9305C51.8581 19.1211 51.6362 19.2333 51.4 19.2329ZM44.3529 17.8351C44.1502 17.8359 43.9564 17.7526 43.8174 17.6055L41.1493 14.8123C40.8773 14.526 40.8773 14.0768 41.1493 13.7905L43.8174 10.9973C44.0991 10.701 44.5678 10.689 44.8641 10.971C45.1604 11.2531 45.1724 11.7216 44.8904 12.0183L42.7078 14.3014L44.8904 16.5845C45.0949 16.7987 45.1519 17.1143 45.0357 17.3862C44.9193 17.6586 44.6519 17.8351 44.3556 17.8351H44.3529ZM55.784 17.8351C55.4873 17.8363 55.2188 17.6602 55.102 17.3878C54.985 17.115 55.0416 16.7991 55.2465 16.5845L57.4265 14.3014L55.2465 12.0183C54.9646 11.7216 54.9765 11.2531 55.2728 10.971C55.5691 10.689 56.0378 10.701 56.3195 10.9973L58.9876 13.7913C59.2596 14.0779 59.2596 14.5271 58.9876 14.8134L56.3195 17.6055C56.1805 17.7526 55.9867 17.8359 55.784 17.8351Z" fill="#F65D6D"/>
<path fill-rule="evenodd" clip-rule="evenodd" d="M77.8822 18.7397H63.3835C62.9751 18.7397 62.6438 18.4084 62.6438 18C62.6438 17.5916 62.9751 17.2603 63.3835 17.2603H77.8822C78.2906 17.2603 78.6219 17.5916 78.6219 18C78.6219 18.4084 78.2906 18.7397 77.8822 18.7397ZM77.8822 14.3014H63.3835C62.9751 14.3014 62.6438 13.9701 62.6438 13.5616C62.6438 13.1532 62.9751 12.8219 63.3835 12.8219H77.8822C78.2906 12.8219 78.6219 13.1532 78.6219 13.5616C78.6219 13.9701 78.2906 14.3014 77.8822 14.3014ZM77.8822 10.3562H68.1671C67.7587 10.3562 67.4274 10.0249 67.4274 9.61643C67.4274 9.20801 67.7587 8.87671 68.1671 8.87671H77.8822C78.2906 8.87671 78.6219 9.20801 78.6219 9.61643C78.6219 10.0249 78.2906 10.3562 77.8822 10.3562ZM42.3753 23.1781H41.6849C41.2765 23.1781 40.9452 22.8468 40.9452 22.4384C40.9452 22.0299 41.2765 21.6986 41.6849 21.6986H42.3753C42.7838 21.6986 43.1151 22.0299 43.1151 22.4384C43.1151 22.8468 42.7838 23.1781 42.3753 23.1781ZM61.1151 23.1781H46.1726C45.7642 23.1781 45.4329 22.8468 45.4329 22.4384C45.4329 22.0299 45.7642 21.6986 46.1726 21.6986H61.1151C61.5235 21.6986 61.8548 22.0299 61.8548 22.4384C61.8548 22.8468 61.5235 23.1781 61.1151 23.1781ZM61.1151 27.1233H41.6849C41.2765 27.1233 40.9452 26.792 40.9452 26.3836C40.9452 25.9751 41.2765 25.6438 41.6849 25.6438H61.1151C61.5235 25.6438 61.8548 25.9751 61.8548 26.3836C61.8548 26.792 61.5235 27.1233 61.1151 27.1233ZM64.7151 10.3562H63.3835C62.9751 10.3562 62.6438 10.0249 62.6438 9.61643C62.6438 9.20801 62.9751 8.87671 63.3835 8.87671H64.7151C65.1235 8.87671 65.4548 9.20801 65.4548 9.61643C65.4548 10.0249 65.1235 10.3562 64.7151 10.3562Z" fill="white"/>
<path fill-rule="evenodd" clip-rule="evenodd" d="M78.8685 3.52607H77.8822C77.4738 3.52607 77.1425 3.12299 77.1425 2.62607C77.1425 2.12915 77.4738 1.72607 77.8822 1.72607H78.8685C79.2769 1.72607 79.6082 2.12915 79.6082 2.62607C79.6082 3.12299 79.2769 3.52607 78.8685 3.52607ZM74.9233 3.52607H73.937C73.5286 3.52607 73.1973 3.12299 73.1973 2.62607C73.1973 2.12915 73.5286 1.72607 73.937 1.72607H74.9233C75.3317 1.72607 75.663 2.12915 75.663 2.62607C75.663 3.12299 75.3317 3.52607 74.9233 3.52607Z" fill="#8397CC"/>
<path d="M4.3474 61L0.819398 51.032H2.6534L5.3834 59.222H4.8794L7.7354 51.032L9.0234 51.046L11.7954 59.222H11.3194L14.1054 51.032H15.8274L12.3134 61H10.8434L8.1694 53.356H8.5054L5.8034 61H4.3474ZM22.3724 60.216C22.0364 60.496 21.6211 60.7153 21.1264 60.874C20.6411 61.0233 20.1464 61.098 19.6424 61.098C18.8771 61.098 18.2144 60.9533 17.6544 60.664C17.1037 60.3747 16.6791 59.9547 16.3804 59.404C16.0817 58.8533 15.9324 58.2 15.9324 57.444C15.9324 56.716 16.0771 56.0767 16.3664 55.526C16.6557 54.966 17.0571 54.532 17.5704 54.224C18.0837 53.9067 18.6764 53.748 19.3484 53.748C20.0017 53.748 20.5617 53.8927 21.0284 54.182C21.4951 54.462 21.8544 54.868 22.1064 55.4C22.3677 55.932 22.4984 56.562 22.4984 57.29V57.556H17.4724L17.4864 56.618H21.4624L20.9864 57.094C20.9957 56.4127 20.8604 55.8947 20.5804 55.54C20.3097 55.1853 19.9131 55.008 19.3904 55.008C18.8304 55.008 18.3964 55.2087 18.0884 55.61C17.7804 56.002 17.6264 56.5667 17.6264 57.304C17.6264 58.144 17.7991 58.7647 18.1444 59.166C18.4897 59.558 19.0124 59.754 19.7124 59.754C20.0951 59.754 20.4684 59.6933 20.8324 59.572C21.2057 59.4413 21.5511 59.2547 21.8684 59.012L22.3724 60.216ZM23.9663 61V50.696H25.7163V55.61L25.5623 55.4C25.7117 54.896 26.0057 54.4947 26.4443 54.196C26.883 53.8973 27.401 53.748 27.9983 53.748C28.6237 53.748 29.1697 53.8973 29.6363 54.196C30.103 54.4947 30.4717 54.9193 30.7423 55.47C31.013 56.0207 31.1483 56.6647 31.1483 57.402C31.1483 58.1393 31.013 58.788 30.7423 59.348C30.4717 59.908 30.0983 60.342 29.6223 60.65C29.1557 60.9487 28.6143 61.098 27.9983 61.098C27.401 61.098 26.883 60.958 26.4443 60.678C26.0057 60.3887 25.7117 59.9827 25.5623 59.46L25.7163 59.208V61H23.9663ZM27.5503 59.754C28.129 59.754 28.577 59.5487 28.8943 59.138C29.2117 58.7273 29.3703 58.1487 29.3703 57.402C29.3703 56.674 29.2117 56.114 28.8943 55.722C28.577 55.3207 28.129 55.12 27.5503 55.12C26.953 55.12 26.4957 55.3207 26.1783 55.722C25.8703 56.1233 25.7163 56.6927 25.7163 57.43C25.7163 58.1767 25.8703 58.7507 26.1783 59.152C26.4957 59.5533 26.953 59.754 27.5503 59.754ZM36.6298 61V51.032H40.2978C41.3898 51.032 42.3184 51.228 43.0838 51.62C43.8491 52.012 44.4324 52.5813 44.8338 53.328C45.2444 54.0653 45.4498 54.9567 45.4498 56.002C45.4498 57.0567 45.2444 57.9573 44.8338 58.704C44.4324 59.4507 43.8444 60.02 43.0698 60.412C42.3044 60.804 41.3804 61 40.2978 61H36.6298ZM38.4358 59.53H40.1858C41.3338 59.53 42.1924 59.236 42.7618 58.648C43.3404 58.06 43.6298 57.178 43.6298 56.002C43.6298 53.6687 42.4818 52.502 40.1858 52.502H38.4358V59.53ZM53.2161 60.216C52.8801 60.496 52.4648 60.7153 51.9701 60.874C51.4848 61.0233 50.9901 61.098 50.4861 61.098C49.7208 61.098 49.0581 60.9533 48.4981 60.664C47.9475 60.3747 47.5228 59.9547 47.2241 59.404C46.9255 58.8533 46.7761 58.2 46.7761 57.444C46.7761 56.716 46.9208 56.0767 47.2101 55.526C47.4995 54.966 47.9008 54.532 48.4141 54.224C48.9275 53.9067 49.5201 53.748 50.1921 53.748C50.8455 53.748 51.4055 53.8927 51.8721 54.182C52.3388 54.462 52.6981 54.868 52.9501 55.4C53.2115 55.932 53.3421 56.562 53.3421 57.29V57.556H48.3161L48.3301 56.618H52.3061L51.8301 57.094C51.8395 56.4127 51.7041 55.8947 51.4241 55.54C51.1535 55.1853 50.7568 55.008 50.2341 55.008C49.6741 55.008 49.2401 55.2087 48.9321 55.61C48.6241 56.002 48.4701 56.5667 48.4701 57.304C48.4701 58.144 48.6428 58.7647 48.9881 59.166C49.3335 59.558 49.8561 59.754 50.5561 59.754C50.9388 59.754 51.3121 59.6933 51.6761 59.572C52.0495 59.4413 52.3948 59.2547 52.7121 59.012L53.2161 60.216ZM56.7867 61L53.7347 53.944H55.5687L57.7947 59.474H57.4027L59.6707 53.944H61.4067L58.3127 61H56.7867ZM68.2689 60.216C67.9329 60.496 67.5175 60.7153 67.0229 60.874C66.5375 61.0233 66.0429 61.098 65.5389 61.098C64.7735 61.098 64.1109 60.9533 63.5509 60.664C63.0002 60.3747 62.5755 59.9547 62.2769 59.404C61.9782 58.8533 61.8289 58.2 61.8289 57.444C61.8289 56.716 61.9735 56.0767 62.2629 55.526C62.5522 54.966 62.9535 54.532 63.4669 54.224C63.9802 53.9067 64.5729 53.748 65.2449 53.748C65.8982 53.748 66.4582 53.8927 66.9249 54.182C67.3915 54.462 67.7509 54.868 68.0029 55.4C68.2642 55.932 68.3949 56.562 68.3949 57.29V57.556H63.3689L63.3829 56.618H67.3589L66.8829 57.094C66.8922 56.4127 66.7569 55.8947 66.4769 55.54C66.2062 55.1853 65.8095 55.008 65.2869 55.008C64.7269 55.008 64.2929 55.2087 63.9849 55.61C63.6769 56.002 63.5229 56.5667 63.5229 57.304C63.5229 58.144 63.6955 58.7647 64.0409 59.166C64.3862 59.558 64.9089 59.754 65.6089 59.754C65.9915 59.754 66.3649 59.6933 66.7289 59.572C67.1022 59.4413 67.4475 59.2547 67.7649 59.012L68.2689 60.216ZM69.8628 61V50.696H71.6128V61H69.8628ZM76.7195 61.098C75.9822 61.098 75.3429 60.9487 74.8015 60.65C74.2695 60.3513 73.8589 59.9313 73.5695 59.39C73.2802 58.8393 73.1355 58.186 73.1355 57.43C73.1355 56.6833 73.2802 56.0347 73.5695 55.484C73.8589 54.924 74.2695 54.4947 74.8015 54.196C75.3429 53.8973 75.9822 53.748 76.7195 53.748C77.4382 53.748 78.0635 53.8973 78.5955 54.196C79.1369 54.4947 79.5522 54.924 79.8415 55.484C80.1402 56.0347 80.2895 56.6833 80.2895 57.43C80.2895 58.186 80.1402 58.8393 79.8415 59.39C79.5522 59.9313 79.1369 60.3513 78.5955 60.65C78.0635 60.9487 77.4382 61.098 76.7195 61.098ZM76.7195 59.754C77.2982 59.754 77.7415 59.5627 78.0495 59.18C78.3669 58.788 78.5255 58.2047 78.5255 57.43C78.5255 56.6647 78.3669 56.0907 78.0495 55.708C77.7415 55.316 77.2982 55.12 76.7195 55.12C76.1315 55.12 75.6742 55.316 75.3475 55.708C75.0302 56.0907 74.8715 56.6647 74.8715 57.43C74.8715 58.2047 75.0302 58.788 75.3475 59.18C75.6649 59.5627 76.1222 59.754 76.7195 59.754ZM81.7847 64.024V55.932C81.7847 55.6053 81.7753 55.274 81.7567 54.938C81.7473 54.5927 81.7193 54.2567 81.6727 53.93H83.3247L83.4787 55.33L83.3807 55.414C83.53 54.8913 83.824 54.4853 84.2627 54.196C84.7013 53.8973 85.2193 53.748 85.8167 53.748C86.4327 53.748 86.974 53.9067 87.4407 54.224C87.9167 54.532 88.29 54.966 88.5607 55.526C88.8313 56.0767 88.9667 56.7253 88.9667 57.472C88.9667 58.2093 88.8313 58.8533 88.5607 59.404C88.29 59.9453 87.9213 60.3653 87.4547 60.664C86.988 60.9533 86.442 61.098 85.8167 61.098C85.2193 61.098 84.7013 60.958 84.2627 60.678C83.824 60.3887 83.53 59.9827 83.3807 59.46L83.5347 59.236V64.024H81.7847ZM85.3687 59.754C85.9473 59.754 86.3953 59.558 86.7127 59.166C87.03 58.7647 87.1887 58.2 87.1887 57.472C87.1887 56.7253 87.03 56.1467 86.7127 55.736C86.3953 55.3253 85.9473 55.12 85.3687 55.12C84.7713 55.12 84.314 55.3207 83.9967 55.722C83.6887 56.114 83.5347 56.688 83.5347 57.444C83.5347 58.1813 83.6887 58.7507 83.9967 59.152C84.314 59.5533 84.7713 59.754 85.3687 59.754ZM90.4663 61V55.932C90.4663 55.6053 90.457 55.274 90.4383 54.938C90.429 54.5927 90.401 54.2567 90.3543 53.93H92.0063L92.1603 55.33L92.0063 55.344C92.193 54.84 92.4917 54.448 92.9023 54.168C93.313 53.888 93.7983 53.748 94.3583 53.748C95.021 53.748 95.539 53.916 95.9123 54.252C96.295 54.5787 96.5423 55.0827 96.6543 55.764L96.3183 55.456C96.505 54.9427 96.8223 54.532 97.2703 54.224C97.7183 53.9067 98.241 53.748 98.8383 53.748C99.6317 53.748 100.224 53.9907 100.616 54.476C101.008 54.952 101.204 55.68 101.204 56.66V61H99.4543V56.716C99.4543 56.1747 99.361 55.778 99.1743 55.526C98.997 55.2647 98.6983 55.134 98.2783 55.134C97.793 55.134 97.4103 55.3067 97.1303 55.652C96.8597 55.988 96.7243 56.4547 96.7243 57.052V61H94.9743V56.716C94.9743 56.1747 94.8763 55.778 94.6803 55.526C94.4937 55.2647 94.195 55.134 93.7843 55.134C93.2897 55.134 92.9023 55.3067 92.6223 55.652C92.3517 55.988 92.2163 56.4547 92.2163 57.052V61H90.4663ZM109.134 60.216C108.798 60.496 108.383 60.7153 107.888 60.874C107.403 61.0233 106.908 61.098 106.404 61.098C105.639 61.098 104.976 60.9533 104.416 60.664C103.865 60.3747 103.441 59.9547 103.142 59.404C102.843 58.8533 102.694 58.2 102.694 57.444C102.694 56.716 102.839 56.0767 103.128 55.526C103.417 54.966 103.819 54.532 104.332 54.224C104.845 53.9067 105.438 53.748 106.11 53.748C106.763 53.748 107.323 53.8927 107.79 54.182C108.257 54.462 108.616 54.868 108.868 55.4C109.129 55.932 109.26 56.562 109.26 57.29V57.556H104.234L104.248 56.618H108.224L107.748 57.094C107.757 56.4127 107.622 55.8947 107.342 55.54C107.071 55.1853 106.675 55.008 106.152 55.008C105.592 55.008 105.158 55.2087 104.85 55.61C104.542 56.002 104.388 56.5667 104.388 57.304C104.388 58.144 104.561 58.7647 104.906 59.166C105.251 59.558 105.774 59.754 106.474 59.754C106.857 59.754 107.23 59.6933 107.594 59.572C107.967 59.4413 108.313 59.2547 108.63 59.012L109.134 60.216ZM110.728 61V55.932C110.728 55.596 110.719 55.26 110.7 54.924C110.691 54.588 110.663 54.2567 110.616 53.93H112.268L112.422 55.33L112.268 55.372C112.492 54.84 112.823 54.4387 113.262 54.168C113.71 53.888 114.223 53.748 114.802 53.748C116.482 53.748 117.322 54.7187 117.322 56.66V61H115.572V56.73C115.572 56.1793 115.465 55.778 115.25 55.526C115.035 55.2647 114.704 55.134 114.256 55.134C113.715 55.134 113.281 55.3067 112.954 55.652C112.637 55.988 112.478 56.436 112.478 56.996V61H110.728ZM118.282 55.246V53.93H123.266V55.246H118.282ZM123.266 59.544V60.93C123.079 60.9953 122.893 61.0373 122.706 61.056C122.529 61.084 122.337 61.098 122.132 61.098C121.339 61.098 120.723 60.874 120.284 60.426C119.855 59.978 119.64 59.334 119.64 58.494V52.208L121.39 51.62V58.41C121.39 58.7273 121.441 58.9793 121.544 59.166C121.647 59.3433 121.782 59.4693 121.95 59.544C122.127 59.6187 122.323 59.656 122.538 59.656C122.659 59.656 122.776 59.6467 122.888 59.628C123 59.6093 123.126 59.5813 123.266 59.544Z" fill="#202244" fill-opacity="0.8"/>
</svg>
