<svg width="16" height="23" viewBox="0 0 16 23" fill="none" xmlns="http://www.w3.org/2000/svg">
<path fill-rule="evenodd" clip-rule="evenodd" d="M2.63542 1.4375C1.97321 1.4375 1.4375 1.97321 1.4375 2.63542V19.8854C1.4375 20.5476 1.97321 21.0833 2.63542 21.0833H12.2188C12.881 21.0833 13.4167 20.5476 13.4167 19.8854V2.63542C13.4167 1.97321 12.881 1.4375 12.2188 1.4375H2.63542ZM0 2.63542C0 1.17875 1.17875 0 2.63542 0H12.2188C13.6754 0 14.8542 1.17875 14.8542 2.63542V19.8854C14.8542 21.3421 13.6754 22.5208 12.2188 22.5208H2.63542C1.17875 22.5208 0 21.3421 0 19.8854V2.63542Z" fill="#1D1D1B"/>
<path fill-rule="evenodd" clip-rule="evenodd" d="M4.79175 18.9271C4.79175 18.5303 5.11375 18.2083 5.5105 18.2083H9.34383C9.74058 18.2083 10.0626 18.5303 10.0626 18.9271C10.0626 19.3238 9.74058 19.6458 9.34383 19.6458H5.5105C5.11375 19.6458 4.79175 19.3238 4.79175 18.9271ZM4.7582 1.4375L4.9307 1.78537C4.97191 1.86396 5.05337 1.91667 5.14345 1.91667H9.71087C9.80095 1.91667 9.88241 1.86396 9.92362 1.78537L10.0961 1.4375H4.7582ZM2.98337 0.340208C3.11466 0.131292 3.34275 0 3.59383 0H11.2605C11.5077 0 11.7397 0.131292 11.871 0.340208C12.0013 0.553917 12.0128 0.8165 11.9045 1.04075L11.2078 2.42554C10.927 2.99479 10.3434 3.35417 9.71087 3.35417H5.14345C4.51095 3.35417 3.92733 2.99479 3.64654 2.42554L2.94983 1.04075C2.8377 0.8165 2.85304 0.550083 2.98337 0.340208Z" fill="#1D1D1B"/>
</svg>
