<svg width="48" height="48" viewBox="0 0 48 48" fill="none" xmlns="http://www.w3.org/2000/svg">
<circle cx="24" cy="24" r="24" fill="white"/>
<path fill-rule="evenodd" clip-rule="evenodd" d="M15.2493 25.8668H31.0384L25.6752 31.1704C25.2018 31.6534 25.2118 32.4255 25.6902 32.9024C26.1724 33.3755 26.9532 33.3854 27.4417 32.9172L34.9373 25.5049C35.1722 25.2738 35.3034 24.96 35.3034 24.6364V24.6314C35.3034 24.4721 35.2696 24.3078 35.2059 24.1583C35.1422 24.0088 35.0498 23.8741 34.9373 23.758L27.4417 16.3457C26.9482 15.8774 26.1724 15.8873 25.6902 16.3605C25.2068 16.8373 25.2018 17.6095 25.6752 18.0925L31.0384 23.396H15.2493C14.5609 23.396 14 23.9507 14 24.6314C14 25.3121 14.5609 25.8668 15.2493 25.8668Z" fill="#0961F5"/>
</svg>
