<svg width="14" height="20" viewBox="0 0 14 20" fill="none" xmlns="http://www.w3.org/2000/svg">
<path fill-rule="evenodd" clip-rule="evenodd" d="M13.9084 7.93425C13.8964 7.02325 13.4784 6.16025 12.7674 5.58625L6.76041 0.79725C5.43941 -0.26575 3.55641 -0.26575 2.23641 0.79725L0.334408 2.18025C-0.0255924 2.43725 -0.107592 2.93425 0.150408 3.29325C0.408408 3.64825 0.904408 3.73025 1.26341 3.47325L3.19341 2.03125C3.95141 1.40625 5.04541 1.40625 5.80341 2.03125L11.8104 6.82025C12.1584 7.09825 12.3614 7.51225 12.3694 7.95325V15.9183C12.3694 17.2153 11.3144 18.2663 10.0214 18.2663H8.23641C8.05341 18.2663 7.90841 18.1173 7.90841 17.9342V14.3442C7.90841 13.1992 6.98241 12.2692 5.83841 12.2662H3.22841C2.67741 12.2662 2.15041 12.4843 1.76041 12.8752C1.36941 13.2662 1.15041 13.7933 1.15041 14.3442V15.7192C1.15041 16.1483 1.50241 16.5002 1.93141 16.5002C2.36541 16.5002 2.71741 16.1483 2.71741 15.7192V14.3442C2.71341 14.2072 2.76341 14.0782 2.86141 13.9803C2.95541 13.8872 3.08441 13.8322 3.22041 13.8322H5.83041C6.10741 13.8322 6.33441 14.0592 6.33441 14.3363V17.9342C6.33841 18.9842 7.18941 19.8323 8.23641 19.8323H9.97441C12.1424 19.8323 13.8964 18.0742 13.8964 15.9102L13.9084 7.93425Z" fill="#202244"/>
</svg>
