<svg width="20" height="20" viewBox="0 0 20 20" fill="none" xmlns="http://www.w3.org/2000/svg">
<mask id="mask0_0_1777" style="mask-type:luminance" maskUnits="userSpaceOnUse" x="0" y="0" width="20" height="20">
<path fill-rule="evenodd" clip-rule="evenodd" d="M0.000244141 0H20.0001V19.9999H0.000244141V0Z" fill="white"/>
</mask>
<g mask="url(#mask0_0_1777)">
<path fill-rule="evenodd" clip-rule="evenodd" d="M1.04953 11.3421L19.621 1.34214C19.9081 1.18857 20.0531 0.856429 19.9752 0.541429C19.8967 0.222857 19.6124 0.00285714 19.286 0H15.0002V1.42857H16.4288L0.37953 10.0864L1.04953 11.3421ZM15.7145 18.5714H18.5717V7.14286H15.7145V18.5714ZM19.286 5.71429H15.0002C14.6067 5.71429 14.286 6.035 14.286 6.42857V19.2857C14.286 19.6793 14.6067 20 15.0002 20H19.286C19.6795 20 20.0002 19.6793 20.0002 19.2857V6.42857C20.0002 6.035 19.6795 5.71429 19.286 5.71429ZM8.57167 18.5714H11.4288V10H8.57167V18.5714ZM7.85739 8.57143C7.4631 8.57143 7.1431 8.89214 7.1431 9.28571V19.2857C7.1431 19.6793 7.4631 20 7.85739 20H12.1431C12.5367 20 12.8574 19.6793 12.8574 19.2857V9.28571C12.8574 8.89214 12.5367 8.57143 12.1431 8.57143H7.85739ZM1.42882 18.5714H4.28596V14.2857H1.42882V18.5714ZM0.71453 20H5.00024C5.39382 20 5.71453 19.6793 5.71453 19.2857V13.5714C5.71453 13.1779 5.39382 12.8571 5.00024 12.8571H0.71453C0.320244 12.8571 0.000244141 13.1779 0.000244141 13.5714V19.2857C0.000244141 19.6793 0.320244 20 0.71453 20Z" fill="#1D1D1B"/>
</g>
</svg>
