<svg width="19" height="25" viewBox="0 0 19 25" fill="none" xmlns="http://www.w3.org/2000/svg">
<mask id="mask0_0_1800" style="mask-type:luminance" maskUnits="userSpaceOnUse" x="0" y="2" width="20" height="23">
<path fill-rule="evenodd" clip-rule="evenodd" d="M0.000244141 2.04053H19.0019V24.9221H0.000244141V2.04053Z" fill="white"/>
</mask>
<g mask="url(#mask0_0_1800)">
<path fill-rule="evenodd" clip-rule="evenodd" d="M14.5272 14.8281C14.7382 15.3871 14.8792 15.9691 14.9492 16.5621L15.0932 14.7931L14.5272 14.8281ZM11.5042 20.4331L12.5702 21.4961C13.4962 20.3511 14.0002 18.9181 14.0002 17.4461C14.0002 16.4461 13.7772 15.4851 13.3402 14.5861C13.2612 14.4371 13.2692 14.2581 13.3552 14.1141C13.4372 13.9691 13.5902 13.8751 13.7572 13.8681L15.6092 13.7661C15.7542 13.7581 15.8902 13.8121 15.9962 13.9141C16.0972 14.0191 16.1482 14.1601 16.1362 14.3051L15.6872 19.8081C15.6522 20.2311 15.8432 20.4571 16.0112 20.5751C16.2852 20.7621 16.6792 20.7971 16.9722 20.6571C17.2342 20.5321 17.3902 20.2851 17.4142 19.9501L17.9962 12.8831C18.0152 12.6331 17.9292 12.3901 17.7542 12.2151C17.5782 12.0351 17.3322 11.9421 17.0822 11.9531L12.3042 12.2191C12.1012 12.2351 11.9142 12.1251 11.8242 11.9421C11.7342 11.7621 11.7652 11.5431 11.9022 11.3911L14.5272 8.40709C14.7422 8.1601 14.8392 7.82809 14.7892 7.49609C14.7462 7.19609 14.5862 6.93409 14.3632 6.79709V6.7931C12.2772 5.5821 10.1912 4.37109 8.10224 3.16009C7.77724 2.96909 7.36724 3.00809 7.09024 3.2581L4.02724 5.98909C3.55524 6.41009 3.69424 6.90709 3.96424 7.20309C4.23024 7.5041 4.71124 7.70309 5.18424 7.28209L7.50724 5.2151C7.66824 5.07109 7.90224 5.04709 8.09024 5.15709L10.0072 6.27009C10.1362 6.3441 10.2262 6.47309 10.2502 6.62109C10.2732 6.77009 10.2302 6.9181 10.1322 7.03209L6.74224 10.8831C6.66824 10.9691 6.56224 11.0281 6.44824 11.0431C5.34424 11.2231 4.30924 11.6841 3.43824 12.3831L4.50424 13.4501C5.36724 12.8011 6.41824 12.4531 7.49624 12.4531C9.47724 12.4371 11.2772 13.6101 12.0622 15.4261C12.8082 17.1141 12.5902 18.9921 11.5042 20.4331ZM12.5932 22.7311C12.4612 22.7261 12.3362 22.6761 12.2422 22.5821L10.4722 20.8171C10.2852 20.6291 10.2772 20.3251 10.4572 20.1291C11.5312 18.9651 11.8002 17.2691 11.1482 15.8281C10.5192 14.3751 9.07824 13.4421 7.49624 13.4531C6.50024 13.4531 5.54724 13.8251 4.80924 14.4921C4.60924 14.6721 4.30924 14.6641 4.11724 14.4761L2.35224 12.7111C2.25424 12.6141 2.20324 12.4851 2.20324 12.3481C2.20724 12.2151 2.26224 12.0861 2.36224 11.9921C3.40224 11.0121 4.70324 10.3521 6.10924 10.0861L8.98024 6.82809L7.90224 6.2001L5.85224 8.02809C4.93824 8.84009 3.83624 8.5631 3.21924 7.86809C2.60224 7.1761 2.45324 6.0511 3.36224 5.24209L6.42224 2.51609C7.02724 1.9771 7.90524 1.88709 8.60524 2.29309C13.4332 5.09009 14.5862 5.76209 14.8902 5.95309L14.8942 5.94609C15.3672 6.2391 15.6912 6.75009 15.7812 7.34809C15.8712 7.97309 15.6912 8.59809 15.2812 9.0631L13.4412 11.1531L17.0232 10.9531C17.5622 10.9181 18.0932 11.1211 18.4682 11.5121C18.8472 11.8991 19.0392 12.4261 18.9962 12.9611L18.4142 20.0281C18.3552 20.7231 17.9882 21.2821 17.4022 21.5581C16.7652 21.8511 16.0232 21.7891 15.4452 21.3991C14.9062 21.0241 14.6322 20.4181 14.6872 19.7261L14.7072 19.5191C14.3752 20.6641 13.7772 21.7071 12.9572 22.5711C12.8672 22.6721 12.7382 22.7261 12.6012 22.7311H12.5932ZM1.80124 14.3361C1.27324 15.2781 1.00024 16.3361 1.00024 17.4421C1.00024 19.8751 2.28024 22.0121 4.43424 23.1491C6.39824 24.1921 8.71124 24.1721 10.6052 23.1371L9.48724 22.0241C8.86224 22.2971 8.18424 22.4371 7.50024 22.4421C5.74624 22.4501 4.11724 21.5281 3.22324 20.0191C2.37524 18.6011 2.26624 16.9221 2.91424 15.4531L1.80124 14.3361ZM7.52324 24.9221C6.28024 24.9221 5.05924 24.6181 3.96424 24.0351C1.48024 22.7191 0.000244141 20.2541 0.000244141 17.4421C0.000244141 15.9261 0.448244 14.4811 1.30124 13.2541C1.38224 13.1331 1.51624 13.0551 1.66424 13.0391C1.81224 13.0281 1.95724 13.0821 2.06224 13.1871L3.87124 14.9961C4.02724 15.1531 4.06224 15.3901 3.96124 15.5861C3.30124 16.8171 3.34824 18.2821 4.08224 19.5041C4.79724 20.7111 6.09824 21.4461 7.50024 21.4421C8.15524 21.4421 8.78024 21.2851 9.35524 20.9811C9.54724 20.8751 9.78924 20.9101 9.94124 21.0671L11.7612 22.8751C11.8672 22.9811 11.9222 23.1291 11.9062 23.2781C11.8942 23.4261 11.8122 23.5581 11.6912 23.6441C10.4612 24.4811 9.00724 24.9261 7.52324 24.9221Z" fill="#1D1D1B"/>
</g>
<mask id="mask1_0_1800" style="mask-type:luminance" maskUnits="userSpaceOnUse" x="12" y="1" width="7" height="6">
<path fill-rule="evenodd" clip-rule="evenodd" d="M12.7852 1.00024H18.3672V6.50414H12.7852V1.00024Z" fill="white"/>
</mask>
<g mask="url(#mask1_0_1800)">
<path fill-rule="evenodd" clip-rule="evenodd" d="M15.5742 1.93024C14.5902 1.93024 13.7852 2.73124 13.7852 3.71524C13.7852 4.70724 14.5862 5.50824 15.5742 5.50824C16.5622 5.50824 17.3672 4.70724 17.3672 3.71524C17.3672 2.73124 16.5622 1.93024 15.5742 1.93024ZM15.5742 6.50424C14.0352 6.50424 12.7852 5.25424 12.7852 3.71524C12.8242 2.20324 14.0622 1.00024 15.5742 1.00024C17.0902 1.00024 18.3242 2.20324 18.3672 3.71524C18.3632 5.25824 17.1132 6.50424 15.5742 6.50424Z" fill="#1D1D1B"/>
</g>
</svg>
