<svg width="46" height="46" viewBox="0 0 46 46" fill="none" xmlns="http://www.w3.org/2000/svg">
<g clip-path="url(#clip0_0_1937)">
<circle cx="23" cy="23" r="22" fill="#F5F9FF" stroke="#E8F1FF" stroke-width="2"/>
<path d="M17.5695 23.1C17.5695 22.6053 17.6161 22.1573 17.7095 21.756C17.8028 21.3453 17.9381 20.9953 18.1155 20.706C18.2928 20.4073 18.5028 20.1787 18.7455 20.02C18.9881 19.8613 19.2588 19.782 19.5575 19.782C19.8655 19.782 20.1408 19.8613 20.3835 20.02C20.6261 20.1787 20.8361 20.4073 21.0135 20.706C21.1908 20.9953 21.3261 21.3453 21.4195 21.756C21.5128 22.1573 21.5595 22.6053 21.5595 23.1C21.5595 23.5947 21.5128 24.0473 21.4195 24.458C21.3261 24.8593 21.1908 25.2093 21.0135 25.508C20.8361 25.7973 20.6261 26.0213 20.3835 26.18C20.1408 26.3387 19.8655 26.418 19.5575 26.418C19.2588 26.418 18.9881 26.3387 18.7455 26.18C18.5028 26.0213 18.2928 25.7973 18.1155 25.508C17.9381 25.2093 17.8028 24.8593 17.7095 24.458C17.6161 24.0473 17.5695 23.5947 17.5695 23.1ZM15.6235 23.1C15.6235 24.136 15.7868 25.032 16.1135 25.788C16.4495 26.544 16.9115 27.132 17.4995 27.552C18.0968 27.9627 18.7828 28.168 19.5575 28.168C20.3601 28.168 21.0555 27.9627 21.6435 27.552C22.2315 27.132 22.6888 26.544 23.0155 25.788C23.3421 25.032 23.5055 24.136 23.5055 23.1C23.5055 22.064 23.3421 21.168 23.0155 20.412C22.6888 19.656 22.2315 19.0727 21.6435 18.662C21.0555 18.242 20.3601 18.032 19.5575 18.032C18.7828 18.032 18.0968 18.242 17.4995 18.662C16.9115 19.0727 16.4495 19.656 16.1135 20.412C15.7868 21.168 15.6235 22.064 15.6235 23.1ZM25.0536 20.748L27.4056 20.132V28H29.3516V18.032L25.0536 18.942V20.748Z" fill="#202244"/>
</g>
<defs>
<clipPath id="clip0_0_1937">
<rect width="46" height="46" fill="white"/>
</clipPath>
</defs>
</svg>
