<svg width="13" height="16" viewBox="0 0 13 16" fill="none" xmlns="http://www.w3.org/2000/svg">
<path fill-rule="evenodd" clip-rule="evenodd" d="M9.4 4.8312H3.3752C3.0312 4.8312 2.7528 5.1128 2.7528 5.4656C2.7528 5.816 3.0312 6.0968 3.3752 6.0968H9.4C9.744 6.0968 10.0248 5.816 10.0248 5.4656C10.0248 5.1128 9.744 4.8312 9.4 4.8312ZM8.856 0C11.0248 0 12.7752 0.856 12.8 3.0312V15.1752C12.8 15.3128 12.7688 15.4472 12.7032 15.5688C12.6 15.7592 12.4248 15.9032 12.2096 15.9688C12 16.0312 11.7688 16 11.5752 15.8872L6.3904 13.2968L1.2 15.8872C1.0816 15.9496 0.944 15.9904 0.8096 15.9904C0.3592 15.9904 0 15.6248 0 15.1752V3.0312C0 0.856 1.7592 0 3.9184 0H8.856Z" fill="#167F71"/>
</svg>
