<<<<<<< HEAD
<svg width="38" height="38" viewBox="0 0 38 38" fill="none" xmlns="http://www.w3.org/2000/svg">
<rect width="38" height="38" rx="10" fill="#0961F5"/>
<path fill-rule="evenodd" clip-rule="evenodd" d="M28.7549 27.6058L25.3169 24.2468L25.239 24.1258C25.087 23.9728 24.884 23.8908 24.669 23.8908C24.4579 23.8908 24.2509 23.9728 24.103 24.1258C21.181 26.8048 16.681 26.9498 13.583 24.4648C10.485 21.9768 9.75495 17.6328 11.8759 14.3098C13.997 10.9878 18.3099 9.71977 21.9539 11.3448C25.5989 12.9698 27.446 16.9838 26.267 20.7268C26.1849 21.0008 26.2509 21.2938 26.4499 21.5008C26.6459 21.7078 26.9429 21.7938 27.2239 21.7308C27.5049 21.6688 27.7319 21.4608 27.8179 21.1918C29.2239 16.7508 27.0989 11.9698 22.818 9.94077C18.5359 7.91477 13.38 9.25077 10.6889 13.0858C7.99695 16.9218 8.57495 22.1018 12.0519 25.2818C15.5239 28.4578 20.853 28.6758 24.587 25.7938L27.6299 28.7698C27.9429 29.0788 28.45 29.0788 28.767 28.7698C29.079 28.4608 29.079 27.9608 28.767 27.6488L28.7549 27.6058Z" fill="white"/>
=======
<svg width="20" height="20" viewBox="0 0 20 20" fill="none" xmlns="http://www.w3.org/2000/svg">
<path fill-rule="evenodd" clip-rule="evenodd" d="M19.7549 18.6058L16.3169 15.2468L16.239 15.1258C16.087 14.9728 15.884 14.8908 15.669 14.8908C15.4579 14.8908 15.2509 14.9728 15.103 15.1258C12.181 17.8048 7.68095 17.9498 4.58295 15.4648C1.48495 12.9768 0.75495 8.63277 2.87595 5.30977C4.99695 1.98777 9.30995 0.71977 12.9539 2.34477C16.5989 3.96977 18.446 7.98377 17.267 11.7268C17.1849 12.0008 17.2509 12.2938 17.4499 12.5008C17.6459 12.7078 17.9429 12.7938 18.2239 12.7308C18.5049 12.6688 18.7319 12.4608 18.8179 12.1918C20.2239 7.75077 18.0989 2.96977 13.818 0.940771C9.53595 -1.08523 4.37995 0.250771 1.68895 4.08577C-1.00305 7.92177 -0.42505 13.1018 3.05195 16.2818C6.52395 19.4578 11.853 19.6758 15.587 16.7938L18.6299 19.7698C18.9429 20.0788 19.45 20.0788 19.767 19.7698C20.079 19.4608 20.079 18.9608 19.767 18.6488L19.7549 18.6058Z" fill="black"/>
>>>>>>> c6ed94efae98f2ceb8b6dd87add8a1d593c1639b
</svg>
