<svg width="46" height="46" viewBox="0 0 46 46" fill="none" xmlns="http://www.w3.org/2000/svg">
<g clip-path="url(#clip0_0_1947)">
<circle cx="23" cy="23" r="22" fill="#F5F9FF" stroke="#E8F1FF" stroke-width="2"/>
<path d="M16.6056 23.1C16.6056 22.6053 16.6523 22.1573 16.7456 21.756C16.8389 21.3453 16.9743 20.9953 17.1516 20.706C17.3289 20.4073 17.5389 20.1787 17.7816 20.02C18.0243 19.8613 18.2949 19.782 18.5936 19.782C18.9016 19.782 19.1769 19.8613 19.4196 20.02C19.6623 20.1787 19.8723 20.4073 20.0496 20.706C20.2269 20.9953 20.3623 21.3453 20.4556 21.756C20.5489 22.1573 20.5956 22.6053 20.5956 23.1C20.5956 23.5947 20.5489 24.0473 20.4556 24.458C20.3623 24.8593 20.2269 25.2093 20.0496 25.508C19.8723 25.7973 19.6623 26.0213 19.4196 26.18C19.1769 26.3387 18.9016 26.418 18.5936 26.418C18.2949 26.418 18.0243 26.3387 17.7816 26.18C17.5389 26.0213 17.3289 25.7973 17.1516 25.508C16.9743 25.2093 16.8389 24.8593 16.7456 24.458C16.6523 24.0473 16.6056 23.5947 16.6056 23.1ZM14.6596 23.1C14.6596 24.136 14.8229 25.032 15.1496 25.788C15.4856 26.544 15.9476 27.132 16.5356 27.552C17.1329 27.9627 17.8189 28.168 18.5936 28.168C19.3963 28.168 20.0916 27.9627 20.6796 27.552C21.2676 27.132 21.7249 26.544 22.0516 25.788C22.3783 25.032 22.5416 24.136 22.5416 23.1C22.5416 22.064 22.3783 21.168 22.0516 20.412C21.7249 19.656 21.2676 19.0727 20.6796 18.662C20.0916 18.242 19.3963 18.032 18.5936 18.032C17.8189 18.032 17.1329 18.242 16.5356 18.662C15.9476 19.0727 15.4856 19.656 15.1496 20.412C14.8229 21.168 14.6596 22.064 14.6596 23.1ZM23.3757 28H31.2577V26.166H27.1557L29.7037 23.758C30.1144 23.3847 30.4457 22.9693 30.6977 22.512C30.9497 22.0547 31.0757 21.5647 31.0757 21.042C31.0757 20.6873 31.001 20.3327 30.8517 19.978C30.7117 19.6233 30.4924 19.3013 30.1937 19.012C29.9044 18.7133 29.5357 18.4753 29.0877 18.298C28.649 18.1113 28.1357 18.018 27.5477 18.018C26.7544 18.018 26.0824 18.186 25.5317 18.522C24.9904 18.8487 24.5797 19.292 24.2997 19.852C24.0197 20.412 23.8797 21.042 23.8797 21.742H25.8397C25.8397 21.35 25.905 21.0047 26.0357 20.706C26.1757 20.4073 26.367 20.1787 26.6097 20.02C26.8617 19.852 27.1604 19.768 27.5057 19.768C27.7484 19.768 27.963 19.81 28.1497 19.894C28.3364 19.9687 28.495 20.0713 28.6257 20.202C28.7564 20.3327 28.8544 20.482 28.9197 20.65C28.985 20.818 29.0177 20.9907 29.0177 21.168C29.0177 21.42 28.971 21.6627 28.8777 21.896C28.7844 22.1293 28.649 22.3627 28.4717 22.596C28.2944 22.8293 28.0797 23.0813 27.8277 23.352L23.3757 28Z" fill="#202244"/>
</g>
<defs>
<clipPath id="clip0_0_1947">
<rect width="46" height="46" fill="white"/>
</clipPath>
</defs>
</svg>
